<mxfile host="Electron" agent="Mozilla/5.0 (Windows NT 10.0; Win64; x64) AppleWebKit/537.36 (KHTML, like Gecko) draw.io/24.7.17 Chrome/128.0.6613.36 Electron/32.0.1 Safari/537.36" version="24.7.17">
  <diagram name="第 1 页" id="PmA4GYcgktqJm__YFvg-">
    <mxGraphModel dx="1050" dy="629" grid="0" gridSize="10" guides="1" tooltips="1" connect="1" arrows="1" fold="1" page="0" pageScale="1" pageWidth="1169" pageHeight="827" math="0" shadow="0">
      <root>
        <mxCell id="0" />
        <mxCell id="1" parent="0" />
        <mxCell id="09hrnqVz9W6icr5VIPB7-2" value="" style="shape=image;verticalLabelPosition=bottom;labelBackgroundColor=default;verticalAlign=top;aspect=fixed;imageAspect=0;image=data:image/png,iVBORw0KGgoAAAANSUhEUgAAAaoAAAJNCAIAAADvRKYGAAAgAElEQVR4Ae29+ZcUVbqv339Q/cDy2t7z5dxTLs4Xjn3pwVIaRbERtVGbdhYHcABnRaXVVhpBRUVkpmVQUQpQUJB5Hmuuyqqc54yInOOa9cKbm4jIyDkrK/cnVy7YFRkZsfcTO55495ARv8lW/RpyjDiGnSNOt9PlcXt8Hq/f6wv4A6FAMBwIhoOhSCgcDYWj4UgMbxAAARBoHgK/qdp+WeiveQ4ncgICIFA6AegPMSkIgICkBKA/SQ986VdIrAkCrUrgN3rVL8ewc3jE5XR5XG4vdfz5/EHq9aOOP2IXiSp4gwAIgEDzEID+IGUQAAFJCUB/kh745rkCIycgMFYEoD/oDwRAoBICpXQIjpXXStwv9FfJgS8RLlYDgRYjUIryCq3ThCigP+gPBECgCIFCRqNfNBT6t9C3mseD0F+RA988hwo5AYEGE7D0VyHZ2S+33FSDi2PeHfQH/YEACBgJmG1lsFswFCnxbfiiectmKzVsCfRnPPANQ48dgUBzEhANJcpL9B39or+Uf8VviVsT9zJWHKA/6A8EQOAyAVFJ4UiMbcUKY9/5A6ES3/wV3ghv1rC7xksQ+kPVBwEQyBEQZcSGImexwlh5Pn+Q315fwPDmj3z+IH+FN0Lb5F2I+22wAaE/VH0QAIG8+9hKluIjr5Hstp1yvb7bMe/rwbs39d+4uve/Pur+r4+6b1zde/em/nlfD76+27HttIvWpG+RB4tKsJEGhP5Q9UFAagJi8GXpPn8gxNYbdPo3Hnc+um3gvz7qvnZZV9F3+8fdj20f2HjcOejM3QaUPUgSHPMwEPqTuuo38kqLfTUhAbP7xKCP4jWfP+j1BQad/iU/Okq0nlmL7R93/+NHx4DLRxIUI0FRgmJ+GoAL+oP+QEBeAqwbivvYfaL4Rjz+D/cP//cnPWaplbvkvz/pWbHfMeK5HAmyBC0NCP3JWy8bcOyxC8kJlOK+wz2eaV/2las5+/X/vKbvRJ/HEAaOiQER/cGwICAjARv3UWvX6wusO+qcuKKkPj5735k/bf+4+8ujTh4YoUcDNd6A0J+MVV/yqAfFL+q+QafvyW8Gzdqq7ZKndwwMCb2B4j2SxYej1e94QX/QHwjIRaCo+w73eP74RW9tTVdoa39e03eoO98QbrABoT+5qn79LqTY8nghQPozj3VQm9ft9d/37/5CtqrH8r991e8efTouzZEWDcimrhNb6A/6AwGJCLBQWH+BYJhm9nl9AY/X//oeRz0cZ7/N1/c4+DFB3A9IOeQM18OA0J9EVb8eFQjbHF8EDKEfTT8m/Xm8/k3HR+w9Vb9PNx4b8Xj9HABSDCgasB6coT/oDwRkIcCRVCgcFaf4UbP34pD3+lpM7qtMkdd/0tM/4uXZMI1pAkN/slT9elw8sc3xRcAc+onN3pd3jUGzV3Rl0SZwzWlDf9AfCEhBwCb083j9FwY9dZriJwrOPj1xRff5QY/YBOaZgJz52hoQ+pOi6te20mBr45GAfej33I4Bezc15tOXOofsx0BqSx76g/5AoPUJcPRk6PWj0d5T/Z7rPix++5YGGHDiiu6T/bkA0OsL8BBwMBSp0yxo6K/1q35tL5jY2ngkYB/6rTw43AC1lbiLlQeHGxYAQn/QHwi0PoFC+vN4/W6Pr8HznO09eN+/+90en6EHsE4zYKC/1q/64zFaQZ5rS4D1x/NdaLKLx+vvG/H8x/KyW77nPPEvTgbtRXbtsq7VJ4Nd/kTR1cQV/mN517Arp79C7d8akoH+oD8QaHECho4/8Wcebo9vw1GnaJ8S0x8e9uu6vu50yGb9dWdCuq4vO+y3Wcfyo69PO92e/I1ReQo0F6RWBoT+Wrzq16qiYDvjlwCHfjTuwfqjlu+SH4YsHVR04epTQV3XN5yxNuCGUfetPlU8QjTvaMkPQ41p/0J/0B8ItDgBS/3RmK/b43vym8qnvJABzY4rtNxsOsslT34zQPoT27/16P6D/lq86o/fmAU5rxUB1p+548/l9t61sar7u5ijPPuo0NJ3hoV3bex3ub08/mv+AVytyEB/0B8ItDgBUX/c8qXoz+X2dqyu9tZ+ZMCVxwLXLutaeSxg0yI2aK7Qnx2re0X98QRAnv0H/bV4la3VAcZ2QKCQ/twen8tdm9sckAGPDKu6rq8v0BtYSHbm5dd/0uNye21GP2p1TBH9QaMg0OIEGqC/3y7rGgondV0fCid/W8Lzf83KE5dAfy1eI2t1+cJ2QKAoAXv9Vd/4vXZZ18azuTkuR0dy0V+hsWBRcPZpavwi+oMEQQAEqiVgqT+a9eJye2dvqPY5ljXv+5u9oQ+N32qPetGrIlYAARkIWOrP6wtQ39+j25pu5PfRbbmRX0R/MCAIgEC1BOz19+LOyh9oWWh+X6Hl9m1e/vTFnYPQX7VHXYYLO8oIAkUJ2Otv/ZEKn+9h7zjzfEC2W9HE+iMj0B/0BwIgUAMChfTn8fpdbm/PkLuCWx6sOJL7ze+Xtr9pW3e6kt/8/sfyrl6HG/P+anDgi14YsQIItDwB1h//5pdv9+Jye50uz72by+7+G46k1tre74BCvPVnQhd88aLhnrjCvZv7nS4P60+c84xpz3AiCIBAeQTM+vMHQvybX6fL88mBCu96IGqrVulPDgw5XR785re8Y9zy13AUEAQqI2CpP58/yHNfzvS5aiWv6rdztt9FHX8NuOMpfvUByYJAixMg/YUjMW788vMtae6L0+WpZvy3euXxFl7cOUgtX5tZL+FIrLLLgPlb0F+LV33zIccSCQlwAMg3fTG0f8/1u8bwGeekv+s/7jk/4LJs+YpPO6rh4YP+oD8QaH0CrD9DAMjt3xGn++09lU8A5PCtmsR7e4dGnLkx38bc6zQSVaC/1q/6NbxaYlPjlIBN+5emvzhdnu5B1+SVPdX4q5rv/v+f9Aw4cqEfj/n6/EFx2JeLUMNDAP1BfyAgBQEOAMX2rzgAMuJ0bz0xXP39WiqQ4G+XdW094SgU+tWp5YvoT4p6X8OrJTY1fgmw/gztX77v6a8TAEec7nd/HIMm8Ls/Do443TahX81n/NFxRPQHA4KAFAS48Uj6C4YifOdn7gF0ujzDI677/13t/Z/LCgAf2do3PHK52Wvu9RNDvxqO+UJ/UlT68RutIOc1J2AfANIkmBGnu2vAeePqBnUC3rqmt8/hFJu9Xl/A0OtXp9APjV8YEAQkImATAIo/AskZcND5103V3gewaAz4t3/3dg3m3CdOdhHdV9fQD/qTqOrXPJTABscjAXMAyE1gvgMgdQIODrte6az8GZhF3fdy54BjxMVdfoZ5zvxo8/qFftAf9AcCchEQA0DLMRD+HciI0z084vry8FAF94Oxd99/ruhed9gxfLX7+LGW4mQXdl/Ne/3o0oWhD7lq/3gMWJDn2hIQDWiYBMNNYLoTDBnwaPfI8zv6J67otpdaKZ9OXNH9/I7+o90jRd1X72bvWOqPDwASIAACDSYQCkfpze4T27/iKPCI000GdAw7T/UMv/hd38Tll/7Xv4q/zSr8zxVdL33ff7o3Lz7+ba857iP31Tv0q3vj19yAb/CRxu5AAATMBEoxoKEV7Bh2DjlGugacaw4OPryl9/+sKC7B//WvS/+5/NJDX/V+eXCwa8DpGHaag74xdF/t9We4Sxf0Z655WAICzUCgqAELhYHkwSHHyKajgy9/3//o1r471/f8cVX3fy7Pye6Pq7rvXN/z6Na+l7/v33RkcMgxMuQYcQzn3WcY6zBMc2lY3FfLxq9j2Dh6Tf2X0F8zVHTkAQQsCdgYkG8HTTEgdwVSW3h4xEVGI7sV+petR0Efi49vakDu8/mDJIoGu6/a6C87+iK7Gybv2OuPuSMBAiAwhgSo+49+AUI9gHwrQB4G4VYwTYgxGJCDQVGCwyMuelPvodPloZ4+Fh+3eXmWH4dKbGoK0Or6b4UjvyS+UvRn8PoYHmnsGgRAwEygkAEpADRIkMJA9iCrkH3HCRIfRUXiKIdBfGKcJEZ/dbUeb7xs/Ynis9Sf+Ks9nsLDBTPTxxIQAIGxJWAwoBgGciuYugK5LcwepMiOZce+EyM+CvrIDKw/g/hERVAAyJKqX6IM/ZnFJ+qPmvcc3FJMa9Yfg0YCBECgeQgEgmF6+wMhevv8QQ4AKQa0NyD5TvzX7fHR2+P1k/W4s6+QH8TJLg2QYKn6K+S+bDY7ODQ85Lg8ncegP0PDvnkONnICAiBgIMAG5OiP+gHNEmQPkt1cbq/hzeLjiI+DPlF8tEfKBsW/3PEnJsYy+rMRX2b0ZdAfGZA1bw5xRcpIgwAINA8BDv3EALCo/kTZcZoiPg76WAii/gz+NYd+9ZZgkeivkPtIfKL+aE4j93FalrZ5DjNyAgIgUIiAKEFqAhsawtwWZsfZJLy+AL1ZfLR93rvY62cTA9bjZ792+rN0nyg+Sg8MOgaHhkX98d36SYJiaUWySIMACDQnAdF6ZveVqD+2nrg1Ki+7z2ZmiBj6cbq2DeGC+ivFfenRF+uPJz+L+uMw0PIwi1yQBgEQaCoCHLiJiVICPXF9lqDZAOw+bgUbRsDZemKihga01l/p7kun0wODjoFBhzj5mW9eKPZ3ln5czeywBARAYAwJmJVHmTEvF5fQOuYTn8cDOAZk/ZXYEK6VAS30Z3afocFLQR/9m0ql+geGWH/8k2axB1SkMIaHELsGARCokoBot6Jpw77Ig2IMyPqjRFkSrIkBjfor132sP3H8l+/cTxIkTCKLouCwAgiAQJMT4BDHnOCci2e9GAYWkmCDDVhEf4XivpTw6usf7B8YGhwaHhwadrk90WgsHk8kkql4Iok3CIAACDCBRCJJZogpajAUFseCxUiQJWjfFVh9AHiV/uxDP27zsvqSo6++/sG+/kGHY0TVNC4nEiAAAiBQjECCZlZzMMgStDSgOABC6SoNmNdfZe5LJpO9fQPBcLhYOREJggAIgIAFAUVRLcPABhiwoP7EZm+huC8x+orGFLgPBEAABComoKpxcWCkrBiwmgDwsv4MoV/p7kMfX8WHHF8EARAQCCQab8Ai+rOP+5IY38DwDgiAQI0IlB4DGjoBKw4Ac/orGvoZxjqozZtIWjTjBZfjUxAAARAoj0AkptjEgOJAcE0MaKc/Q+hH47zkvng8DtOBAAiAQG0JaPHLY8E8GEL9gOZhkNror1DoZ+m+ZDKZSCTi8Xgqla5tsbE1EAABEIgnkqoaF2+Vwr+Qq4cBf2OvP8tmL0I/VFMQAIE6EdDiCcN9UgwDwdwErj4AvEp/POBrGfpxszeJXr8a9fXWqQJhsyAwrglEojFLA9oHgBUMgNjpTwz92H2jnX7ldWeO6yOBzIMACDSYgBrPtX/FJnCdAsC8/jj0y2QyFP2R/gwjHhp+2YbQDwRAoM4ExHvl0U/ixDEQbv8a7o9fbgBooT9zy1cM/TRNw5SXBl8MsTsQkIpAIpnkh4TwPBhRf+JtAcUewJrpr1Doh+hPqoqIwoLAmBCgW2bZ9AByACjqr9zngVyO/rjlaw79eLJLPB7XNE1V1THBgZ2CAAjIQ4CekGnZA0gDIHXUn03oB/3JUwVRUhAYKwL8gOByA8Cy2r/W0Z9Bf7mJfldCP+hvrCoE9gsC8hDgG8WXGwDWRX/a6EtVVUXB7a0w7wcEQKC+BFxuryEAtBn/rbj776roz9zxx2O+0J88F16UFATGnIBZf/QrYMvx36r0Zxj3sG/5Ivob85qBDIBAyxMg/VU2AFJ6+zcX/ZWuP2X01fLoUUAQAIGxJeByezkArF/3X0n6E1u+sVhsbLlg7yAAAi1PwOnysP74FyAldv/VJvoTO/7U0ZeiKNBfy9c8FBAExpwA64/bv5Y//7Cc/Qf91XdYaswrBzIAAq1NoNH6E4d9+TYH4ow/6virSfTnD4b//tQrbe0dbe0d7X+688TZi+KxDIaj8xa9SZ+a/13/1Q5x5dLTnXsP8NZeentZTG3EU4kDocir76y4dsotC157z+MLlJ5b85pef+jbXfsenP/qpq93mT+txxJVi5+50PPeR6sfWvC60+Orxy6wTRCwJED64/avufvPcPOrygZ/831/jdTf6fNdk266i2W0av02EUE99BdTtdfe/Yj3eMtfHxscdok7rVP64LHT10yeTvv9+dCJavay/qsdtJ2KLwDl7t3p8c24d15be8eMe+dBf+XSw/rVEBgb/ZlnvRjGPWoS/dGZPO3uR2b9fX5be8e8RW8Gw1FLWHzOV+mOEbf39vufpH1NmDRtwqRpVW7QMrfmhYFQ5Lk33q9J9McooD8zZyxpMQJOl4fbv+LtDwqNflQY/RWd9VJz/UVj6rOv/7OtvePtpZ99subfbe0df7jjgZ7+Icvjx+d8lbY6fOLsdTfMmDJ9zp6fDt181yNt7R1LV6613GPTLmQU0F/THiNkrFYEytVfZTf++025+otGrcO00os94HCSgDr3Hjhw5NSESdPa2js69x6w3AKf81Xqb+Xar9raO/7+1CvDTs9TLy2htD8YNuy0t9/x3kerb7rzIWpmTr/nsfVbvguGIuJqqhbff+Tkglffvb5jdlt7xzWTpz+04PX9R06qWv7pd9xs5Ob2lOlzznf1ituhdCSqdO775cH5r06cOrOtvWPi1JnPvv7PMxd6tHiCVmACvCkxIQbOMVX7+dCJBa+++z+33kvr/GHm399e+lm/w8n75YwtXbm2d2D42df/OXHqzAmTpt3z2MJjpy/QaryOuCMxXeWx4MwgAQKFCIw43WVFfzXWX6FZL9Xrb/e+gxMmTaOIj1X49tLP+IQXifDJX80pFwhFHlzwGkd8pEKzj34+dIKMJp7qbe0db36wkrMUU7UPVq4hZRtWE3NoNoh5d/FEMhiOPvPae4bttLV3iCszAfNqhn6Dnw+dsFxn6m1zL1wxL2fs9vufnHrbXHF93imvI34qpsWSMhkkQKCGBET91W/uS8Hor0760+KJt5d+xsEXN4Rvv//JEbfXjI9P/mpOufNdvVOmz+EYkxrCbe0dYisyHI1RVDhl+pzjZy5o8YSqxYednvVbvvvXZ+s4Yxd7+m+YcX9be8djz73h9vrjiWQ0pl7s6V/8/soDR07xapzgYRyWC38UTyQ5+F38/spQJDefPBiOHj9z4eUlH7KweH1GIWabP40nkgePn3nzg5UXe/qjsdw9GUOR2Kdrt5CpuaUvqm3K9Dn7fjmqqPH1W74zrEab5ZUx9CFyRroBBFpTfx5/8J5Hn+dALJ5IUix23Q0zDp84a8bK53w1+tu+80exh5FDzmdf/yeZgrxDs22mTJ/zy9FTlqFoPJFkkz644LVhp8ecYcMSe/1xvPbyP5YbmtiG7cQTSUZRSH/mr3BueaIPG23i1Jl7Dxylr/Bqb7z3sVhwXhn6M7PFkroSaE39nTh7sf1Pd4oDrxyLrVz7lRkon/MV6y+mai+9vUxsJ3LIefNdjwxc6RfT4ol/fbaOm3jT73ls6afrTl/oNkwPdHv99zy2kFa7ZvL0X2cvbty+c3DYJVpDLIW9/rp7B//0lwdoaxOnznzyhbe/3bWPgkpxI5RmFDb6o77L6fc8ZmiecxehpdFYf7wa7dFyZXPGsAQEak6gufTHc56r7PtbtX5bW3uH6J1hl/eWvz4m6klEyed8xfobHHbR9kW9rtn8TVt7h2jheCIZiSoff7mZhiDYg7+bcf+enw6Jdhscdj32/GKDXx54+tXegWEx55S21188kTx7sWf2w8/y7ihXL7z9L5cn17IW34zCUn9aPLFlxx5D5nmz7DVLo0F/Imekm4EA60+c+Vzz372V2vdXE/2xC/i0FBOW01/4nK9Yfz8fOmFQlbhT7hTjQx6NqafPd7330erJ0+6hNSfddNfp8128AiU8/uCPPx9++qV/8KzmBxe8Frh6jNjQprYc+Y0nklo8MeL2frtr3/3zXuSsvvbuR4bAk1FY6o8tP/W2ufuPnKTvmr0G/RmOI/5sTgItqL+e/qE/3HG5rSc6iNPbd/5oOBh8zlesv6Ur1/L2zYl7Hn3e4w8adkp/BkKRx55fTF/ZtL3Tcp14InnmQg+Nq9ww4/6LPf2G1dj4lkMfhpXjieSenw5dd8OMtvaOmX97ytAK3nvgKGXGUn9sOnGc+tDxM+1/ulOMrMvSXzAUeey5N/CrD/NhwpJ6Exh7/Vn+4Leaxi/96tY8ysHdf9xDz3Cr1B//uFgc5aDhWpp6zb84dnp8zy9+/9td+0bcXmrq9vY77nxggaGNfODIqZeXfHjw2Gn6mYqqxXftPUhNTsvBa3v9ffXtnneXf3H6fBeNwMRUbc3mbygA5OYqo2BKlqMuPCR95wML+odGYqrWufcAebli/XEn6XU3zPi6c684sZFzhQQI1IOApf7osUf+QEi853M1N32xa/zWVn/8q1uzJvgXafQRK8McrBlmqxTlzj8uNkdMLFb6iMMi804XvPYet2p5rNaw2q9N4I3bd3IXYaHV6FscyXIeDFu7vmM2D8tyGb3+0ANPv2pYky0ZiSrPL37f8Ol/33w3GZBX42KKg7kcOfJqvNPOvQe4Pc4b5/zzakiAQG0JtJr+2HHmEI8HZykwrKH+yC8c4olHiMag29o7ODA0DJte3zH7wQWv/bj/iNgHxz/5EH9Z8eo7Ky719rP74olkifq7/JOPBa/RdOsJk6ZNv+ex9z9ZU+h2DC6P/50PV/GuxbAunkj6AqH3PlpNm/qfW+/9YOWa/qERmszIXitXf1o8sffA0XseW8hdnL/Oyob+xIqEdD0ItJr+6sEI2wQBEGhJAtDfVdM+WvIYo1AgAAKWBKA/6A8EQEBSAtCfpAfe8mKIhSAgFQHoD/oDARCQlAD0J+mBl+oij8KCgCUB6A/6AwEQkJQA9Cfpgbe8GGIhCEhFAPqD/kAABCQlAP1JeuClusijsCBgSQD6g/5AAAQkJQD9SXrgLS+GWAgCUhGA/qA/EAABSQlAf5IeeKku8igsCFgSgP6gPxAAAUkJQH+SHnjLiyEWgoBUBKA/6A8EQEBSAtCfpAdeqos8CgsClgSgP+gPBEBAUgLQn6QH3vJiiIUgIBUB6A/6AwEQkJRAg/SXTqczo6/06Cs1+komk4lEorYPupTq2oXCggAIVEMA+pP0uldNpcF3QaA1CEB/0B8IgICkBBqnP2r/ovHbGpdNlAIEWoAA9Cfpda8F6i6KAAJVEoD+oD8QAAFJCUB/kh74Ki+b+DoItACBhuqPOv7S6TQmvrRA1UERQGC8E4D+EP2BAAhISqBB+kulUhz6Ifob79dM5B8EWoMA9Cfpda81qi9KAQLVEID+oD8QAAFJCUB/kh74aq6Z+C4ItAYB6A/6AwEQkJQA9CfpgW+NqzdKAQLVEID+oD8QAAFJCUB/kh74aq6Z+C4ItAaB5tVfAC8QAAEQqCeB5tVfa1xeUAoQAIGmJQD9ofELAiAgKQHoT9ID37QXZGQMBBpGAPqD/kAABCQlAP1JeuAbdoHFjkCgaQlAf9AfCICApASgP0kPfNNekJExEGgYAegP+gMBEJCUAPQn6YFv2AUWOwKBpiUA/UF/IAACkhKA/iQ98E17QUbGQKBhBKA/6A8EQEBSAtCfpAe+YRdY7AgEmpYA9Af9gQAISEoA+pP0wDftBRkZA4GGEYD+oD8QAAFJCUB/kh74hl1gsSMQaFoCrak/LZ7AGwQkJ9C00mmejLWa/rR4QscLBCQmkNX1bDabSqcTyRRdAJpHN82Wk5bSHx1siWs+ig4CRgKpVBoSLKTd1tEfHWNVixuPP/4GAekJIBK0NGBL6U/V4oqqSV/VAQAELAgkU2gLG8c5W01/MUW1OPJYBAIgoOtoCBtiwJbSn6Jq0B9OcxCwIYAYUDRgi+hPiyeo5RuNKTbHHh+BAAjEr0wLE0UgZxr6w+kAAtIRULW4Fk/IqTyx1NCfdFUfBQaBZCoFA8YTSegP5wIIyEhAUTXMB4T+ZKz6KDMIUHe55E1g6A8nAgjISCCVSlMAKPaFyZaG/mSs+igzCGQyGUXVJO8BhP5wIoCAjASyWT2mqNCf0+Vxub0ut9ft8Xm8fq8v4PUFfP6gPxAKBMOBYDgYigRDkVA4Su9wJMbvSFQp5f2bVCqVFl6p0VcymUwkEvHRl6Zpqqoqo69YLBaNRsuKwzHvT8YzGGWujgD0h+ivuhqEb4PAuCUQU1TJu/+gv3FbeZFxEKiOQDSmQH9o/FZXia7+9ubtO9vaO+g9Zfqcnv6hqz/Xi65gWL/Qn4FQ+Lb7nnjyxbdxj69CiLDcngDrT9rpL4j+8jWExHT4+Jn8Il0/fPxMW3vH5u07xYU26aJ2K7qCzcbFjyrWn6rFn3zxbXY0J2BSEW9Z6eOnz193w4y29o4f9x8Wv9jkqEl/Mo9+QH/56loT/fHmNm/faRn9lb4Cr2mZgP4ssTR+YTab/fDz9fc88vysB+a/+s7yVDrNeYD+yhrAbPzK0B/X1cvN0iqjP95c0+qPc0gnJ4I+BlJZIhSO3P3Ic5u371y1Ydutcx53e/3m7TQnakR/0F++rpYY/Q0NO+cteuuaydOvmTz9kWffOHuxO5vN5rdyJVWx/rLZ7NmL3Y88+8Y1k6dPmDRt5t+e+qZzrxhT0B4qjv6uZFCv5pxMJJJ7fjo05/FFlplcsuyzJ198+/T5S7f89fHJ0+45cvLs0ZPn/u9t998468HuvkHOQKEExVPX3TDj5NmL4joXu/sm3XTXh5+vJ+D2oMx8qLy33fdEIBSmzW7evvO2+57wB0NHT56b9cD8tvaOm2Y/dPjEGcsDKuZETB8/fX7K9DnnLvWcPHtx4tSZ+345Kn5K6WpQm7dWqyXQH/SXr0ul6K+rd+D3t8/l/rK29o6JU2ceOHIyv5UrqYr1d+DIyYlTZ4q7aGvveP/jLw0GVFVt3sI3q4ndqjknqUtUzOSESdN27P6JSr9k2Wd3zNITgnMAACAASURBVH36lr8+TivMferlP9/zKKXf+XBVKXI5efbidTfMYNPRZtds/mbSTXdd7O6jP+1Blai/m2Y/9O6KLyZMmsZl+f3tcwcdziuHsfj/yz/fMOexheFozB8MzfzbU5YFrAZ18RxUugb0B/3l6444KMEnAyVo6IMq8e9vn3vk5NlUOp3JZE6cuTDj3icefvZ18zNGKtOf2+u/dc7jU6bP+XH/YXEX4mlPOabMvPXBylJski+kkKrmnDx59uLHqze7vf5sNpvJZI6ePPf72+fOf+WdeCL3oNElyz5ra++Y/eAzA0Mj8xa+2dbeMW/RW8NOz92PPFeirxVVe/jZ1+9+5LlQOEJZjinqg/Nffe71fyYSSV3Xi4IqUX9t7R0TJk3716frIlElk8ms27Kjrb1j6449Aie7ZDgam/PYwuWfb9B1PZVOL37/k5l/e8ofDBm+Uw1qw6Zq+Cf0B/3lq1NR/fX0D02ZPuebzr357+j6hq3f/W7G/X2Dw+JCXc/1JFYw9PHj/sNt7R2GXez75eiESdMMo890Ri1Z9plhv6X/WcNz0rCpJcs+mzBp2o/7D9PyiVNnnjhzwbBO0Xx+07l3wqRp3BV77lLPpJvu4qZlUVAl6i8H9utOvoTQITagtskqNXg5kz/uPyzmmb9Ybtn5i3VNQH/QX76CFW38mlt8FBuae6kq1p+lNIdGXH/8ywMG09EZZViYL0wJqWrOyUQi+fXOvTP/9pTYbOTIbsmyz6iLjXYhpnmdohmk+I7bkss/3yAGg0VBlag/+0tU0Uwu/3yDONxBR8rQZtf1qrpZi+ah4hWgP+gvX3maXH/vrVidz+uVM2pM9JdKp9//+EtD/0BbewerrSb6o7YkyYVGV9ds/oYJ2OiPQDVAf9TyNXMQNU0ZruZKw0WueQL6g/7ylaqo/s5d6mn/052Gqa3571+dsjw/xVUsV/huz8/mxi81qb7b87P49erTFZ+TFOPcMffp3gEHNRsNm6qJ/nRdP376PI2lHj99/ubZD4sjEkVBmfXX2z/053seNYz8VhP90fiMWX/m1oCBT/XHriZbgP6gv3xFKqo/ikFm3PvEgSMnk8lU/ptWKUu7iStarjDocP7+9rni6MqxU+dunPXgjbMeFE9+Xdd9gdB981547PnFkWiFD7er+JykDrJ5C98MhSPZbNbt9X+8evP1HbNrG/3puk4DIM+8+t5r765Y/P4n4th3UVBUuinT5xw7dS6TyZw+f2nGvU+0tXfUUH/LP99gtiddI2kwhA93xah5C/VIQH/QX75eFdWfruuWky34tKdabg4H+JQrukI2m938dafYofbrQOQ1k6dv2bGbu+cpx9QRaT798uUpkCqUBy5Fge/lF0eiyn3zXhCLOWHStGun3MJbqFX0R12oEyZNu+6GGTy8QPkoBdSazd+ImZwyfc5Nsx/iY1FK/2y+zKYUjURzkflzahHTVJjqUfNm65GA/qC/fL0qRX801fbxhW+KU/P4HChU3fmUK7qCruuZTObnQ8fvevjZCZOm2cysrjj6K5QHLkWeSOHUsNPDc7/nPvnSoWOn3/pgJW+hhvqjKM/cm1YKKC2eWPHFxolTZ14zefq8RW8NDTtXbdjGx6JK/VGUt2rDNgOkbDb7zoer2v9057lLPTVBbdh+Df+E/qC/GlYnbKr2BM5e7J50013ioEft9yHrFqE/6E/Wut/05c5kMtTvecfcpy1/SNv0JWj2DEJ/0F+z11EJ8ye2GQv9plBCLDUvMvQH/dW8UmGD1RIg/V0zefrcJ186ff6SYcyn2q3j+1cIQH/Q35W6gP9BQDIC0B/0J1mVR3FB4AoB6A/6u1IX8D8ISEYA+oP+JKvyKC4IXCEA/UF/V+pCY/+nScs3znrQfKesxmYEe5OXAPQH/Y1N7ed7Z5V+a7mxyWh99mq+H0F99oOt2hGA/qA/u/pRv88o+ptx7xMDQyMV7MXt9T/14pKt3/1QwXdL/EpddwH90VEQZziKP0/mnw+WeLAqWw36g/4qqzlj/K1yb0pcQXbrugvoj44I9Nf4h1uKe4T+KjDD2H+lrm6i4tV1F9CfoQ6RBxsT9PGuEf1Bf1wZcgn75zfSqkPDzoWLP6A7vtzy18f3HjiayWTErdivQPeVoZZOodtVFdpCoWDBcBs7+1KQet5bsZqf2Dlx6swVX2zU4rmnFJW4C7G8FaQpDwsXf+AYcb/w1tJrJk8X80AbtHmOJd1v1Xy3FV3XV23Y9se/PDA04ioxV4b769Ajmfi71ZDkjZSSgP7EoKxhaejvqsrJIxLcESM+v1HX9d7+IcODLg0KK7pCUf3ZbKFEN9mXgtRz0+yHpkyfw8Vsa++gu6qUuIurqJX/B+XhjrlP3zjrQXMeaHuWt1akB37SPfUsb/RPz9jk58PZZy2VTi9dudZwd0Vxs9WQtN+14VPor2HKE3cE/V1VD+2f30h3iGv/051HT+ZuIEw3Ov5s3RZx8srm7TvtV+D9Wd7tuZRd6Lpu3zK1LwWpp629Y8a9T5w+fymTyZy92D1l+pxfnxqsqhpnz34XvFplCc7DjbMePHbqXDptzIP9cyzjicT8V96hpuKvt91euPiDV99ZnkqnaTk/b7No3g4cOXndDTNm3PvE8TMXUul0Kp0+f6n339/s4i/WhCRvzSYB/YlWalga+rOpkxYP6Ppuz8/0WFjRFOImiq7AKxfSXylbKMtNhlOL1PP72+d29Q5QZmgF8T6gRQ3LpagsUTQPRZ9juWTZZ3RHZV8gdOucx6fd/ajL46NHv4vhm032Uun0q+8snzJ9zqWeyxxsVqaPKiNZdLPc54C+v4aJj3YE/V1VOe2f30hPn3jt3RV0A/oFr7y7//AJeuo2b0VRNfsVeM1C+itlC/b6sy8FqUc808ZKfzZ5sIQjPvBz8/adt8553BcInTx78W9PvnjnAwsOHz9DRStxKmWhu9XzAaK+YJvneZZIUtxgobRBrIVWq+1yDH1Af/kaVfT5jbRqNpsdGnYuXbmWOgFvnPVgd99gfiu6XnQFWtnyDC9xFzb6K1qKEk9am12Iha0sXTQPlnBIf/Qcy8PHz1Cv66oN2z5fv/WdD1d9+Pn6QYfzj3954MCRk6XkijoQRQUbvlUrkobNWv4J/TU47kP0Z6yHRZ/faPhCJpM5cOTkpJvuoo4nw6f0MAqbFSzPcMNGCu2C3GR4nBh9t2gpiqqHtmOzC0MmK/izaB6KPseyq3fghlvv/engsWdefe/k2YuHj5+Z8/iiY6fO3Tz74XOXekrJEnUU/vmeR51ur+X6tSJpuXHDQugP+lOV0VcsFotGo2Xh0OIJVYsrqhaNVfjUR+7tsnl+o67rX2zcvmvfwXA0po9GeYMO5x1znxb72ouuwPW+kP5K2YLL45t2d+6Rtb39Q4a7gZK2bEpRVD2UQ5tdcBG6+wZvnPXgLX993BD/8gqFEkXzUPQ5lpS9pSvXPrTgNX8w5PL4brvviX9+tLqsWS/0KLi5T77UO+DIjL4udPXx0EetSBaCIC6H/so632u1Mhq/+UpY9PmNuq4vWfaZOFGjrb3DMDPGfgWq5YYtGGbt2W+BsptIJF94a6m4HR64KFqKouopugtGtnXHHsoDNUh5edFE0TwUfY4lNV3b2jso9Kbx3+tumHHH3KdLnPVCPbnzX3lHxNjW3sEjJ7UiaUOjUH2waZLbbK3cj9D3B/1dVWfsn9+Ye7i4P/jPj1bfcOu9be0dE6fOfHzhm2cvdovxl/0Khao7y6uUXVCOg6HIPz9afX3HbDp7xS3Yl6KoepiIzS5onUhUeWjBa6Iy+Lv2iVLyYJiQ/Mizb4ioyXdt7R3f7fmZ9kXt5XLFoaraZ+u23Dz7YTqgCxd/MOz0cOZrRZI3aEgUqg/llsKw2RL/hP6gvxKrClYzEshms/5g6JlX32tr7/imc6/xY/zd9ASgP+iv6StpU2aQ+sUo8Jz/yjuKMF+6KfOLTFkQgP6gP4tqgUVFCfT0D/1uxv0z//bU1zv3GmY+Fv0uVmgSAtAf9NckVRHZAIFGE4D+oL9G1znsDwSahAD0B/01SVVENkCg0QSgP+iv0XUO+wOBJiEA/UF/TVIVkQ0QaDQB6A/6a3Sdw/5AoEkIQH/QX74qmn+KkP+s5FTRmzmXvKUxXnHz9p3XTJ4+5/FFW3bsLnRzwzHOInZfHQHoD/rL1yDoL89C10WPz7j3id4Bh/gp0i1AAPqD/vLVuCb6480VuqELr9D8iUwm4/T4lq5cS2Fg6bcSaP6iIYe6rkN/0F/+RID+8iyEVDab/WLj9gmTpu375aiwGMlxTwD6g/7ylZj0Z//0RV3X+fmQ10yebrgNSX5bo41Hw0PgdF2nXfz6nAq+lYj5AY/iRgzpbDb74efrr7thxsmzF8WPLnb3Tbrprg8/X0/3nrF5RCTnQbynCN13RLxnjLhxXdcPHDnZ1t5R4k3kDd/Fn01LAPqD/vKVk9xk//TFrt4Bw4MuJ06daXl3dcvGL+1i5t+eMmxk6cq1qXQ6n5XCqZNnL153www2Ha24ZvM3k26662J3H/1p84jICvQXCkeefukf4q2lCucOn4wnAtAf9Jevr+SmtvaOQk9fpCjp97fPPXLybCqdzmQyJ85cmHHvEw8/+7r5lic2+qOHTJ44cyGTyfQPDd8x92l6UFk+K4VTiqo9/Ozrdz/yHPfE0SN7nnv9n3TrAftHRJalP/HGqzY3hS+cWXzS1ASgP+gvX0FJfzZPgKS7PBnubbdh63e/m3G/+Khf2qKN/u6Y+7Tb6+cdb96+c8KkaUdPnuMl9olvOvdOmDTt8PEztNq5Sz2TbrqLO+aKPiKSillK43fVhm2WNwG1zx4+HS8EoD/oL19Xi3rh8PEzhhuj05/mzjh6Wnmhvj9RPbqu02ZZZ/kMFUhRfPfOh6uop2/55xvEYNBSu/TUHrqNe9Fi8m43b99p0yHIqyExTglAf9BfvuoW9UKT6C+VTi9+/5Nb5zzu9vpD4cjdjzy3ZvM3XAwb/dETOYoWU9wU9Mc0Wi8B/UF/+Vpd1AvnLvW0/+nOH/cfzn+ncMpSQ+Zd0GBu+5/uLPHxjLTD46fPT5w6c98vR4+fPn/z7IcHHU7OSNFHRJrz0Ns/9Od7cs+NC4TCvB0kWp4A9Af95Su52QuGGSEUas2494kDR07++qid/DetUjb6e+TZN3yBkK7rWjyxafvOiVNnWg6eWG318jIaAHnm1fdee3fF4vc/EUeNiz4ikgo1ZfqcY6fOZTKZ0+cvzbj3CcPT5nRdT6XTS1euvWn2Q+ZuTZuM4aNxRAD6g/7y1bWo/mgG3MSpMw09gNyXR2YxfCqahXZhWEEcbMnnpliKBkyuu2GGodOw6CMidV2n59tyNqZMn3PT7IcM0R9nFdP9ih2K8fo59Af95etuKfqjGcWPL3xTlGDF+ru+Y/aiN5cODeebrvncFEtRlCcOevA37B8RSVHnii82Tpw685rJ0+ctemto2LlqwzaD/hD9Mc9WTUB/0F9D67bZsBXv/uzF7kk33SUOelS8KXxRTgLQH/TX0JpfE/1lMpljp87dOOtBw/zBhpYEOxv/BKA/6K+htbhK/Yl9i4V+bNfQ8mBn45kA9Af9NbT+1kR/10yePvfJl06fv0TTnhtaAOysVQhkMlnor3X0p8UTiqpFY0omk2mVKopygEC9CGQyGdKfFk9o8UQ8kZTw3SL6iyeSrL9kqsiMvHpVKGwXBMYPgWQqxfqTUHxU5FbTX0xRVU0bP5UQOQWBsSGgalpMURVVkzb0iyeSLaU/VYvHFDUSjY1NhcJeQWD8EIhEY6OxQhz6c7m9LrfX7fF5vH6vL+D1BXz+oD8QCgTDgWA4GIoEQ5FQOErvcCTG70hUKeX9m1QqlRZeqdFXMplMJBLx0ZemaaqqKqOvWCwWjUbLDci1eIL0F40pdOe78VMVkVMQaCiBRCIZjSnQX6tFfzT6EY5EG1qbsDMQGFcEwpEohn1bqvHLox/U/o0pyriqkMgsCDSIQExRqOUrecdfC+pP1eIcAGrxeIMqFHYDAuOEgBaPI/TjjrXWafxS9EfTXygADEeiiWRynFRLZBME6k4gkUyGI1Ex9JN53KPVoj8yIAeAkWgsFI5gHkzdzyrsYDwQUDUtFI5EojH0+rVm9EelEoeAyYAxRcXvw8bDGYo81oVANpuNKSq7DwO+La4/swGDobCiqOnSnqVblzqIjYJAwwmk02lFUYOhsNl9kjd7yYAt1ffHUif98TTASDQWjkRD4QjVA0VR44lEKpVCSNjw8xE7rC+BbDabSqXiiYQyGu5Rhaf+Pp7op2pST3VmS7Rg3x+XjX7ITf2AMUWNxnKD/SRB8mAwFKZ3IBjCGwRagABXabJeKBwRxaeoGokPcR9bojWjPyqewYAsQfIgqzAUjuANAi1DIByJkvVolCOmqPTbXriPrceJVtYfT4X59S6hFAYqau5n3tGYQu9INIY3CLQYAa7eZD0K+uA+Vp6YaHH9UVE5DBQ9SCqkayP+BYGWIaCoGr2ptkN8ou8MaSn0J0rQoEKuIkiAQCsRoHpO/xrOefzJBCTSH5eZG8ViFUEaBFqJgFjbkS5EQFL9FcKB5SAAAvIQgP5kfMSBPPUbJQUBGwLQH/QHAiAgKQHoT9IDb3NJxEcgIAkB6A/6AwEQkJQA9CfpgZfk8o5igoANAegP+gMBEJCUAPQn6YG3uSTiIxCQhAD0B/2BAAhISgD6k/TAS3J5RzFBwIYA9Af9gQAISEoA+pP0wNtcEvERCEhCAPobx/prpZ/ooywgUBmBakwN/Y0//WnxhCusbTsXfL5z5M5Ng3/4ou8/P+q+dlkX3iAgJ4GKb98P/Y0n/WnxhC+qvfGj639/CNmBAAhcJkBhYwVhIPQ3PvSXe3ZdPLHptP9/PuuV8wqPUoNAIQIV39Ea+hsH+qOL20dHPIUOP5aDgMwE+CF25QaA0F+z60+LJxQt8czOYZnrN8oOAjYEYopKASD01+w6K+sIUdz36TGvzbHHRyAgOQF6pl0FAyCI/ppXl+S+vd2h32JUFwRAoDCBaEyprP0L/TW1/kIxDWMdkoc2KH5RAtBf81qsrNYur5wb6tXiyw9huAPTO0CgCAHor6X0R81eRdVuwDSXwk2eokEBVpCEAPTXavpTtfihgbAk1RfFBIFqCEB/raY/RdWW/OSupk7guyAgCQHor3X0R71+iqr99d+DklRfFBMEqiEA/bWa/mKKevOX/dXUCXwXBCQhAP21oP6u/6RHkuqLYoJANQSgv5bSn6JqMUWtpkLguyAgDwHor9X0F40p8lTfnweVTFa/4I3fvAbt/SJz3OSpFaWXFPprEf3xuEe99XfQoeq6/tX5sZ9bc/9WhzuW0nU9lsw8v8tVeqVvkjUbQ/L5Xa5YMpNIZ/uDyU+OBdo/xg1u89cJ6A/6y9eGgw41mcmuOOI3CIJOoYOOXLO6Vift/kHFp6Sr1BZFf6dcWs2jPyqmfuWVSGe7A4l/7C/7FhI2xawVScPBMvxJx47KkdX1M+749HUDhnWk/RP6g/6K62/xPo+aytZWfz2BRDNHbQb9kT6SmeyqE8GyZGFTzMboj3J7/1bHtouRaCKT1fUf+2NlFaGFV4b+oL+8/rZdjFg2bFcc8Scz2W0XIzWM/my80Aznm+im9o+7X9vrueRLZHV9JJqavXmo9BzaFFPcRekbrGbNN3/KXcZ8avqhr3EXyFy1h/6gv7z+vjofttEf9fcddKiZrL7hTGhPX0xLZXVdD8czq09dFRP9Y7+3O5BIpHOfpjO6I5JacqXZSLu40qa86n+KLks5vcUGna7rPYGE+VuzNw/9NKAoydE8ZPX+UPLFH8r4MYzZTc90usLxDEWs7x/0xdPZ4Uhq1qb8DPOb1/T3B5PxdPb9g75SilkKyQe2D59yaXErknQpSqSznx4PHBxSaR3zsRDJzN3u8CrpZg66xdw2IA39QX95/a07E8pkdYryVp0IxtOX23qrTgSTmey6MyE65dIZPaTlmlH8UpLZ1/ddvscMj0jwp7quh+KZBTud1y7rKsULRet9Uf3dvKb/oi8hZqCQJQvtq5D+QvHMU987Z20aHI6kyHS8hdf3eZRkboTh5jX9pRTzoEO1J/nQ18Ou0bEdsSDxdPbjYwHaKQk0lsiIK4jHgvN27bKuqav6vuuKprO5Y/HU97ljgTf0B/3lTwNq5Ip9fCdcGjmLh0TIC9nRmGvejpH7tjp6AznRkDSvXdZ1/1bHOU98y4UwRUbzdoz0BXMx2KZzVw0W27QKSz8tyYPm6I+WOyIpauXN2jS47WLk2EiuLCW+Rf1R47c/lNT13CQbGjzd0RXJ6vq+gfw0o++6o5msvvFs7iLBb5tiFiV5bETTdd0RTtKlZd6OkQu+eFbXybDcEZHV9Qu++APbh83HgrJBh5UVecKpYfyXyEB/0F/+XGX9UXQT0jLuWOr+rY6vzocN+rvkS/AAIkU6Nk1XWsEwV8bGC+yOoolC+nvqe2dotKG69nSoslOd3MTKoEQonnl17+Ugl9rCxOfaZV03r+kfDCXN3Wo2xaRdFCL56LcjfjUdjmee6czP6Xno62Gfmm+92m+B6dHIla7rSjK7b0DhA8crSJuA/qC/vP5e3ONWktnDw+qiPS6fmv6xPxZLZt474PuuO6oksy/uyfWd0Sknusysv/d+8TkiqfRVbTLjVEEbL5R+NhbS37XLuv59LqdsXde1VPaUS3vzp/Lu/yrqL6vrsUTm4JD6wParRgyOjWh8VXjvgC+eysnFkHmbYtqTLFS0894479R+C5wT2pTN9YnXlC0B/UF/ef3xKbfuTMgVSy3+yROKZ77rjh50qNxfXvSU+/hYgLrhDaGTaMxrl3XZeKH0k5AzbPmV+7Y6vu+O+tXcwEFW1y8KEavl+uJCczHFTyn96fFAKqNTm3rf6DALd4DyyjbFNO9CvJAUKtp5bzyRzi47nJubab8FzgP0xygMCegP+svrj9qMPYHECZd2frSTqzuQGAwljwyr3F9e9JQ77831T51wavdtdVBtK9T4jaey7x3wGWpkWX8WcoRhIwt2OikaLX3WnrmYhm1eu6xr9uahkWjKp+Ymb49EU9wtKK7ZE0gUKqZ5F6L+6FgYGr/zduRaxKUfCzEnSJsJQH/QX15/NGhL0zu2jP6s7bvuaDyVG83kTi77k5bCukxW/747OnVV36xNg1suhINa2jyf5oQr169/0pW3pLl2Fl1SSH/LDvsveOP/OuSnfq5ZmwaPjWjm4Reb7ZuLabnyjq5IOqsfHVHVVG4Cinkdm2KadyHqr/3j7gveuK7rfcEkdf/N2zHSE8jNPTzruTz8Yr8FzsxHR/1aKotfRjMQTkB/0J9Rf7quq6ns4tGJLNSlpet66frb3RsT58Toup7J5tqehsbvujOhXKNUeJXeOUWaEL56OclbMIx10sc8+YZrv03CbBbLlRftccUSmUw2z8ewmk0xzbsQ9Xftsq5X93oiV09qoSlEPPxSdAuUGVqNuy8MOZT5T+gP+svrj2I3Xdd5Qi8NAYuT5oqectPXDRwYUqj7L5HOBR00CmHQ368DstsvRsLx/PxBllfRE7Ko/qau6vv6UiR0ZeM0+mEYuLDfi7mYlutzjGYe9KD1bYpp3oVBf9cu63rxB3eXP0GDSPF0bgxHLEUpW7h2WReiP8tjh199tIj74olkw+74Uqgmybl8+rqBgVCy0ExjOZmMo1Ij+msRA0J/jT/ruDPukEOtbHZh4/OMPYoEoL8W1N//txz3dLuqRS/W+Jqkxda3K3b5tyU12TI20jAC13/SA/21oP7+8EVfw+qQnDsi/SXS2bOe3K/N5IQw3kt90+o+6K919KfFE4qqRWPKXzbizu/1jf7G+5mP/F+7rOuv/x4k/WnxhBZPxBNlqGDE6Xa6PC631+X2uj0+j9fv9QW8voDPH/QHQoFgOBAMB0ORYCgSCkfpHY7E+B2JKqW8f5NKpdLCKzX6SiaTiUQiPvrSNE1VVWX0FYvFotFoWcVopZVZfy/sQjwC/YFAEQIv7Bpm/ZXrAeivjGtFuXArW5/0F1PUzkvGu9Xjag8CIGAg0HnJH1NURdXKDf3iiST014z6U7V4TFH94Sge9Wuo6/gTBEQC13/cEwjHYoqqanHor+lcVkEASHNfYooajSlv7cX9LIu0fcSTAWnZCLy11xmNKdBfK4iPXClO/Rvxhyd/2itbnUZ5QaAUApM/7XX6IxUP+6Lx26TS5O6/SDTWedH7W+G2w6VUC6wDAi1P4LfLunZf9EWiuZZvZR1/0F/z6k/V4jT9JRyJ/usAmsBoAoPAVQQ+PuwKR6LVhH7QX/PqTwwAw5Hoczsv33Sv5a/qKCAIFCWwqNMRjkTF0K+CcQ/or0n1Z7j3QSQaC4Ujy39BDHjV9b/oSYIVWpLAp0dcoXAkEo1VGfpBf82rPzYgDQGTAbed8f7us56WrNMoFAgUJfCHL3q3nfGy+yoe8OX5GJj317wGpB/x0BzAaEwhAwZD4bXHXDPW4ufAiAQlIjBjbd+ao65gKGx2X2XNXjIg9Ne8+uMAUDRgOBINhSPBULjPHVx7zPXiLsfdm/r/eyXuDSORC4pGSS2wwn+v7L5rU9+Luxxrj7n63EESH/X38US/yqY6c+iHxm9Tu4+nAfJMQG4IkwTJg8FQmN6BYAhvEGgBAlylyXqhcEQUn6JqJL5q4j5Ef+PAfZYGZAlGorFwJMoqDIUjeINAyxCguh2JxmiUI6aoNMWvVu5D9Df+DEjzARVVIwlGYwp1C1Itwb8g0DIEqG5TU1dRNQr6aug+6G/c6M8QBqpanD1IKqRrI/4FgZYhQMpj69VWfGj8jjP30QGj8RAaFKY+QVIh/gWBliTAVb36nj4+gziBkd/xKkE6hGLlQBoEWo8Aq6oeCehvfOuvHnUC2wQBSQhAfzV8HAAAIABJREFUf9AfCICApASgP0kPvCSXdxQTBGwIQH/QHwiAgKQEoD9JD7zNJREfgYAkBKA/6A8EQEBSAtCfpAdekss7igkCNgSgP+gPBEBAUgLQn6QH3uaSiI9AQBIC0B/0BwIgICkB6E/SAy/J5R3FBAEbAtAf9AcCICApgdbUX+v98BslAoFyCdhEPfiICLSa/rR4QscLBCQmkNX1bDabSqcTyRQZE7IrRKCl9EcHW+Kaj6KDgJFAKpWGBFtff3SMVS1uPP74GwSkJ4BI0NKArRP98ePQpK/qAAACFgSSKbSFjSM8raa/mKJaHHksAgEQ0HU0hA0xYEvpjx76g3oOAiBQiABiQNGALaI/bvlGY0qhA4/lIAACuq7H4wkMhpAEoT+cESAgHQF6aKQYB8mZhv6kq/ooMAgkUykYsHUec47GL05pECiLgKJqaAIj+iurzmBlEGgRAhQx1OPZ4eOoHQ39tUhtRjFAoCwCqVSaAsBxZKuaZxX6K6vOYGUQaBECmUxGUTXJewChv5JqczSmrNuy48yFrpLWxkog0PQEslk9pqjQn9Plcbm9LrfX7fF5vH6vL+D1BXz+oD8QCgTDgWA4GIoEQ5FQOErvcCTG70hUKeX9m1QqlRZeqdFXMplMJBLx0ZemaaqqKqOvWCwWjUbLCnRrO/SRyWRC4YjHF+A63NU78MD8V776djcvQQIExjsB6A/Rn0Ud9vgC67fsWP75BrfXTx8fPn7m0ecWf7trH68djyeC4Ugmk+ElSIDA+CIQU1TJu/+gP4saq6jaV9/u/vtTL6/76lv6Gcn3P+x/8sW39x44Qmv7/MGvd+799ze7AqGwxfexCATGA4FoTIH+0Pi1qKpef3D55xseX/jmz4eOp1Lpbd//8NKSZSfOXNB1fcTl+eiLTX9/6uWlK9eOuLwWXx7TRb5A6L55L9w468G+weE6ZaQBu6hTzrFZkQDrT9rpL4j+xPpwVXpoxLX4/U/WbP4mEAzFFDUYimha3DHienvpp48+98aXm7/mpvFVX6vPH4FQ+Lb7nnjyxbeL3tDw8PEzbe0dbe0dm7fvLDcvS5Z9dtt9TxQNaavZRblZwvr1I0D6k3n0A/qzq10DjhGH051IJvXRG4jruj7gGFm1YduP+w9HojG7b5b52ZJln5GzzP8uWfaZruul649Csxn3PjEwNFJmLvQS9VfNLsrNEtavHwHoD/q7qnZ9u2vfilUbv9i4feuOPft+OaaoWjabFdfQ4glfIJhMpsSF1adrqL9qMlOi/qrZBb7bPASgP+jvqtq4euP2Z159b8Er7y545d0X314WDEUM+tN1PRiK7N53cP+hE2fOdw04RlRNu2oT1f2havFfW7jmRm7p0V81+4f+qqE37r4L/UF/V1XaaEwZcIycOd+1/9DxH/YfNj83LpvNDgyNPPf6P0mRz7z63nd7fr5qE9X9Ya+/hYs/cIy4X3hr6TWTp0+cOnPFFxvFHG7evpPbzlOmz+npHxLzQgJ9b8XqoWHnvEVvWW7BoL+u3oHf3z7397fPvdjdR5uqfhfZbPb0+UtzHl80YdI0zm1bewe18cUMI11vAtAf9FewjiVTKY8vQB1/vFI2mw2Foz/uP7x1x54vNm7/6ItNB46c5E+rT9jr7465T98460HRGms2f8M7LcVNN81+aMr0OYW2IOpvaMR1x9ynf3/73K7egRru4vDxMxOnzhQzQGnojyE3LAH9QX/WlS0Sjf3w8+HP128dcXmyoy9d17V4om9weHDYaf2dWiy1119be8eNsx48dupcOp05e7F7yvQ58xa+qarG1vfm7TsLRX9t7R0z7n3i9PlLmYzFFlh/Hl9g9oPP3Djrwe6+QctiVbaLX/tMFy7+YNJNdx04cjKTyWjxxBcbt1875ZYdu3+y3AsW1pUA9Af9WVQwp9u7euP2R599/R8ffu50eyPRmNcfTCSSPn9w1fqti9//ZGjYZfG1Wiyy158Yi9GalvNUbNxkvwXS38XuvjmPL7Jxn67rle0iFI7cMfdpsWeTmuQI/WpRd8reBvQH/RkrzaDD+e6KL/7+1Msff7l5xOXRdf2bzr2L3lx67NS5ZDL108Fjjz2/+MPPN3j9QeM3a/G3vf5EcVSmP/stLFn22e9m3H/3I89NnnYP9/dZFstGfza7iCcS8195Z8r0OUdOnuXob8Kkaas2bLPcCxbWlQD0B/0ZK5g/EPrq293f7trnuyK4X0/OhW98cPLsRV3Xc7d++WrH3Kde2vrdntqO+VI+xlx/t933xLbvf5g4deZzb7yvmJrVDKsy/em6vv/Q8Wun3CL2/d0468FBRx37EzjPSBgIQH/Qn6FK6JlMJhzJ3W+GP/jnitUvL1nGvWBur3/55xs2bd/pD4R4nVolmkF//mBoy47d10ye/v7HX6bSacuiVaa/RCL5wltL//iXB2Y9MH/CpGkTp85cuPiDYWcuxMar8QSgP+iveK17/d2PFr//idOd/3mvxxcIR6LpOtzupRn0FwiFs9ns5q87r51yy9KVay0NWJn++gaHfzfj/i82bg+EwvZTx0+cufB/b7v/lr8+zlcdw3GqfgXDBiX8E/qD/opX+293//TTwaPiDLvi36l0jYr1R18UG5WU5rER88Rp+gqvoOtX/egtlU6///GXEyZN2/x1J839rn4Xbq//1jmPGzJ58+yHt+zYbZAs/wym0C+Xq1+h0kPUOt+D/qC/5qrNzaM/XdcVVZv/yjvXTJ6+ZcfubDZbvf5yQeXo3Ow/3vH3G269V/SgQXPVB3dFt9BcB34scgP9QX9jUe9k3eeJMxcmTp25bssOvk1sNps9fvp8+5/unP/KO/FEQlYwY1Nu6A/6G5uaJ+deKfT7fP3W8JX75YSjsS82bp8wadryzzfIyWQMSw39QX9jWP2k23WhX7zd8benMP7b+NoA/UF/ja918u4xm82evdg9b+Gb13fMpo6/m2c//MmXm4veYFVeZPUsOfQH/dWzfmHbINCsBDKZLPTXOvrT4glF1aIxhbvVm7XiIV8gMPYEMpkM6U+LJ/Csj/H9nN94Isn6S6ZqfCvmsa+qyAEI1JpAMpVi/ZX1TO1WWrlFoj/W3+iTm403gKp1zcH2QGDcE1A1Dc/5bSn9qVo8pqi1fQjRuK/mKAAIWBGIRGOjsUJc2pZvPJFsQf1FY0pCuGGB1aHHMhCQmkAikYzGFOiv1fRHox/hSFTq2o3Cg4AtgXAkimHflor+xO6/0cBesa0A+BAEJCUQUxRq+SqqJnPLtwX1p2pxDgC1eFzSCo5ig0ABAlo8jtCPB69bp/FL0R9Nf6EBkHAkanhOW4EqgcUgIAWBRDIZjkTF0A/Rn9Plcbm9437eHxldiyc4AIxEY6FwpB63pJfiXEEhW4uAqmmhcCQSjaHXrzWjP9GAMUWNxnJ9HKFwJKaodMPO1qrPKA0IlEQgm83GFJXdhwHfFtcfxYCiAYOhsKKo6QJPriipEmElEBhvBNLptKKowVDY7D7Jm71kwJbq+2Opk/5oFjTFgOFINBSOUD1QFDWeSKRSKYSE4+10Rn6LEMhms6lUKp5IKKPhHlV46u/jiX6qJvVUZ7ZEq438igWjH3JTPyCHgSRB8mAwFKZ3IBjCGwRagABXabJeKBwRxaeoGokPcR+LojWjPyqewYAswUg0Fo5EWYWhcARvEGgZAlS3I9EYjXLEFJV+2wv3sfU40cr646kwvz6jh8JARc39zDsaU+hNVQT/gkArEeDqTdajoA/uY+WJiRbXHxWVw0DRg6RCujbiXxBoGQKKqtGbajvEJ/rOkJZCf6IEDSrkKoIECLQSAarn9K/hnMefTEAi/XGZuVEsVhGkQaCVCIi1HelCBCTVXyEcWA4CICAPAegvKc/BRklBAAREAtAf9AcCICApAehP0gMvXgORBgE5CUB/0B8IgICkBKA/SQ+8nFd7lBoERALQH/QHAiAgKQHoT9IDL14DkQYBOQlAf9AfCICApASgP0kPvJxXe5QaBEQC0B/0BwIgICkB6E/SAy9eA5EGATkJQH/QHwiAgKQEoD9JD7ycV3uUGgREAtAf9AcCICApAehP0gMvXgORBgE5CUB/0B8IgICkBKA/SQ+8nFd7lBoERALQH/QHAiAgKQHoT9IDL14DkQYBOQlAf9AfCICApASgP0kPvJxXe5QaBEQC0B/0BwIgICkB6E/SAy9eA5EGATkJQH/QHwiAgKQEoD9JD7ycV3uUGgREAtAf9AcCICApAehP0gMvXgORBgE5CUB/0B8IgICkBKA/SQ+8nFd7lBoERALQH/QHAiAgKQHoT9IDL14DkQYBOQlAf9AfCICApASgP0kPvJxXe5QaBEQC0B/0BwIgICkB6E/SAy9eA5EGATkJQH/QHwiAgKQEoD9JD7ycV3uUGgREAtAf9AcCICApAehP0gMvXgORBgE5CUB/0B8IgICkBKA/SQ+8nFd7lBoERALQH/QHAiAgKQHoT9IDL14DkQYBOQlAf9AfCICApASgP0kPvJxXe5QaBEQC0B/0BwIgICkB6E/SAy9eA5EGATkJQH/QHwiAgKQEoD9JD7ycV3uUGgREAtAf9AcCICApAehP0gMvXgORBgE5CUB/0B8IgICkBKA/SQ+8nFd7lBoERALQH/QHAiAgKQHoT9IDL14DkQYBOQlAf9AfCICApASgP0kPvJxXe5QaBEQC0B/0BwIgICkB6E/SAy9eA5EGATkJQH/QHwiAgKQEoD9JD7ycV3uUGgREAtAf9AcCICApAehP0gMvXgORBgE5CUB/0B8IgICkBKA/SQ+8nFd7lBoERALQH/QHAiAgKQHoT9IDL14DkQYBOQlAf9AfCICApASgP0kPvJxXe5QaBEQC0B/0BwIgICkB6E/SAy9eA5EGATkJQH/QHwiAgKQEoD9JD7ycV3uUGgREAtAf9AcCICApAehP0gMvXgORBgE5CUB/0B8IgICkBKA/SQ+8nFd7lBoERALQH/QHAiAgKQHoT9IDL14DkQYBOQlAf9AfCICApASgP0kPvJxXe5QaBEQC0B/0BwIgICkB6E/SAy9eA5EGATkJQH/QHwiAgKQEoD9JD7ycV3uUGgREAtAf9AcCICApAehP0gMvXgORBgE5CTSv/gJ4gQAIgEA9CTSv/nS8QAAEQKCeBKC/etLFtkEABJqYAPTXxAcHWQMBEKgnAeivnnSxbRAAgSYmAP018cFB1kAABOpJAPqrJ11sGwRAoIkJQH9NfHCQNRAAgXoSgP7qSRfbBgEQaGIC0F8THxxkDQRAoJ4EoL960sW2QQAEmpgA9NfEBwdZAwEQqCcB6K+edLFtEACBJiYA/TXxwUHWQAAE6kkA+qsnXWwbBECgiQlAf018cJA1EACBehKA/upJF9sGARBoYgLQXxMfHGQNBECgngSgv3rSxbZBAASamAD018QHB1kDARCoJ4GW1Z+iJZyeoMMZcDj9eIPAGBEIOD1BRUuUewoPhfX3f9Gf26XP34m3BYFFu/UVR3RPrFyuxvVbU3/BUMzh9PuC0VBUDUfjeIPAmBAIRVVfMOpw+oMRxXjmFf77rAfis1Ce+Urw/C69x1+YYwmftKD+VC3pcAaiSkLRkniDwJgTiCoJh9OvxUuKAYfC+vMI+kqOeRfu1n1lXFmMRmxB/bm9YX9IGfNKjwyAABPwhxS3N2w8+az+fv9gSYGPORSSdslnx604lrasBfU37PKHoirXPCRAYMwJhKLqsKukdtozndBfeQRe2F2a6qzWakH9OZz+SFQb8xqPDIAAE4hENYezJP1JG8RVU3Ars5W0DPpD/yAI1J0A9FeN3Yp+tyTVWa0E/dW96nMIgIS0BKC/ogqrZgUrs5W0DPqD/kCg7gSgv2rsVvS7JanOaiXor+5VX9qQBwVnAtBfUYVVs4KV2UpaBv1BfyBQdwLQXzV2K/rdklRntRL0V/eqzyEAEtISGFv9LWj1yTRWZitpGfQH/YFA3QmMrf6W/Kx/e0l/86fy5tMVjblqssJhh57K6Lt6qspbSaqzWgn6q3vVlzbkQcGZQIP19+qP+kdH8j+eW3pIP+3S39hXlWJqIjvzRqC/eDwe1zRNVVVl9BWLxaLRqJWsS1qGac981iHRJAQarL/X9uqnXPqnx3X6DcmHh/VLfn3h7sv6e2Of/uHhyx+ZfSQu2dWTC83oVX2MJm6Z09DfmOlv+ze71m7Yan5/37m3SU4bZKM1CDRYf4t2619f0s969A8O5TT3yVH9gjfnvgWd+gcH9UOOXFuYBVQocdiR8163//KaHx3RXTF93eniXyy0Qcvl0N+Y6Y9PrZOnL2zYtP1SzwAvQQIEakigwfpbsFN/+Ue9s0ffP5jT3+v79H8dyrWFPz2ec+KPffo7+4tY7KMjejiee390pOCa5EeKDV2x/Gq7evR4Kted57pyPz7DdsSgUtfR9zfWjV+z/k6evrB2w9Z9+4+I58D3nXs3b/l2xOVTtOT3nXu/79x7qWdgw6btFD+ePH1BXHnf/iMcVxq2I65mTn/fuZe/WGIcevL0hc1bvqVSbN7ybd/gCAW24tepRLRlcbmiJUdcvs1bvqWPzJcBsYxcfMq2PxgRI2hDMcUvmjdukx8zk/G+pMH6ywV6O3XqAaSY65lO/cU9+ucn9M3n9Nf25lVlGZHN35mzXjies1ihcK/bn9fWutO5NdmAbDeKHA2fkjQPOy7nAdFfM0Z/dGJv/2ZX7k6Vo/cNJEewOEhSLIt9+49wmuTIpiALGNRQ6Hzet/8Ia5S+yHss9BVFS5L4tn+z61LP4OYt33617ft9+4/s23+E8yBmz1AQ85/fd+7lUhsyf6lnYNcP+zknu37YzyGz4YIhfpFgcmYULWmTH954KyUao7/X9uobzuh7+vSvL+pfntLf/vkqzZEBF13pASwkPl7OwR17jT8io3G7eP5OXbQY6U/8lit2OZAkq4ofiV/k7ZebuNw9Wf5/GPnNjfyaoz/DKWpe5/vOvaLvSCLkODrz2WK0KfHkL/3EFuNNm2+xeigbZG1WjJg32ohYXnNuxR2Ja4rLzWnDBUOUL9Fbu2ErMbHPj3nLLbCkMfpbuDsXtX17KWfAPX36x0ev0t/8nbnB3zWn9K/O61+czDWHX/rBuILBO2QrsooYCZqdRcqjmE5M0wZZf+aPzJsy5KGUP8v33uVvQH8F9SfGLxTQicHg9517xT/p5KdIzXDmm9VZ+vls3pTld1lSZBbOBgmaP+Xvisqjr7CbeB1K0Jqi6A0riH+KTAziFvMgpsW9iBcMcbMtkG6M/hbs1BftzrVt3/wp935hT64JLOqDwsN9/bnRj1+GckMi4qc2aY4ESXDdBe7dBf1Foor5/ZtUKpUWXqnRVzKZTCQSuaZv8/X90SnH5zM5Qjw/+SNaU9Sf2HnHvXglGoRlxF8sJWxkoVjqT+yF5M2KvqPMm7vnqGhilgyZITmK2+RLgnjxMAeG4lc4LeJtAeWJRWiM/kR/vfxj7mFALwrx3TOd+nO7ch2Cb/+sv3tA/8f+nCvFr9inqcFLgxj2IZs5xEP0Ny71x1qhsQUa9KBqbaO/EkM28fSgNImGDVJ6q5nzaak//tS8R8MS+1iPmthsQFpZ7JoUmdDKrDaxUKXnx5C98ftng/X35k/6jq7cIO8/9uvPdubmu8zfqa86kZsN89peY0hobz3+VNSfWXC82vyduTHfVCbXG8gLWX+GTkNqXFc/oxCN3zyBCqY9FzohKWzZt/8IjfOKp594qitaklxA8UuhrYlft0yTMsQgqEST8h4t9SfmzXK/4kL7lXlH5r5RsX9AjIXFjVPafhe0DgekIg3eFIESlcofUTbMo/biCo1PN1J/r+3NtW1POHP9gM925h6YuX8wN+z7xj79pEv/vjsXEhoaxewpTqw7nRvJFWe9UIOXpeaK5Ud++VuUsNHf/J25zXI3IqVploxhI2X9mT/5y0yh769g3x+dJNRyNDddRf0ZGnf0J0dJpZ9s5AWOp6gRXcp22EqW+iMjmItAGTt5+oI4Ks0DJlx8UUBijx45iL7LtmIliXzMBAwDR+YVCMXaDVuZhriOYdhd/IgIrN2wlXMifjpW6Ybpb8Ho+Maevvyw74ojek8gFwAu6NQ/PJKb/7z+dNk/+dD1vLNYTIYeQJ7cZ68/cTil258LFaG/Mf7RG+vDfHrQeWg+lwwdfOaztOgK5n3xCCm1GQ2TVyzXp4Wc/0L6o2CNm6IGO4idg2bbigUxcBC/ePL0BVF5rCFxp6JJxe8a8qNoSfap+BUmgOiPHWRILNipP7cr36n33C798+P6Gfflduhzu3JN4K/O55ulhq+P0z/LjPnyqyP6K3LLA9KfGB/RSSie6nxaIkEEyH0GVxaN+FqYXsOiP4O/Fu3WV5/UDwrdcM925n4QYlhtvP+Z91mZKeiviP4K9b5Bfza2srxmGJrVNl9vvY/GSn/Pdl6eBzPeBWef/zKll18d+rPTHzWyLNtf0J+NpMzRX6E+BJuNtNJHY6U/skbRgQ57uTT/p3mflZmC/qz1xz1Tlu4TRzlb6SytYVnMfX/mDoQa7q7JNzW2+mt+f1WZwzKll18d+rPWX5OfTsje+CIA/VUpOPuv531WZgr6g/5AoO4EoD97f1X5aZnSy68+9vqj373hbs/jK5xBbssiAP1VKTj7r+d9VmbKUn8+f9DnD/oDoUAwHAiGg6FIMBQJhaP0Dkdi/Db/vNdyid1vfqG/sk4krDweCUB/9v6q8tMypZdfHfqre8NnPJ6uyHNtCUB/VQrO/ut5n5WZai790dOOqnzU0bDLH4qqta2+2BoIVEMgFFWHXQXuEnX1Gftsqz+T115kZX/amfuJS8Uv1p/b43N7fB6v3+sLjFnjtyb6c3vD/pBSTWXFd0GgtgT8IcXtDZdyln5wUJ8PA159m0J7J646UQpX63VaUH9aPDHsDETVRG1rMLYGApURiCqJYZdf1ZLWp+DVS0ciuR/t2p/w+JQJPL9bD6hXEyznrxbUn67rgWDM4fL7gtFQVAtH43iDwJgQCEVUXzDqcPkD4SsPPSvh5LzgHb0jSyfCwMKXgdEA+ZlO3REpAWjhVcZYf3zDZ230VZPGLxU2mUz5AtERd9Dh9OMNAmNCYMQd9AWiyWSq8Alo/clIJHenUo5xkDAQWLRbX35Y9yrW9EpfKurP4/Vz358/EGrExJdC+ovFyrhall5arAkCIAACTMDp8jhdHpfbS+Me9dKf8JyPXJKf9QH98ZFAAgRAoMEEytUfT3imhOUkZ/PC3xj0RwZMjr4KPe2owSCwOxAAAdkIUOjH0Z/XF6CJL9z4pZ988K8+oD/ZagjKCwItS6DR+stkMhQJcvs3MfriZ13y6EfLIkfBQAAEmoMAd/zVb85zJKrkG7+l6y+bzTYHIuQCBECgBQmkM5mx11+h0Y9MJtOCyFEkEACB5iCQTKZYf/Wb9VIk+mP9cftXGX2lUmXPlmoOqsgFCIDAOCCgqprL7bUZ96jJ3a7K1h91/8Xj8XGAEFkEARAYnwSCoTC5jzv+DMO+tdQf9fpx3584+08c/eD7nsZiMXT/jc96hVyDQLMTyGazli1f841Oq5z1cjn6Y/2xAXnwl9u/4k/fFEVJJkv6lXizk0b+QAAEmoxATFHFlm+5v/cIR2Lm6c2FluRGfkvRH3f/UftXURQEgE1WbZAdEBj3BDKZrNtzudev3i3fUqM/vus9t38VRdE0bdzDRgFAAASaiUAgELIM/ajlW8ObHVA8aB39id1/3P41BICxWAxN4GaqOcgLCIxvApFIjHv9Kgv9ymr55qO/jPAy/PaD9GcZAMZiMUyCGd81DrkHgeYgoKoauY/nu3CvX+mhX830JwaAPP5rCAAVRYnFYh6PtzkAIhcgAALjkkA4HBHdZwj9bMZ8Q+GoeLODQkMchZZfbvwKwV8uWUoAyD8BvtTVM+J0pdPpcQkemQYBEBg7Aul0OhAMibe3IveVGPrVTH/ZbJYlKOovlUqZ739FYyBkwEtdPV3dvd09fW6PN4EJMWNXk7BnEBhHBFKpVCgcobs6G7r8yH3mqc72s53Lbfle1fdn1p/Y/hV7AKkJzKPAXd05/fX09vX09vX1DQwMOnw+fyQaiycS+HXwOKqOyCoI1JVAJpNNJJKxmBIMhZ0uz4jTLbrP0OUnPtbSMODLs52rDP2M+jMbkOY/iwGg4R6oqqp2dfd09+T019vb39c30Nc/2D8wNDDoGBwapn+HHCPm9+DQMN4gAAKtR8BwsjuGnfweHnENj7hIfGb3WXb5sftqHvoV158hADRMgqEAkFq+Pb39vVfc1z8wxAd1yDHiGHbSv0TBQAd/ggAItB4BVp5j2EnWE93HnX38216xy09s9rL+DLd3NoR+FbR8c/rj/r7slRcvoR5AgwENo8CapnX39HX39PX2DfT2DfQPDFHox4eTKVDh+U9zgr+CBAiAwHghYD6ReYnZehzxmcd5+cZWFTR7K3NfEf0ZhoAtm8DxeLy7p08M/bjBa6Aw4nSLODjNqyEBAiAwfgnwGS0muJ1rFh/HfaL4LN1nbvbWJPS7rD/q8rsS/OX+LxQAWhqwp7e/p7e/r3+wr3+Q3Dc4NEwRL/0rIhDTIiakQQAEWoCAeIJTmtq5YmuXxWdo8Nq7r9CIR8WhX3H9cQDITWCDAROJhBj6UZffkGOEDyRZX3Q/4zCTwhIQAIFxTYDPbjFBP+PlH/O6PT4WnzjHxecP0gxn7u/juE90X61Cv7z+xNCP0hwA2hiQRkK4109s9vL4DlMQEfBCJEAABFqPgHiyG6xnFp8h6GuY++z0JzaB7Q1IA74Dg46BQQeP8Irhnlh+MxcsAQEQaEkCFOXxv9THZ9nTx0Ffue6rpuV7lf50Xa8sBhQn+lHH7fCIiy9o3M73eP0MolCiJSsBCgUCrUqg0InMy0XlcTuXn1kutnb5+eUaApWYAAAAiUlEQVSBYLjENm+V7jPqz2xAsQlsGQOmUinSH/X68ViHOLBN4jOA4D+ZFBIgAALjlwCf0eYE+Y7/JesZ3EfWs3FfDbv8IlGF3rl5fxT00e9d7ANA0YA8GMK/8aARD+q45aCPm/pceEqYGWEJCIBACxAwnOn8p6X1xNauGPQZxjrM7qs+9ItElf8Hc7xQjKHDoeYAAAAASUVORK5CYII=;imageBorder=default;" vertex="1" parent="1">
          <mxGeometry x="430" y="100" width="274.83" height="380" as="geometry" />
        </mxCell>
        <mxCell id="09hrnqVz9W6icr5VIPB7-3" value="" style="shape=image;verticalLabelPosition=bottom;labelBackgroundColor=default;verticalAlign=top;aspect=fixed;imageAspect=0;image=data:image/png,iVBORw0KGgoAAAANSUhEUgAAAZkAAAJZCAIAAAD0x9+wAAAgAElEQVR4Aey9+3sURdr/v39QfsjFh/X7fLPfz3BlH/LgE1YdzAYjYTGIQcxyUkAOoqCuyEkEBDacRATkaHaBwIJBEVAQEg4hBAjknEwmk2SSOZ8yM/0l3HhbVndX9xwz6blzzQU13dV1eHfVa+6qrq77D5GE/zq7LF3dPZae3h6rrdfWb+sb6Ou3D9iH7IMO+6BjcMg55HANOVwOp5s+pAApQAqkSIE/RBP+6+ru6bZYe6w2a28fgKx/YBAoBiCDojtdHvqQAqQAKZAiBYhlRFhSgBQwggLEMiPcxRT90FGypMAYUoBYRiwjBUgBIyjwBynhv26L1dLTa+3t67X19/Xb+wcGB+xD7JQ/oN3l9tKHFCAFSIEUKUAsI8KSAqSAERQglhnhLqboh46SJQXGkALEMmIZKUAKxKOAnscC6UQhsSyeu5jOO0R5kQKZo4AefqnFSXUtiGXEMlKAFNBQQA1P4hX8alelCGrEMo27mCLdKVlSIPMVUISRmF9qZxWTSq4CxDJiGSlACvAKyNHDQQpestbzL3ehPOVkEY1Yxt/FZClL6ZACY1QBFjcsiVhyDQ45dX7Yq9jU2FySIhSxjFhGCpACzxRg+eJ0eRA9yCPkF+yCo+dfvAQTwWS57BIkGrGM2jEpQAqMKMCSBXEDAEIeIbwG7EP46R8Y5D54Cvf+wo1z2DeCIBc230RwRiyjdkwKkAK/gUxMMYAUkOv03d61P3QvPtP5+rftLx1q/b97mv/vnuaXDrW+/m374jOda3/oPt3QCzHhKtzQEMgIlMTskGhx44xYRu2YFMhqBRAi8kElQMc+6ECEdVrtJ25b3z7d8X/3NI+vfKz5Me1tfqe648Rta6f12ZvaYKmJceZ0eeIgGrEsq9txHC2GLjGSAnKQsYNKsKQG7EP9A4OdVvumS906ESZnnGlv8+eXujt6B2DvCdZGYw00tjyx6kwsI5aRAtmrALIDxnoIMpZiPX32nVctf/6yRU6oWI/8+cuW3Ve7e/qe2WhINEWcEcuyt13Geu8pfpYroAdktS19Rd+0xcoscfy/Hm6709bHGWiJ44zsMmIfKZCNCghABoPK/oHBozetebt1zYuJ4SU/a9rb/M1NKz4ZkDs5wuLp/70hlmVjO9bfPiimIRVAUsiHlr/Ojg28e7ZTzqDkHll2rqOLmUHjlmtgIXXeAmIZsYwUyC4FkBFqIKtt6XvhYGtysaWW2l8Pt91o/m28mQjOiGXZ1Y51/sRRNAMrACxTA5mt3/7mv9rV0JOK42/9u93269763GATsavndhDLiGWkQBYpgHRAlg0OOWEFWf/AYF+/fe3F7lQAS5zm2ovd6CoEcQYlxAJr4oxYlkXtWLM1UATDK8AZZexq2L5++7e3e8TQSd3ZE7d6+vrt3EpaFmeat4ZYRiwjBbJFAbRxHE43u5QM5vubuvonJGMRWXy8m/BlS3tPPy7UYCfOsNhinBHLsqUdi9sBnc0GBeRGGTu6/Mf3ozC6ZMGnOdIU3yNiGbGMFMgKBdC6kRtlff32h519KVpKxtJKHM7b3fygs48daeICWiy8AGfEsqxox4IWQKeyRAGxUfb+uQ4xaNJz9uMLXeKHAIKbRSwjlpECxlcA7RrOKINnl3fb+57bqb3pRRpwlre7ub59xDTrHxjEB5pDDpfD6cYqqOGMWGb8dqx27+l49iggNsr2XbekgVM6s9h33RKfaUYsI5aRAsZXQI1lff12W99AmhfHiqH25r/abX0D3KyZnsUZxDLjt+PssT6opmoKIMtwKQasw+jrt7f19P3XrpgHmPf7Agfrh8RUGl/5+FD90GN7UDMaG+G/dj229I6wTG2YqVZHYhmxjBQwuAI40wSTZexCf1vfwPGbVhYlOsM7a+2SJB1tcAjiH73nkCSpstYuiKN46kyD1db3266NsNZMc8qMWGbwdqz2I0bHs0cBNMo4lsEAc9OPXYpA0Tx46O6QJEnH7ynj7PhTkB26q227yTPa9GNXHMNMYhmxjBQwuAKKLIMnmLa+gXfPxr8aA3AmB5bacTm2FI+8e7YDWMYOMzWnzIhlBm/H2WN9UE3VFECWySfLem39M08ktCuG3P4S22uK8OIOzjzR3mvrx6eZ8veZFGtKLCOWkQIGV4BlGTtZ1tdv77X1mw8lulUZ4GzfrcHxlY/33RoUDDw5Zql9NR9qZVmGC81wyoxYZvAmq3iD6SApoMYyW99Ary0575MDzuosPkmSjqnMoKmRS358wpctvbZ+wfS/4j0lu4wARwoYXIE0sOyPlY+7nCFJkrqcoT/q8Jsp5xd7hFhm8Bap+FtEB0kBTQXELEt8jDm+8vGJxpHlFzd7RuwytSebLK3EYRhjkl1GRCMFSIHfKaDIMliQ0WvrLzueqMu4pM+XlR1vozHm726h5u8VRSAFskEBRZb1DwzCfNnbpzPuOebbp0eeY5JdRjgjBUiB3ykgZtlHNfH7jlNbR6Z2XDy0xLMf1XQSy353C7PhJ5fqSApoKiBm2bG6OPf4FwNLvu4MUaUZOFbXQywjlpECpACvgBrLYH1ZS5ctjnfLd9eNvI/5jfAVpaMN8byP+V+7Hrd222h9GX8XNX+yKAIpYHgFkGX4PiZuktFr67f29s2uinnKzOIaPiJ8sRyMr2P3HA8HApqGGBthdlW7tbcPWcYulKW1sgQ4UiCrFZCzzD7owPcxrb19X16L8/VylkHJCn95rcva20fvY2Z1kzW8fUEVjE8BRZYN2IdwWca9tt5kkSjxdBrbe2GyLNbtGGndP+GPFDC4AsAyp8uDY0x0JQfLMqy9fYk8zUycX5jCRzWdMMAULMhwujyKTCeWGbwdK951OphtCqBphltlcMPM++29o+joF1g2YW/Lg45exQEm675E7d4Ry4hlpIDxFUCWcaYZDjN7rLbPLsa/0AwNq0QCWy939VhHnmDGsRGjy+0llhm/Hav9jtHx7FFAMMyElRnW3r7mzt6J+1oSgVEi1/73ly0d3SNGGT7BHLAPsQ8xsQpqd41YRiwjBbJCATTN2GEm+wSgx2o7dceS+C4XcRDtj5WPT93pVjPK9AwwyS7Likas9jtGx7NKAWQZN8yExRmw0KzHattyaRRGmlsudfZYbQKjTLyyDO4j2WWEM1IgKxTAMRqwbMjhwj1mcdbM2ttn6emd869Ed5qNyTRbeKrN0vNsdCmfKWONMrUnmMSyrGjBWWV6UGXFCohNM1if0WO1Pe6wvnQoTRNnrxxubeu2sqPL/oFBbqZMj1FGY0zCGSmQRQoITDP2NYARnHVa3/g20X3NNK2zt/7V+rhzBGTsOgwWZPqNMmJZFrVj8S82nc0SBeSmGY40cUezJ29o9lhtnZbeTy7E725OE2T/uNDR3dOL02Tc4lj076vTKCOWEctIgexSgDXNFB8C4JsAPVabpaf3m9quOHbREIPsT7ubj9Z2W34PMvQgx67DQJCJZ8rgd4jm/rOrKWeJ9UHVFCjA4oxbn4EjTXysaenpvdnc88G59rzdzWJC6Tmbt7v5g3PtN5t7NEEW0+hyNFmGalKAFCAF0qwAOABnn2ayw0z2mWaP1QbWWbfFerfF8tH5trxdj/7PP7U/cq79affjj79rb2j9jWL43qXcIgOQxWSUpXyMKR/0pvm2UXakACkgV0APzrjBZrfF2tXd87jDevh654KTrf/fbm2i/Z9/PvrTrkfz/936zfXOxx3WbotVbo4lC2TJZxm36xCxTN6M6AgpkAkKaOJMzUADqHV193x7s/Mf37W/farttWMtLxxo/tOuEXK9cKD5tWMtb59q+8d37d/WdXZ193R193RbfgMZN9nPrcCIzyJL5hiz28I/WIUJPGJZJrRaKgMpoKiAAGe48SxYZzh9BkNOS08v4AlQpfYvIgzMMaQYvj0OIBuwDwEoEgFZonZZ9OkfcJdbJCJmGYpIAVKAFBhFBWDuH94BgFkz3NoMnwPgYBPWanA4QzONJZqlpxc+MONm7e2D2TGkGA4tcTUZ2j2IXbC29P8b53NMoJgelnHEHcXbRlmTAqSAXAE1nIFpxhENDDSEGnIN4YUBoBiYOOw0P0cx1uhh7TL9CMOYMbOMpZgiy9g3qnCpCJZSLiUdIQVIgdFVgMMZa6DhYBOmz3DIiVADmwvJhfBibTEwx4AMyDKOYiwiwDRDSOkMxMAyOcVYlsGQGG1IMB3lLEPVKEAKkAKZo8DgkBM+9kEHfAbsQ2iagXUmxhnAi/3X1jcAn75+OyAMJ8jU+MCuw4iVaHpZpgayaDTa2WXp6n62bIRjGTcYzpw7RyUhBUgBTgHEGdplMHcmJxpCDVDVa+vnPkgxtMXQHGMpBjlCMcAyxckyNpA0u0xAscjTP45lgDMEsNySZCWjMClACmSOAmiUsaaZJstYcmEYbDE0xxAILMs4mMqNspiIpmGXqYEMKMayDBbC4SSfYtEz555RSUgBUkBNAZZoMNLkxps45ERgCQL9A4PwQYpB+pg7O1MmsM40X8kUsUwRZCzFINzR2d3ZZWFZhjt2A9HYorMyUZgUIAUyUwEWYXKQ6WQZIoxNDeqLIBOsc2CNMgwLxpuqLNMDsvDTP2QZrphlWYYGmuI9YytJYVKAFMgoBdCkYgN6TDA2PhJNTgAEGQ42uee5iDA2oIYzZZbpB1k4HO7o7O7o7GZXzOLOauyEn/6bJBeCjpACpMAoKiDnFxRGfpw9AnHkHR/n0NE6Q5bpHG8q4kyBZXKQceNKMMfg3+Hh4faOLmQZvjvKTgGyVRrF+0FZkwKkQIIKsKjSDHN5AdRY6wxZBoGYiCbHGc+yWEGGLGOfZuLu3UA0qDNbMU0VKAIpQApkuAJor8gDWHK217MGmhrREsGZBsvULLJh5q+tvbO9o6uzy9LZZem19bndnkAgGAwNB4Ih+pACpAApgAoEgyEgg8frG3I42SebrI2GRBNPn3Gm2e9YJjbKcGiJHAs9/Wtr72xr7+zu7vH5/VhoCpACpAApoKVAEJbjopmGRFPEGfsEAMIszn5jWXwgC4VCrW0dQ06nVqHJRiMFSAFSQEEBr9enaKDFijNVlrGjSzWLLPj0z+3xEshIAVKAFIhbAZ8vwD4ZiMk6Q9PsGcs4o0w/yGheLO77RxeSAqQAo0AwQZxpsExskYVogp+eb5ACpECSFNBvnXETZ2CajbBM0yjjJvthaBkMKQx9GcrSWVKAFCAFYlPA5fEKrDP2saYcZyKWcUYZPLUEkAUCAcIWKUAKkALJVcAfePZkE58GwNyZ/DmAAsvUjDJFkIVCoWAwGAgEhofDya0DpUYKkAKkQCAY8vkC7J4U+MKTJs7+IGaZ4uiSjDJqc6QAKZAiBfyBILchBfdYE0eanGn2O5bh40tFowxHlyGaKUvSZGeKWgMlSwqMaQVcbo8izsSmmYhlrFGGIHs6URbbfN6YlpUKTwqQAmlWwBcYGWayI009ptlvLEOjLBKJgF0GLOOm/P30ohIZZaQAKZBiBdjtwuANJ/YhAA4z2W21FVgmH2CyRpnf76fVGGn+maLsSIGsUiAYCqGjAFyiwbKM3eYMZ81UWaZmlJFdllWtiipLCoyKArBrkGDWDE0znmU4wJQbZbgOIxAI+P1+n883KnWjTEkBUiB7FABndIqzZvAEQC/LBEYZsSx72hPVlBQYLQXQsaZ+0+zZGJOzyziWjSwo+9UoI5aN1t2lfEmB7FEAt6TWb5rpZZn/6Z/P5/N6aYcfWpJCCpACqVUAXIazs2aCp5kwZfY7lskny/AJJrEse34SqaakwKgrIGcZvKGp+DTzN5bFNMAku2zUbzMVgBQwvALAspieAIzYZfpZ5n36Z3gdqYKkACkwugr02vrRNNM5ZaaLZewA0+PxjG4lKXdSgBQwvALW3j5kGb4DIJ4yE7GMnSzzPf3zer3EMsM3I6ogKTDqCiDLcJip+AIAu8qMWJbaxzGj3iaoAKTAWFQgIZaxDzHxfXJ2ZRlMliXFLrMPOf++9JMckznHZDa9+NqdxiZW7iGne/HqDXBW/u+xf59jI+sPX7h8DVP7+LNKjy8d3jwHHa41m3ePL5i64tOtfQOD+ksrj9lvd/zn+yvzlq/59sz38rOpOOLzB+49bNm659D8FWutfQOpyILSJAUUFQCW4TBTPmXG7f/jdHl+s8vSybKGB4/zp8xEshw4dpqtTypY5vH5P92yB3Oc+sY7nZZeNtMUha/fahg3sRjy/fnGnURyOfbvc5BO3DSPNXdr30DJ7MU5JnPJ7MXEsljVo/iJKJAElslX/HMT/0mxy6BbFr2+cMbfl+eYzItXbxhyuhVrjh04QRD02PqnzXkX8srNL8rNL0owQcXSyg8OOlzvr9uWFLsMpSCWyXWmIwZTwNrbh8NMPStmR+wyzQUZSWeZ2+NbufaLHJP5sx37vzz8rxyT+S/T57a0dyneDOzACaKn9k7jc5NKCorLL/504+WZC3NM5h37jijmmLEHUQpiWcbeIypYshSIlWUOpztmlrndygaU/jp0dFuBJhcuX7tWdzc3vyjHZL5w+ZpiCtiBE2TZviP/zjGZ/770E4u1b+nHmyBsH3Jymba2d2/dc2jKa/NhNFc8651jJ88POVxsNJ8/cLWufsWaLRPMZTkm87iJxfNXrL1aV+/z/+abCkdnOKotKC5/8LiVTQfCLrf3wpVf5i1fk1dYmmMy5xWWrlz7xb2HLf5AECKgApgUG2BNWo/P//ONOyvWbPmfV2ZDnL+U/v2zHfvbu62YLxZsx74jrR2WlWu/yCsszc0vmvXOqlsNDyEaxmEzYsMJ3gssDAVIATUFeqy2mOwyEcvUFmQkzrIfrlzPzS8CWwy59tmO/dh72ephT06k/ww6XPNWfIq2GHBNDpefb9wBPLH9Nsdk3rB9HxbJ4/Nv33cY+MtFY0sox4E8u0AwNOR0v/fpVi6dHJOZjYwKyKNxw/Ofb9xRjFP4asXDXzGKBZs2593CVyvY+JgpxmHPsmG2pqgMBUiBJCrAskznsgxVuyxFLPMHgp/t2I9mEY43p815t8fWL9cCe3Ii/efB49aC4nK0/mC8mWMys4M1p9sD9lpBcfntew/9gaDPH7BY+46dPP/P/UexYE0t7ZNK5uSYzO+8v87Wbw8EQ26Pr6mlff22fdfq7mI0DOBzDCQFngoEQ2iWrt+2z+EaWYQ85HTfvvfwH5t2In0wPkrBFhvPBoKh67fvbdi+r6ml3e0Z2WPO4fJ8deQkYBcH1CynCorLr/xy0+sLHDt5nosGyWJkmvtndaZwGhQYAyzrsw/NevsDNJECwRBYSc9NKqm90yjXCDtwIiyrrrnEzsqhMbhy7RfQ7QEisBCkoLj8l5t3FY3EQDCEWJy34lOLtU9eYO6ImGVoSf3j813cSJZLJxAMoRRqLJNfgqXFNSiIp7zC0svXbsIlGG3d1r1sxTEysUyuLR1JqQJjgGV3GptML77GPkZEK2nfkX/L1cEOHDfLPD7/x59VssMxNAZfnrmw49e5JH8g+M/9R3EkVTzrnR1fHW142MwtQ7P122e9swqijZtY/GSV3Inqmk5LL4sAthZiljW3dr74t7mQWl5h6bsffvaf76+AuccmAmGUQsAymO8rnvUONwrGaTVFPCHLMBrkqBhZXjA6QgokXYEUsgwXyiY4X3bg2Okck5mFiKW3f+ob77CsYXXBDhw3yzotvZA+y8rDVWdzTGYWqYFgyOX27v2mCubgEWrPl8y5+NMNFlWdlt53PljPwWLusjWtHRa25BAWsywQDDU2tZQtWInZQak+/OyfvX0jA1j2g1IosswfCJ48d5ErPCaLkFLEE7GM1ZnCmaAAsoxdLit+jUnvfFlSWIYdG/sYG1BcmYEdOG6W/XzjDscdNlOcSML75/b4Gh483rrn0MSiWRAzf8rMhgePMQIE+uxDl36uXfbx57gUdt6KTwd//8STG7oqPscMBEP+QLDH1v+f76/MWfwRFvXTLXs4kxClUGQZIrvw1YqrdfVwrRxSxDLuPtLXzFQg01nW0t71l+nPhlQsUDBcXXOJUxY7cNws27HvCKYvD8x6+4M++xCXKXwddLje+WA9XPJt9QXFOIFg6N7DFniwMKlkTlNLOxcN8a04989FDgRDF3+68dykkhyTufStpdxg8/K1m1AYRZYhttinrjdu3zO9+Bpr88bEsiGH653319G6f/ltoiOpViDJLFN8GTORMSa8ESmf5scpM5yiRqUSZBm++MlO88PDR1ivi2+DWvsGPli/7T/fX+mx9cOIsrW9+7W5K7ih6LW6u//YtPP6rQZ4UcHnD3x/+TqM7BQfxYpZ9u//XNyy62DDg8fwCMLj8x+uOgumGY4KUQpUSfGxAz5gfW3uivauHo/Pf+HyNYBs3CzDicXnJpWcuXCZXUCHpaIAKZAKBRRZhp7M2d1lcasM0RgzuSzDNyLlfR5fMIJT2P/lZhS3kEJTRHzxU27LICXhFBos8kxXfLoVB4/45JGL9mSkeaK6BqfV1KLBVWhjYhm41CaYy/AhI9ax3+6Yu2wNFxOR53J7P1i/jTv755dfB5xhNKwm+2gSbTqMhpleuHwNh72YOJYfo1GAFEiuAhnNMgSW3PjCR41gsiWRZQALNL5YueGJao7JjCYb9xBwgrls3opPL12tY+etcNE/u7Z+zebdj1rbEWSBYEgny54t+l/xKazRzc0vKp71zrYvD6u9997bZ9+88wBmzRpcgWBoYNCxdc8hSOp/Xpm9fd/h9q4eWDSHkIqVZf5A8PK1m7PeWYXTgk+W8hLL2IZE4VQokNEsS0WFKU1SgBQwpALEst8tYjDkPaZKkQLZoACxjFhGCpACRlCAWGaEu5gNv7pUR1JArACxjFhGCpACRlCAWGaEuyj+vaKzpEA2KEAsI5aRAqSAERQglhnhLmbDry7VkRQQK0AsI5aRAqSAERQglhnhLop/r+gsKZANChDLiGWkAClgBAWIZUa4i9nwq0t1JAXEChDLiGWkAClgBAWIZUa4i+LfKzpLCmSDAsQyYhkpQAoYQQFimRHuYjb86lIdSQGxAsQyYhkpQAoYQQFimRHuovj3is6SAtmgALGMWEYKkAJGUIBYZoS7mA2/ulRHUkCsALGMWEYKkAJGUCAeloXD4cjTv/DTv+Gnf6FQKBgMJtennBjDdJYUIAVIAVSAWGaEXyS8nRQgBbJWAWIZsYwUIAWMoECcLINhJo0xs/Y3kCpOCmSaAsQyI/wiZVqrovKQAulXgFhGLCMFSAEjKEAsM8JdTP9vIOVICmSaAvGzDCbLwuEwrcnItJtK5SEFslABYhnZZaQAKWAEBeJh2fDwMBplZJdl4Q8gVZkUyEAFiGVG+EXKwIZFRSIF0qwAsYxYRgqQAkZQgFhmhLuY5h9Ayo4UyEAFiGXEMlKAFDCCAsQyI9zFDPyRpCKRAmlWgFhGLCMFSAEjKEAsM8JdTPMPIGVHCmSgAmli2SD9kQKkACmQSgXSxLKYKO4PBH3+gNfnd3u8Urx/Lrf3zcUf5pjM+MnNLxpfMPXdjz7z+QOQ6qbK/XgWArn5Red++AnzFEfw+QPvfvQZl0KOyfzqm0sGHU6dWUiSFAyGPty4g00HU9CsxaDD+eqbS9hKQakwBSiGIAus7KlzF6EMW3cfwoN6AppliEajVWcu5OYXsXUcN7H45LkfotGoJElOt6f8nVU5JvOazbuGw+FQaHjV+u3PTSqZXrHM4XTpKYMkSV6ff/knm9ksckzmTZX74fJkKamzMEmJ5vZ4vT6/zx/wB4Ix9aAxHZldhx9T2LAskyTJYu1bvHrjuInF4yYWV7z78Y1bDRu372O7/YB96Is9hya9MjvHZM4rLF20akNjUzP0LmiL4gh6WCZOAVv8kMP1xZ5DE8xl0BVZEolrockRPVlAHJfbO3/Fp2z/x2vFAT1liEQiP9+4PXPBytz8onETixeuXMdKDfDKMZnPX/wZ8jp/8ecck5m9WeIywFmfz7//6MmXyxbADV21frvF2ocXJktJTDDVAWIZsSzVbcyA6UejUfuQ4701W3NM5rMXLhuwhmOwSsQyYtkYbLajWuSW9q6C4nIwCZd/stnr849qcSjzZwoQy4hl1BliU6Clvev5kjmlby09U3M5GAzFdjHFTpkCxDJiWcoaFyVMCqRRAWIZsSyNzY2yIgVSpgCxjFiWssZFCZMCaVSAWEYsS2Nzo6xIgZQpQCwjlqWscVHCpEAaFSCWEcvS2NwoK1IgZQoQy4hlyWlc8uXscaRbVV2Db9UUFJe3tHfFkUgmXFJVXTNuYnH5otUnz/3gowVoabklxDJi2UhDU3vBSP9rMcQytsOyUC6ZvaS1o5s9S+FUKEAs41i2YcMG7gj71bDvY2YIy7CJV1XXjGm7TJKkSCRi7RvYse8IGGj63/pGESgQkwLEMhZVG379Yw+yYcOyDBsNQE2/OYYXJsUuw9QMwDKoSzQaPXiiOje/6MovN7F2FEiFAsQyRNWvHHv2Px5nA8Qy1UYILFu1fnt3j+3DjTvGTSzOKyzdffCEPxBkr+myWHE3Dm77BzaaIssgi02V+3ELB8Us2HTYcDQa3fn1secmldQ3NrHHm5rb8qfM3Pn1MdjzIxqNNjY1L1y5btzE4tz8otK3lp69cHk4HIZL5MgG+rN7dbCJS5J0ra4+x2Suqq7hjtPX5CpALANUcSCDryzFIEwsU21+0MmnVyx7acY8nL/PMZkPV53Fax63dkyeVsGezSssvVZXjxEwIGBZ6VtLuUR27DuCrMEUFAP1jU3PTSpBbEGcw1Vn86fMbGpug6/X6urzCkvZQuaYzNv2fgNZxMoyh9O17OPP2f15FAtGBxNXgFgWDocVQaaIM2KZapODTp5jMr80Y96tu/fD4UhjU3NBcfniVRvgQR7YL5OnVdTVNw6Hw5FI5M69hyWzlyxYuVa+1YSAZTkmc8nsJYqz9JsAACAASURBVHfuPYxEIu1dlukVy4pef7u3b0C1ZMwJr8+/YOXa1xe+j7NXHq9v3vI176/9At4St/XbXylfVFBcfulqLVtIhJ1+lrE7U/511ttWWz9TEAomXwFimQBkcpwRy1SbIHTyydMqHrd2QCRu8AVb5XC7fR0/df75kjltnRYuXQHLplcss/XbMX5VdU1uftHN+vt4RBw4e+Fybn5R7e17EO3+o5b8KTNxMuvS1Vr5lmRXfrmZm18Eg0T9LDtw/LTiHofi4tHZuBXIcpZpgozDGbFMtaVpdvLa2/e4gRt8lU9gSZIkYBn3XAKSRTaplu/XE2B5bd55AGbHdn19nDXTFPPt6ul94W9zYf9ozWr+ms9IFQSTaBiNAslSIMtZJp8REx8hlqk2PM1OniEsGw6H12/78pXyRbZ+u8Ppen3h++yMnoBlsK+/ZjVRIGIZSpGeALFMDC/uLLFMtVlqdvL7j1pML7526WqtahLMCUWmyLOAR5OmF1+7/6iFuVojeLvhQV5h6ZVfbt5uePBy2YLObiteABvncwPhS1drc/OLYHN9eRla27v+OuttMsFQw9EKEMs4Wom/EstUG6q8k3PzZWAElcxecq2u/on3DdWEnp4QsGzhynUDgw5JkvyB4LfVNXmFpYpPDwTpwxOA99Zs/XTL7vXbvmSfgXZ2WydPq2AfUNy6e/+lGfNemjEPkAeVKiguv3X3fiQSaXjwqGT2Es6blCRJw+Hwjn1HppTNl08FCgpGpxJRgFgmhhd31rAsgy4qn8/iJqcETU2TZbDSSr7cAbNQKwOaPJAFV0j2aYOgeNwpeGLw3KQSbqJN05+bJEmHq86yZSgoLp9SNh8LCRlhUWlZGad86r4Syzhaib8Sy1Sboh6WwTLURas2sESLm2UTzGWrN+zosvw2QlQtnOwE2F/srD9GEftzA3tw98ETeYWl4yYWL169sctiPXD8NMcysstQz7QFiGVieHFnDcuytDW4RDKS4zLu1BqbmvOnzGRn/eNOii7MEAWIZRytxF+JZaPZbpPCskgkAlNg3Dq10awY5Z0MBYhlYnhxZ4llyWh08aaRIMvY+Ti1d6fiLRpdN/oKEMs4Wom/ZjrLYP3n6Der1JQgKSwbN7G44t2PGx48MrZWqbkDmZtqJBIhlonhxZ3NUJb5A0Gvz+/2eMPhSOY2NyoZKZAyBcLhMLDMHwj6A8FAMJQlH45Q+r9mIssCwRCyLBgiN9op6y6UcAYrEAyFkGVZQjGopn54cTEzmmUer0++4UQGNz8qGimQNAW8Pj+0/6wyygLBEEco/V8zl2U+f8Dj9bncHpoGSlr/oITGiALRaNTl9ni8Pp8/QCzTibNMZ5nb4w0Ef7eP6xhpjVRMUiB+BQLBoNvjJZbppBhEy2iWwfQ/mWbx9wm6cgwqAEZZdj7ENOAYE6f/YZjp8frGYJukIpMC8SiAbd7r82fbANOwLPP5A2CaOV1ufyAQT7uga0iBMaWA3x9wutxZa5QZlmWwMgN+ppwuN02cjaleSYWNWYFgMOh0uWHWH4wyssv0T5ll6HwZrDTxB4JomrncHofT5feTdRZzD6ELxoQCPr/f4XS53J5sNsqMaZexOPN4fW6PF3Dm8foiEXoZYEx0TyqkLgUikYjH60OQZefjS1wPrN8Q42JmtF0GTwDAOmNxNuRwer2+8K/eanW1F4pECmSeAuFw2OvzDTmccpBl4ejSmOv+EdKAsycbQsDSWbDOnC63w+mCFuD1+vyBQGh4mJbUZl5XpRLxCkSj0dDwsD8Q8D41xKANwxwZLijLwvWxbH/nrC39XzPdLoNKwuu1MHeGBhoQDaA25HDCZ3DIQR9SIDMVwFYKCHM4XSzFvD4/UCxrLTLj22WKOEOiudwep8uNXHM4XfQhBTJZAWiuLrcHpvk9Xh+8d0kgyxaWsXNnYKDBy7dujxc+0DjoX1IgwxXAFgsIA3OMQAYgM/JzTKwhBnC8CZNoXp8fPvD7Rv+SAhmuALZYaMBEMezaENA/QcbFHBvzZVxt0UbjuIaNgwKkQIYrAE0X/pU372w+whFK/9exyjL2ZrPNgsKkwJhQgG3AFGYV0A8vLqYRWMYKQWFSgBQY0wpwhNL/lViWLduoj+n2TYXPHgX0w4uLSSwjlpECpEAGKcARSv9XYlkG3cXs+e2lmpICagrohxcXk1hGLCMFSIEMUoAjlP6vxLIMuotqv1R0nBTIHgX0w4uLSSwjlpECpEAGKcARSv9XYlkG3cXs+e2lmpICagrohxcXk1hGLCMFSIEMUoAjVDgc9ng8V65cOXTo0ObNmw8dOvTTTz95PB55NGJZBt1FtV8qOk4KZI8CHKQePny4devWDb//27p168OHD7mYxDJiGSlACmSQAiyh7Hb75s2bf8+xZ982b948MDDARiaWZdBdzJ7fXqopKaCmAIun06dPK4IMDlZXV7ORiWWjybIx8RY0FZIUiFUBNU7pOc7iac+ePQKWffXVV2xkYtkosMwfCNpc/uoHQx9c6JlxomPygdY/7WkeX/mYPqSAYRSIe6dvFk+bNm0SsGzLli1sZGJZWlnmDwQH3P51l3r/n51ELlLAyAqAKafHEOPisHgSgAxOsZGJZWli2YhnvEDw2wZ7wVcthvntpYqQAmoKxL1fLosnYlma8MT9ngi+wm/U3rp+tRtPx0kBgymAbqUE/ULxFLEs4/iF98kfCHr8wRU1FoM1VqoOKSBQIG7v68SyDGUZWGRf3SSLzMhzQ4IunbWnwMtUHE8AiGWZyDIA2eUWxx/pGSUpkGUKuD3e+IaZxLIMZdmQx0+T/Vlrm2RzxYllmYgknPmKKTDy4NIf2HW9L5sbNNU9axUglhmEZTC69Pj8/0MrMLJsbJW18OIqTiwzDst8/sCNDgd3g+krKZAlChDLjMMyr8//2ZXeLGm4VE1SgFOAWGYElsFMmdfnn/WvTu4G01dSIEsUIJYZh2Uer2/KN21Z0nCpmqQApwCxzFAsm/AlvXpJS2SzVAFimUFY5vX5PV4f90tFX0mB7FGAWGYclrk93uxpuJW19sBw1OGPfHTRlj21ppoKFCCWjXmW4cR/qlm2u84eikRbBoOC9pS2U9e7fdLTv38/cKYt02RllDYlWwaD4ag04Auff+wuq+pKVvkzMx1iGbFsZHoFetf1boVRastg0OYZnnOqO1k9cHed3RGIVN1PiEFglw34wh98n+RlKFBNAKUkSeGo1O8N/+u+s/BAbM9VBNVMlpKaTGkZDGJF7L6wsW1YYhmxTMSylw+3dzpCyWXZvx84JUnKWHuKYxmwICpJt61+094YNhYXVDNtLBtf+bj4aMc/b9i7naGoJHW7hg1snRHLiGUjLPvoos0bUhg/zjnVbfMMtw2FTHubk9UDBZ1c09BIQwSumvPPWC62eUKRaCAc3XZ9QH8BBNXkstCfZtwxi492dDhCwxHpq9uDcSeS4RcSy4hlIyz74PteTyginwsDlsFx6IEP+gO76ux2XzgqSaFI9FqXt/hoB7byudWW610+TzASlaSoJDkCkeomF5gzkAUOedgA2H2YiDjAjpueMEY+xjTtbT5UPzTgHSkhlOFIg0O/SSUHjWlv88P+ANiSZVVdPe7hwHB067Xfce3cY1dUkq50ePVUU4+ShQfazjxyOQMKSuKcwLUu75EGh+NpHPm94GSstYzMMGasOcyVNo6vxDJi2QjLln5ndQQiYH+9/Z8euy98p9c/vvIxhB/0B7D/OPyRcOQ3EEUl6dxjF7Y8nJLHGOGodPTeyFuiejo5piMIaLLs5APnCMaYP0XkqWWhxrLIrxW51OaRnmILU3j5cHv7UMgbiq690qenmpCFQEnT3ubrXb7fV2KEy9e7fABlSMETirA15e4FFm985ePPr/a7ghGsAnvKMGFiGbFshGVgf7HzYnZf+O3/9EDPhGcC0H8kSXIGIjtr7S8davuu2R2JSkBA6BI/tnmud/neuzAyH198tONimycclR7bf/foUzD4iqlftQwGFSHVMhj0D0d31tpNe5sLD7Rtvz7wsD8ARdKTPsey+WcsP3eM2HjOQAQSWXulzxuK9rh/m3taf6XPNxx92B9grT9BNTWV/Or24HBE8oQiR+85Cg+0FR/t+K7ZHYpEAZf4uyJJ0pA/vPWXgcIDCvcCbytS3e4LLz7Xo0eEsRiHWEYs41l2qc3jCUU8ocjuOrucZa5gZM3lZ1ukwVnBCBEicENXQSePqQupsexBfyAclW50++Kb50bQIAJGnmZGpNNNz8xPGHKGItHddXYo8Plmt3wqSlBNyEKg5J1efyQqnWj83a4nt3r8OEjUTAEKBo9uoPyP7cH3k/3MN6b7lerIxDJi2QjLTHub24ZC/d7w/DOW5sFgrcVn94UvtXnA4oBuDP2HBZOcZXOrLXd7/f7h3w2P2EvGVz4WdPKYmrsayz66aLP7wrCcot0RAtNGf8ocy4LhaPNg8POrv/OfAHYTmKszvu20uIZZMw3yElRTU0nFqh2954hEJdZGZoWV3wsoBi6p0a/AGI1JLCOWjbBsfOVj6D87bgwMeMN7bw4+6A90OkL7bg2GIlGYMNbsgfPPWHo9w6w5A2G2y6WBZeMrHxceaNt/Z7B9KARTe47Ab7akZkeVV1N+yfwzlgFfeMA3gv5t1wcCw1F20hDip4hl17pG3u6QF5JYRiwjlj1j2YP+gCcUOfvIZfeFl35nPfnA6RuOnn3kCgxHYfJes/+A4dDnDa+98rtBqCLLLrV55IyI6Yii8cKlUHy045cubyQqwaMM7qziV3k1FaNd6fDCuPJKhxen0tiYwDLFasqz4Ej0oH/k2SQ7xjTtbb5jHRl46rwXbEmyJEwsI5Y9Y9n1bl8wHLX7ws2DQdPeZhhdAi9gYkizB0LvbR0MvnmqGybdWweDUUniWHbgzlA4MvJiDSIvvs6myLI5p7rv9wVOPnTOOdUNBtrhu0OhSJR7/iDIUV5NxcjwBKB1MNjnDd/qGXnmy30E1ZRnwbHsROPIcNIdjOy5aYe5/x9aPeHIyBqXFTVW/XbZ/DOWHvdwlry1Siwjlv3GMhgSnm92j698DNNA0tNFZDpZ9vnVfm6mLCpJkSjPshU1I+s/2KGo4OkBBwjo8+y1EMYU4IEsFwHXhXCpKX6Vg0Yxmmlvc/PgyDq6YPi3hwBsTEE15VlwLCs+2vFo4LfXj6A67PMHzRSgJBANnxiwxTNemFhGLHvGMrCq2FWgsJAK1z3o6T+H7g7B0s1wVOrzho/ec/R5w5xdNr7y8aar/RbXMK6NQhJpdjBNlo2vfLz1l4Fu1zDMlIUjIy/ubP3ld+taxbnIq6kWH6wn+aw/xlerpjwLjmXjKx+XVXX91OH1jrx6NPJOqOX3tdCTwvjKx2SX6fFkRv4xMwWCadsnA7soBUABWF4nn/UnfUZFAbLLMgVJen5AFOMQy9Lfc4qPdsAEVt/TVSzpLwDlKFeAWGYolv2/u2LYyEHeGuiIpgLsIDcQju69ZdhXtTWlyKgIE75sIZYZimWTD7RmVAszXmGAZTAbGNM0nPGkyKgaTTnUSiwzAsv8gaDX53d7vNOPt2dUC6PCkALpUWBWVQewzB8I+gNBxdkYtYM0959BEESWrb4wsqiKPqRAtimw+kI3skyNWWrHiWUZxzKP11fT9Oxt52xrylTfLFegpsnu8fq8Pn+sRlkgGCKWZRbLfP6Ax+sbcLjZbWeyvH1T9bNEAdOeZrvT7fH6fP4AsSyDwKRmCQuOw7IMj9fn9ng3XDbsBlVZ0jOpmrEqsOFyj9vjJZaNbYoB4NglZla767/3kfdymjTMFgX+e1+LddAV90NMGmNmHAFh+t/j9bncnpqHA3+kJwCkQBYo8MfKx983Dbjcnrgny4hlmcgynz8AKzOcLvc/r43spkAfUsDYCuy90et0uRMxyohlmcgy1jRzutwrvzO4n2pj91KqnaYCq2u6nC43a5TFMfFPLMs4lgWCIXbWzOX2OJyu3b8k2ae3ZvOiCKRAehT4qrbX4XS53J4EjTJiWSayDHEGDzQBZ6fv9U/6il7SpOG2cRSYfKDl9L1+BFncjy9xYQCtL8tEnMELHLDWzO3xAs6GHM4jt3pLjrSl5weTciEFUqRAyZG2w7d6hxxOOcjiG10CzohlmcgyNM1YnDldbofTNeRwttmGjtzq/fBC18xv2/+8j4w145gqKWLHqCf7533NZd+2fXih68it3jbbEFAM5shwQVl862PRKKMxZoaCDJeb4dwZjjeBaAC1IYcTPoNDDvqQApmpALZSQJjD6WIp5vX5gWKJWGRkl2U0yBRxhkRzuT1Olxu55nC66EMKZLIC0Fxdbg9M83u8PlhKliyQkV02lnAG6868Pj8Qze3xwlQatA/6lxTIZAWgucKI0uvzgzmWRJARy8YAyzgDzecPINSAa/ATR/+SApmsAPALEZZcitEYc8yADG4VPBCAR5wwjwZco39JgbGiALbexGfHsFNggJ5jjj2iwc1jmwWFSYExoQByJxUBYtlYZVkqWgOlSQqMXQWIZcQyUoAUMIICxDIj3MWx+1tKJScFkqUAsYxYRgqQAkZQgFhmhLuYrF82SocUGLsKEMuIZaQAKWAEBYhlRriLY/e3lEpOCiRLAWIZsYwUIAWMoACxzAh3MVm/bJQOKTB2FSCWEctIAVLACAoQy4xwF8fubymVnBRIlgLEMmIZKUAKGEEBI7NsTLxtS4UkBWJVIFmGjMHSMSbL/IGgRH+kgLEUiEajkUhkOBwODQ8HgsFUbJszpulmQJbBr5yxmjHVhhTgFRgeHoamPqYBlMTCG41lcHd9/gB/5+k7KWA4BaLRaChERHs22WdAlsEW0oZrt1QhUkBZgdBwmAw0A+73D5tHe7w+5dtOR0kBIyowTDgLhgxol4FHDyO2WKoTKaCqAA02DcUy9Izr9nhV7zmdIAUMqkAwGMrmwSaxzKDtmqqVfQpEo1Hw1ZbEh4NjKCliWfY1eaqxcRUIhkJZizNimXHbNdUs+xSIRqNenz87R5rEsuxr71RjQyvgD4x4ts/CtwKIZYZu11S57FMgFBoG02wMTXUlpajEsuxr7FRjQysQjkS8Pn8WmmbEMkO3a6pc9ikQiUY9Xh+xbIPwjwVfj9Vm7e3rtfX32vptfQN9/fb+gcH+gcEB+5B90DE45Bwccg45XEMOl8Pphs8fhoeH2SSGn/6FQqFgMBh4+uf3+30+n/fpn8fjcbvdMRmftL4s+3ou1VhBAWKZkGMjJ1kQEcsU2tBYPDQw6Hhz8YcvzZjX1mkZi+WHMhujFsnS3+P1ZeGUGYsnYlmy2pJGOoMO56tvLnn3o88yYT+P2tv3ckzmHJO5qrpGo9xpP61fqLhroT+LtNc+/gzdHi+xTIwzFnyGtcugcUP3zjGZx00sLl+0+uJPN4LBUEyNy9ZvX/rRplPnf5RflVH9ByyaktlLOrp65EUd3SP6hYq7FvqzGF0pYsodWZZVKzNYPIlBli1jTI5lCLXP/rk/Jpy1tHcVFJcrGjuG7D8xdTadkdMgVBqy0FnZJEYDlmXb9D+xjG9CXOMOhYav1dWXzF7y3KSS2w0P+Njq34ll6troPcPdC72XxRIvDVnEUpzkxCWWkV020pIUG/fZC5dhRikaje78+thzk0rqG5vYdtfU3JY/ZebOr489Wdrz7kefoTXHBl59c8mgw4lZrFq/vbvH9uHGHeMmFucVlu4+eIJ1UxCNRhubmheuXDduYnFuflHpW0vPXrg8HA5DplDIrbsPdVmsi1dvVEyBLZ5iuKq6BotXUFze0t4lj9Zlsa5avz2vsDTHZJ76xqLL125GIhF5NLUjwWDo4k83yhetVqyF2lV4HKopFkqzFtFotOHBo/JFq3Pzi7C+OSbzpsr9Ou8FlmesBIhlxLKRtipg2fmLP0uSVN/Y9Nykkp1fH4tGo9i4D1edzZ8ys6m5zecP6GTZ9IplL82Yx/auw1VnMcFrdfVAEDbCtr3fAM6gkFPK5hcUl7MR2BQwKbWAJgVa27smT6tg01dDnloWOCWPieTmF5374Se1+NxxqKZYKM1a1N6+J1eSY5k4C65Umf+VWEYsG2mlHMtCoeGfrt+aPK1i8rSKzm6rJElen3/ByrWvL3zf4XRBs/Z4ffOWr3l/7RfshJrmGDPHZH5pxrxbd++Hw5HGpuaC4vLFqzb4fH5Jkmz99lfKFxUUl1+6WjscDkcikTv3HpbMXgK4xELmmMwls5c0PHgUifApxNTfqqprFCFVVV1jevG1m/X3I5FINBq19dv3Hz0Z09KN+samvYeqbP128CF0s/7+5GkVyz/ZHAjqcpQF90IgFFtNxVqEQsOr1m/PnzLzWl19JBLxB4IHT1SPL5iKPI0pCza7TA4Ty4hlI+0TGzeaEvA08+S5H9AQO3vhcm5+Ue3te9Cg7z9qyZ8y88ovN9n2rcmyydMqHrd2wCVgzeEg9NLV2hyT+eyFy2yCV365mZtfBA8ToJCCFNgLNcOKFJAk6fzFn3Pzi/751VEgrGY6mhGgmvoXo8RUTcVaOJyu6RXL2BwhTRhg4u0WKylvEninNKs8KhGIZcSykYbHNdwJ5rLVG3Y8aulAkKHdtHnnATi46+vjrJkGzVeTZWwH41im2C27enpf+NtcdpZHkEJMXUgxO7BAP92yG1C+4pMtV2vvsIanniyCwdCZmsulby1l56rYYosTgXvBxueEYi9XrEUgGFz+yeaC4vK6+ka0y3Lziw4cPw3X6smCaxI5JjOxLKYXctITmZ5jst1hJCxv3HwMSRoOh9dv+/KV8kW2frvD6Xp94fvyiaoUsWzr7kOKhRR0cnn5uSOKFIA40Wi0y2Ldse8ITJy9NGNec1snd7na1+FweNveb1jzFsIsm9SuhePyeyGoplotrt64Pb5gKluMl2bMg+mCpCsprk7azpJdRnbZSGOT9x/FJni74UFeYemVX27ebnjwctkC7BsYGVi26+vjeAQD8iy4Lnr+4s/yMealq7W5+UXw/EEzBcxLT0CNAuy1kUjkWl19/pSZazbvwsepbAR5GAzJ6RXLWju6wYCFaqaTZcFg6MONO17429wZc5fn5hflFZauWr/dYu3D0iZXSUx2dAPEMmLZSAuUN27FdglPAN5bs/XTLbvXb/tS3r17+waKXn/71TeXtLZ3seNTxSw4lnV2W+FpQ119I8z937p7/6UZ89CgkBeSS0GxzGoH1Vh28ET191euO90eSZKi0Whnt3V6xTL9M/dA88WrNjicLnh0sPdQ1QRzWTpZ1tZpeb5kzsET1YMO55PnAHIFkqukPP1ROUIsI5aNNDx541ZrjlXVNbn5Rc9NKsGHAGxMsAjYoQ1Ossiz4EgUjUarzlxg55i45w+aKbAlUQxDjmzxIIyFlCRpU+V+LkJMKypcbu+biz9kU8jNLxpfMDWJLNOsBTwRZsuQYzK/XLbg5Lkf2NUtbJG4e6GoXoYfJJYRy0aaqBwTag0XrCf5rD/GH3K4vthzaIK5jMOEPAt5/4lEIj/fuD1zwcrc/KJxE4sXrlzX2NSM9p2eFLAYigFNCkiSNGAf+mLPoUmvzM4xmfMKSxet2sCWQTFZ7qDF2gdLecdNLK549+Mbtxo2bt/HgoOLz33VrKZmLUZ+FZ4uCX5h+t+hIsg19okwWyT5veBKlflfiWXEsthaaWNTc/6UmfJZ/9hSodipVODOvYd5haVHT57D1xWi0ejthgemF1/TP1hOZQFTkjaxjFimt2FFIhGYwJpesczWb9d7GcVLuwJglH197BTM+kmS5HR7Dp6ozs0vUnwsk/YCpiRDYhmxTLthsYOavMLSa3X12tdQjNFTQO0FpulvLWWfZo5eAVOSM7GMWKbdsIBlMPvT8OARTmBpX0kxRkMBeEV/8aoNOGv5ctmCL7+pgpf8R6NE6ciTWEYsS0c7ozxIgVQrQCwjlqW6jVH6pEA6FCCWEcvS0c4oD1Ig1QoQy4hlqW5jlD4pkA4FiGXEsnS0s0zLg7yxZdodSbw8xDJi2bNWpLlVaeKtTTOFtJUBt35VdLOiWU6KIFcAHnaz7xLI46T0CLGMWPasgaWNI4IGnbYyxO2NDQovcJ0nqF2mnUpuLYhl6dmwjMuF9i8TdSu1DSRE1yT7XCaUQVAnwTZtgqsy7VRya0Es4yiTnq/EMlG3ygSOZEIZBBollwKCjFJ6Krm1IJalB15cLsQyUR8RcASduXGbWGg6ncNXBdRS4AokKAMXM9av4mEs7FGh5rYOuivuOcEG2F2DJEkSV7OquubVN5fYhxw36+/PmLs8x2SeUja/9s49UAnKsKlyP+63IXe+J04BNFErQ7JqAdVcvWEHvF3wp7/8La+wlObLONak+iuxTEQANY48bu3gnK2x72bebnjw3KQS7tXlw1VnWW/B4hTYMqmVgY0TX1gPy9Tc1umkgGY1q6prppTN37L7ILtZG7q8ApaVvrWUU3vHviO4+aU4BUmSBGVIVi3uP2rhnPvlmMzEslTDi0ufWCbigCJHoANMnlaBm76Cw7cFK9d6n3qEgy1ny99ZhXszwBGMoJkCWybFMrAREg8rZgEc0XRbJxid6akm8BS8Pbnc3kgkcvTkuScbT546dxH3koMy3Ln3MBKJtHdZplcsK3r97d6+Aai4OAU9ZZAkKZFawM2dYC777sersHXtwKBj4cp1xDKONan+SiwToUCxk0O75xy+HT91/vmSOeg78uyFy6xvc/BqjpfoSQGLpVgGPJuUgGIWwDKxszUxBfRUE/bmrTpzAYfeLFagDNzGSnDJzfr7UHdxCnrKkGAtwPczu40dAJRYlmp4cekTy0Q0UOzkuCCLnSR64mqEhRdsOYvDzMNVZ3HcJEmSnhSwWIplwLNJCShmARxhOyR0UW46jEUPVxg91VTMGtORlwHVw33JxSnoKYOYZZopgDNTLI8k/wZtpgAAIABJREFUScQyjjLp+Uosw46jEFDsJ5qNW/rV6RwMM2EMwvo30ZMClkaxDHg2KQHFLOQcIZaxv17403Xq3MUck5lYlh5gCXIhlolooNjJ7z9qMb342qWrtaIrnxpfeYWl9Y1NTc1tz5fMud3wAOPrTAHiK5YBk0pKQDGLmFiGFihbHj3VVMwaE5GXAR4Tm1587f6jFogmTkFPGdAui68W8MsEvv6gSPC0gTVpsUbpCdC6f1r3z7c0xX4Czn1LZi+5Vlev6KYMUoFou74+XlVdw/k30ZkCpKNYBixoc1vnSzPmTX1jkX4XvHgtBhSzkHNE0S4TuM7TU03FrLFgUIaFK9cNDDokSfIHgt9W1+QVluJTFEmSxCnoKYMkSYnUAtyAls17r7vHNhwOX7paC880iWUCGyoVp8guw47zLAA9lh1NQJidJ7pWV59XWMrFkbfdw1VnZ8xdPmvhB+zEMGQjTkFPGSAdGODkmMzgz5yvjPp3zSx0skzgOk+SJHE1NUkEZeB0Zh9HaKagpwySJCVSi+FweMe+I2whF7z36ZPGIG8P6ncjyWfILiO7bKRJaXZycHzb2NS8aNUGlmjytguPLwuKy1vau7jWCns3q6WgpwyQoMvtnb/i0xyTeVPlfi4L8VfNLHSyTJIkNdd5eoQSW1UcyyaYy1Zv2NFlsbJVE6egpwyQWiK18Pr8O/YdySsszSss3bL74JDDtalyv7w9sMVOaZhYRixLaQNLfuLRaNQ+5HhvzdYnT1FxwUfysxm9FOU8Hb2yjKWciWXEsrHUXmExBAxtln+yGZbpjqUK6CgrsUyHSApRiGXEMoVmkbGHWtq7ni+ZU/rW0jM1l4PBUMaWM5GCEcviU49YRiyLr+XQValSgFgWn7LEMmJZfC2HriIFMksBYhmxLLNaJJWGFIhPAWLZnj17BDg7ePAguxitx2qz9vb12vp7bf22voG+fnv/wGD/wOCAfcg+6Bgccg4OOYccriGHy+F0w+cPw8PDbBLDT/9CoVAwGAw8/fP7/T6fz/v0z+PxuN3umNbU+QNBnz/g9fndHm98jYCuIgUMoACx7OTJkwKWnT9/ngURscwAbZ6qYEwFiGW9vb2ff/65Is4+//xzm81GLDNm0xfXipzOifXJwLPEsnA4XF9fr8iy+vp6FmThcJjssgxswykpEu7qQU7nUqJvChIllgGtbDbbsWPHKisrN2zYUFlZeezYMc4ig2jEshS0wYxMMkGncxlZJ4MXiljGWV7ir8Qyg/cHqt7YVYBYJoYXd5ZYNnabOpXc4AoQyzhaib8almWw1jxBP2awDcbClevGTSzOzS8qfWvp2QuX0XUQbN7Q8OBR+aLVrP8hdrsLTVdpwWDo4k83yhetVswC9mloePBo6huLJhbNqqtvvFl//39fnfPSjHmw05lmBNhOB7eyke/2AUKpOZ0DWkSjUXE1DQ6VUaoesUwML+6swVmWoB8zxX27tu39BnFWe/seu18QIgO37tF0lYZT8nhtbn7RuR9+gu6zqXL/9IplU99YBGcrlv7jr7PehvDmnQei0ahmBJ0sU3M6B8XQrOYodXaDZ0ss42gl/mpwliXix8zWb3+lfFFBcfmlq7XD4XAkEgGnc/lTZjY1t0mS9GQ32lXrt+dPmXmtrj4SifgDwYMnqscXTEUSIUfUnK1JklTf2LT3UJWt3x6NRiORyM36+5OnVSz/ZHMgGJQkaVPl/hyTuWzeex1dPYtXbcgxmRev3mix9r2+8H3YV0szAtvdFfcIA7tM4HROTzXZXCicLAWIZWJ4cWcNzrJE/JiBYx5uQ7Erv9zMzS+CZQ0Op2t6xTJ2rz4c2GJrFrtKw2gYgL0VMc1Nlftz84suXa2F43mFpXfuPWTjaEbAlNX2boUys7u8Qvq4Aa+earK5UDhZChDLOFqJvxqcZQgFaF4woENfO4p2CjZExbOwKzwMIQPB4PJPNhcUl9fVN6JdlptfdOD4aXEieBa2dT5Tc7n0raXsjBsWe1PlfmAKyxeOZeIIbF6KNQKWYY64JS+yTE812VwonCwFiGVieHFniWUKO19DW1Ts+cAy3JX/6o3b4wum4lRXjsn80ox5nd2/7f6smAi29eFweNveb9jLIYxkyQSWSZKkWU2sEQWSqACxjKOV+GsWsSxWP2bnL/4s37T60tXa3Pwi8DwGnjJe+NvcGXOX5+YX5RWWrlq/3WLtY1uzmGVAxukVy1o7usHjN2tzwXyZ2OzShJ1mYTTtMj3VZHOhcLIUIJaJ4cWdNTjLEvFjBk7LJ0+rqKtvhLn/W3fvvzRjHlpebZ2W50vmHDxRPehwqnmlE7MMNshevGqDw+mKRqO2fvveQ1UTzGUZZZfpqWayei+lwypALONoJf5qcJZxwzd2hlttLhwbUzQarTpzgZ3GyjGZx00sPnnuB7Ch4EEnl8XLZQtOnvsBF22IWeZye99c/CGbQm5+0fiCqUlkGRh6bBYQxukwTbtMTzVRNAokUQFimRhe3NlsYVl8fswikcjPN27PXLAyN79o3MTihSvXNTY1A8hgoWxVdU2OyfzC9L9PemU2ywt8f1vMMkmSLNa+xas3jptYPG5iccW7H9+41bBx+76MYtkI07WqmcQOTEmhAsQyjlbirwZnGUIB20cSA3fuPcwrLD168lwkEoFko9Ho7YYHphdfwwViScxutJLKkmqOlryCfIllYnhxZ4llgrakcQqsla+PnXK6PRDV6fYcPFGdm1+06+vjGhePndNZUs0MvCHEMo5W4q/EsvjbsNqbPdPfWso9zYw/jwy4MkuqmQFK80UglonhxZ0llvENSP93ePN88aoNE8xlMFn2ctmCL7+pGnQ49SeS+TGzpJoZeCOIZRytxF8Ny7IMbJpUJFIgJgWIZWJ4cWeJZTG1LopMCqRPAWIZRyvxV2JZ+pom5UQKxKQAsUwML+4ssSym1kWRSYH0KUAs42gl/kosS1/TpJxIgZgUIJaJ4cWdNTLLYGEUPGGU7w0dU6sydmR8Qd0Y1RywD63f9iU+XE7peumUKkYs42gl/kosS2lrHBuJG4llDqerfNFq9n0yYlkgGBpDHzGwBGeNzDIEieZLkRgzOwNGYhnsBrxx+z6X2zvW7ybZZQJyyU8Ry8Z6g09C+Y3EMiP9bhHL5MASHMlqlon9ucFmOIk4W9PcTgf2yBb4lNPjtk6SpC6LFTfb4Dbz0IM6jmWPWzsmT6uYPK0CXLTo1KGxqVnR+R7sN8nuG45FOnD89At/m9vV06snC7xKHBCwTNNDoKYDQHHWST9LLBOQS34qq1km9ucGHSwRZ2t6WCYugyRJaq9Dots6QA87Q5RXWHqtrl5/12JZ1tXTO71iGbvRmx4dBM73nG5P+TursLRsqcAhnsPp0pMFe6E8DP6oWBEwjO4dBIWEBDUdAMrzTekRYpkcWIIjWc0ysT836GCJOFvTwzJxGTT9ucFWi+zmt+D4bsHKtV6fX2dPQ5b1DQyWzXsPHQnD5Zo6iJ3vgesTmICH6qzZvGs4HIbjsDmSZhaaFdFkmbiQkD48+BY4ANQsRnIjEMsE5JKfymqWcS2P22sfOhhroUAE3JFV09maHpaJy6CZBeyyzTm+O37q/PMlc9o6LVzial+BZU3NbeWLVnMgkyRJUwdN53tPvMeXv7PK6fYMDDpeKV9U9PrbvX0DPp9/8aoNYK9pZqFWcvlxtTGmZiFhn+ERh4FnLuB2myAv7qwpzy6lR4hlcmAJjmQ1y4LBkMCfmyaJNJ2taaag6VNOMwv5EBXGVs9NKqlvbNLZ0zZV7n++ZM7rC9+fWDQL5sjYCzVroYgP1vleVXXNK+WLBgYd9Y1Nb7370WtzV9TevgfJAiY0s2DLIw4rFkZtP3S2kGpxxNml9CyxTEAu+ansZZmmPzc9HUzsbE0zBc0yaPpzSxbLXn1zyenvfswrLH1/3TZucKpZC0V8ACbA+V7t7XuwVvnA8dNfHzu1eeeBnV8f6+y2vvC3uTCvp5mFfmQoFkaNU2wh1eLozzrpMYllcmAJjmQvy6AdC/y5aXYwTWdr8hRa27v+OuttHKVqlkEzi/uPWkwvvnbpam0iHQnGmPYhx8lzP4ybWLxt7zfoewXHmOyKU26srel873Frx6RXZv90/dZ7a7bWNzbV3r5Xvmj1rbv3Xy5bcP9Ri54s9NdOjWWahSSWZch6WgGtxKeyl2Wa/tzkJOL6sKazNYhfUFx+6+79SCTS8OBRyewlOSYzskyzDJpZOJyu1xe+XzJ7ybW6ejW/dpogwLl/cD01vmDqjn1HEGeaOmg63+vtGyh6/e0d+47MX/GpfcjR2zfw6ptLvthzCBZkpIdlmoUklhHLwsNP/0KhUDAYDDz98/v9Pp/P+/TP4/G43e6YZPIHgj5/wOvzuz3xL90GjuCDeQwgRzT9uWn2YT3O1g5XncWsc0zmguLyKWXz9ZdBTxaKSw1YM0o/yyRJgmEvOwWuqYOm8z1YlpFjMsMTTHia+dykkukVyxxOV3pYpllIYllMnTR1kcXGl+CsYe0yTZZp+nPT1Ye1nK35A8HdB0/kFZaOm1i8ePXGLov1wPHTyDLNMujx5wZLQBet2pBXWIrcjJtlkiR5ff7ln2xGT6CaOkiSJHa+B/DKMZnB37skSTDiw0LqyUKTyBBBbYypWUhiWerwFFPKAlqJTxmWZTqbfiLR0uBsLQ1ZJKIAXZtSBWjuXwwv7iyxLP7WmAZna2nIIv7605UpVoBYxtFK/JVYFn97VHu7KIk+5dKQRfz1pytTrACxTAwv7iyxLP72mAZna2nIIv7605UpVoBYxtFK/JVYluL2SMmTAvEqQCwTw4s7SyyLt6HRdaRAihUglnG0En8llqW4PVLypEC8ChDLxPDizhLL4m1odB0pkGIFiGUcrcRfjc+ygUHHm4s/fGnGPP174KS4iSoknwmFTLwMiaegIE0WHyKWieHFnTU+y3AnidHahUpPZ0xpIXX61ku8DImnoEertMWBV0fw5YS05YsZEcs4Wom/Gp9lYCyUzF7S0dWDrQQDtn770o82nTr/Ix4ZlYC4kAkWSSfLEi+DOIUMkVq/mMSymN49SlZkMbAEZ43PMnHbHd2NQ8VlS/pZwbuKSc9LnuCYk5pYliw8xZSOgFbiU8SyroLi8kwefsqhEPcRYllM0hHLYmJQsiKLgSU4a2SWCcZW0ExxVwk2wG5iAe7aVq3fDltQTH1j0eVrNyORSExdostiFaQgKKQkSZsq97/70WcNDx5NfWPRxKJZdfWNN+vv/++rc3BXfthh4smG+hZrH7iVyyss3X3whD8QlBdSjWXiMkA63E4Yi1dvtFj7MAtBCppSR6PRnV8fk2/q3dTclj9l5s6vj+Hu+5idYiBxD4Fwu1dv2DHBXJZjMv/pL3/LKyyl+bJkQUpnOgJaiU8Ry8wsyNiNEiVJam3vmjytgo0Aez0r9iXFg5opCCgALJtesWzqG4ugDBVL//HXWW9DePPOA9FoFFhW+tZSrpzsZopYsLhZNhwO79h3JDe/iJWCdRMnqIUmyyRJqm9sem5SCYetw1Vn86fMlPsfwOpwAXzygIXMzS8698NPEA2EEnsIvP+opaC4HC+HALFMJ4OSFU0MLMFZI7MM27paH5YkSTyJU1VdY3rxtZv1I7vCRqNRW799/9GTMa3t0J+CYiHBVVrZvPc6unoWr9qQYzKDQfT6wvehj0EXBcd3d+49jEQi7V2W6RXLwNcRKgABxSzYOGoRrtXVPzeppGT2ktv3Hg6Hw8Ph8INHrf86+z17rWYWAqm9Pv+ClWtfX/g+bM0oSZLH65u3fM37a78IBkPyXBSPiL3zsUI1PHgUiUQam5oLissXr9rge+p8D8owwVz23Y9XYYfegUHHwpXriGXJgpTOdAS0Ep8ilonmy85f/Bm8JUJzV+xC4oP6U1DkyKbK/bn5RZeu1oJ1k1dYeufeQwizLJtesczWb8eSVFXX5OYX3ay/j0cgoJgFG0cxwnA4vGbzroLi8kctHWxkxbBiChBTwDJJks5euJybX4R+ee8/asmfMvPKLzcVc9FzkFUJt64VeAgE2/Bw1VlMnEsBj6ctQGsyxPDizhLLRCzz+vyfbtmdYzKPm1i84pMtV2vv6DcToMXrT0GRArgTP/QrmMtj+xiYG5ztAKMt5AL2PcUs8KzaxqpgInFZsFexYUEWYpbBbuAwcJYkadfXx1kzjc1CLZygh0BwoMmKxuqslmlKjxPLOFqJvxLLRCyTJCkajXZZrDv2HYEJKZx019+IdaagSIFMYBns1p9qlg2Hw+u3fflK+SJbvx0csrAmkqbamt755NBnfx4kSTp17mKOyUws0zkSTF00MbAEZ4llIyzb9fVxzd4SiUSu1dXnT5kJDjg048sjiFNIFsvgsaDpxdfAXRtbDMUsNCOAv+G/znrbautnIyuGBVmAXSaQ+nbDg7zC0iu/3Lzd8ODlsgWd3VbFLBQPanrn02QZGLPokUCSpMetHZOnVeiEuGKpEjxIdpmAXPJT2c4ycHf26ptLWtu75M/+D56o/v7KdafbAwZaZ7d1esWy5Z9sDgQVVjwoNlz9KShSQKddtnDluoFBhyRJ/kDw2+qavMLSBSvXci571YaQbLEVyyBJEniTqnj349aO7sjTv4eP22Kd+xdLDT5TFqxc+96arZ9u2b1+25fo1I4toVoYQLl41QaH0wVPafYeqppgLkMSabIMaFg2773uHttwOHzpai0808QU1LJO3XFimRxYgiOGZRmMILjn69ySC0mSwJkuG41dXwaPEdmz7GN+PY1YnIJmIXWyjC3hk4GSfIabi8DqoFkG9MzEJYJrMvSkoCk1iAlPLZ6bVMKO9fTonLiHQFh3wtZxwXufPgEZsSx1w0nFlAW0Ep/KdpZJkjTkcH2x5xAsj2Q7uSRJA/ahL/YcmvTK7ByTOa+wdNGqDY1NzXLzTdDZxCloUiBWlk0wl63esOPJ6lwskmYWmhEgKZ/Pv//oyZfLFoAUq9Zvx7WyOlMQSw25gEfeWGf94VpcLTxuYnHFux/fuNWwcfs+JJGmXQbI3rHvSF5haV5h6ZbdB4ccLlir7PMHUM90BsguE8OLO2tYlqWzzY1iXvIuOoqFSTzrxqbm/CkzY5r1TzzTjE2BWMbRSvyVWJaxLVlXwQzDskgkcuvu/SePibm1crpUMGgkYpkYXtxZYtnY7gcGYBk7RM0rLL1WVz+2b0nySk8s42gl/kosS17TG42UDMMymORqePAopunI0ZA8fXkSy8Tw4s4Sy9LXNCknUiAmBYhlHK3EX4llMbUuikwKpE8BYpkYXtxZYln6miblRArEpACxjKOV+CuxLKbWRZFJgfQpQCwTw4s7SyxLX9NMJCdwC5KIZ7zEU0ik/HRtHAoQyzhaib8Sy+JoY6qXwPICXGuuGu/XE/qfQuKmqXLXBII9XX/NZ+R/QQpsNApnjgLEMjG8uLPEsmQ23dSxTOCuTSfLBClIkjS6Dt/YJWbsG5Hcr8LoFjKZDUVfWsQyjlbir8Qyfc1KX6zUsUxP/mq7XOi5VrxRop4UEomjk2WjW8hEKhjftcQyMby4s8Sy+JqZ8lXEMmVddB8VC0gsU9xYwmAHOULp/2pkllVV17z65hL7kONm/f0Zc5fnmMxTyubX3rnHrizvsljBFdu4icULV67jtsEQuymDHtplsQq8kIlTgPmyjdv3dffYwO+c3COcziGkYHsyQQpqBhHuF5Ish286aabIMs1C6kx8zEUju0w/yMLhsMFZNqVs/pbdB1lnaJOnVeCGpbBxKDtBw70PiPPlGIfbv0zTC5k4BWBZ2bz3SmYvwSxyTGbWI5yARFznVBtjClLQg4mkOHzjiqr2lVjGKkMsI5Y9aw/Qh8GRksvtjUQiR0+ee+KI5NS5i5IkQbeZPK2irr5xOByORCJ37j0smb2E3ZFV7KZMjxcycQrAslR7hMPuoQY7sW+9pDh8wzKIA4osw0tojGmw4aRidWLiFxvZ4HZZbn5R1ZkLOKhkOwOEz164jF1FkqTjp84/XzJHzQMm19Pi8ELGpQAs43a5Sa5HOLZ28bEsFQ7f2FKxYU4f9pQYuFxMY3wlu4xFlWbY4CwTuBmXj/5glPfcpJL6xiboDGI3ZXq8kIlTAJZxKw+gYPJNogUkgtImEoGlvBwEiTt8k6epeIRYxspCLNPkFxuBWGZmJ6pyTGZkmaabMk0vZJopjBWWJejwje2f4jCxjNWHWMaiSjOcvSy7/6jF9OJrl67Wsq2HDWu6KQMDSuCFTDMFOcuS7hGOrZHAcAO7LEUO39gyiMN6WCYopDjxMXeWWKbJLzZC9rIMHMqWzF5yra4+FBqWN3To3gI3ZZpeyDRTAJahR7hQaPj8xZ+T7hEOqyZgWVIcvt259/B/X50z9Y1FzW2dmGlMATHLNAsZU16ZH5lYxqJKM5y9LJMk6VpdfV5hKTfGxNkrTTdlml7INFMAlnEFSK5HOKADlwUuH8P+LPatB9E0Hb6hAz35S6OYkWJArZB4L+AqPYVUTH+MHiSWafKLjZDVLItGo41NzYtWbWCJxvYfsZsyPV7IxCkEg6FT5398692PwKMdeIRDX224cERAIjUKoJdPzQjYzwW+9SCOpsO3uO0ytUKy9wLKoFlIrI4BAsQyFlWaYSOzzACtOaOqQA7f0nw7iGWa/GIjEMvS3D7HZHbk8G1UbhuxjEWVZphYNiqtdMxkyo7+uBe8xkwdxmxBiWWa/GIjEMvGbEtPS8GBZeTwLS1i85kQy1hUaYaJZXwDou+kQIYoQCzT5BcbgViWIe2WikEK8AoQy1hUaYaJZXwDou+kQIYoQCzT5BcbgViWIe2WikEK8AoQy1hUaYaJZXwDou+jqAA5vmPFJ5Zp8ouNQCxjGw+F41RAsHVtTCniRkyxvgUFW4TjCxKCvZ5iKs/oRiaWsajSDBPLRre56so9832p6WGZnlqIHd+JxdJTBnEKmXaWWKbJLzYCsSzTGrBCecQbJSpcMHqHBFtxpK0WgjKMnjDx5EwsY1GlGSaWxdPI0nxN2iiQeL0EHElbLQRlSLyC6UyBWKbJLzaCwVnWZbGCr7Yck3nqG4suX7sZiUSgOcr3QYQ17rjDBETYVLkf97rgHL5pRpAkCbbiWLhy3biJxbn5RaVvLT174fJwOIxdQuD4jn1/CGeCIICFhHQE1cSM1AKbKve/+9FnDQ8eTX1j0cSiWXX1jTfr7//vq3NemjEPtiHTFIpNWc4RnbUQjxD1SI3FkJcBT4ldCGK0DAkQy1hUaYaNzLLW9q7J0ypYCrBTwppdFCKUvrWUSwQdvmlGUNsibdvebxBnVdU1ao7vdFJAXE3Nbrmpcv/0imVT31gEQlUs/cdfZ70N4c07D0SjUU2h2CzkHNFZCz0sE9wLcRngrKYLQTaRTAgTyzT5xUYwMsuqqmtML752s/5+JBKJRqO2fvv+oyfRx5JmF4UIAodvmhHA5UdBcfmlq7Ws27r8KTObmtugt0AfVnN8B3HEozNxNTX7JGygWDbvvY6unsWrNuSYzItXb7RY+15f+D5sH6YpFJuFnGV4VlwLjKaYgqbUeLmaz2NAqtiFIJtIJoSJZSyqNMNGZtn5iz8DI3w+v7xpanZRiCBw+KYZARw1cW7rrvxyc8TTXXUNFAk2a1VzfAdxxBQQV1Nece7Ipsr9uflFl67WQm/PKyy9c+8hhDONZYJ7wVZKkYagIXcvxC4E2TRHJUws0+QXG8HILPP6/J9u2f3Eue+4icUrPtlytfZOMBjCRqmTZdzWpqzDN3kKkiSxERQ7FXgJ2FS5H0qiGAcLCQExy8TV5JKSf91UuR9m34BfbDjTWCa4F2y9FCXFlWvsnAPrdotNIUPCxDIWVZphI7MMpt67LNYd+47AnBfOZ0uSJCcR25kVI3CokqfARVDsVMCyrbsPQYdRjMP1JTHLxNXkkpJ/JZahO1S5OKN7hFimyS82gsFZhm0xEolcq6vPnzJzzeZdMO8uJ1Fre9dfZ72NjwjlETiHb5oRzl/8+ckvPzeuuXS1Nje/CD3R6WeZHl9q8mqiAmqBOFjGCcWmLKgOEFmzFoopaEqtWQZNF4JsChkSJpaxqNIMG5llB09Uf3/lutPtAculs9s6vWLZ8k82B4JBdAtSUFx+6+7Iw4GGB49KZi9hHRRB/0GHb/5A8NvqGtbhm2YEcPbBzjffunv/pRnzXpoxr7PbCh1GsetyfUnsS01cTS4p+VdNloG5KhCKTVNQHXEtMBHFFDSlxsvV5v41XQiyKWRImFimyS82gpFZhi7OcIokN7/o3A8/YUs9XHUWT+WYzAXF5VPK5nN2GRshx2RmHb5BBxNEiEajVWcu5OYXsXHGTSw+ee6HaDQKxVDsulhCCIh9qWlWk0uN+6rJMkmSxEIB7Ng6QhiV1KyFZgqaUmumoLY+hpuD48QZ3a/EMhZVmmEjs2zAPvTFnkOTXpmdYzLnFZYuWrWhsakZISJJkj8Q3H3wRF5h6biJxYtXb+yyWA8cP409kOs/4PDtyapUbN+aESRJikQiP9+4PXPBytz8onETixeuXMeVQQ/LJEkS+FLTrCYWWDGgh2ViofRwBLJWq4VmCppSa6aA65YFLgQV9RnFg8QyTX6xEYzMsgRbIfQfwe+2ZoQEC0CXowLZKTWxjEWVZphYhv2FD2j2H80IfIr0PV4FslNqYpkmv9gIxDLV7qXZfzQjqCZNJ2JUIDulJpaxqNIME8tUe5Vm/9GMoJo0nYhRgeyUmlimyS82ArEsxl5F0UmBdClALGNRpRkmlqWrYVI+pECMChDLNPnFRiCWxdi+KDopkC4FiGUsqjTDxLJ0NUzKhxSIUQFimSa/2AjEshjbV2qiG8OXmjFqkZo7HE+qxDIWVZphYlk8jSzua2B5unz9Le5Ig/uaxZ1FKi4Ub/qKOQpqgW8XYGTdEcleAAAb20lEQVQKaCpALNPkFxuBWKbZopIZQY1lifhSS2b5VNLSyTJBLYhlKtKKDhPLWFRphollosaU9HNqLEt6RilKUOfbo/LciWVyTTSPEMs0+cVGIJZptqhkRiCWJVNNo6dFLGNRpRk2LMtgpbjAI5wkScFg6OJPN8oXrY7D4Rv0I80UJEnqslhXb9gxwVyWYzL/6S9/yyssZefLNIdv0Wi04cGj8kWrub2DYJdtTY9wUM5EnM6xxFCzyzRrwdll4BJp8rQK9OECQi1evXHcxGLFDUXYYmRJmFimyS82gsFZJvZChnPVuPcWt8GZwOEbdCfNFO4/aikoLsf0IRATy2pv38srLOVSyDGZkWVij3CSJCXodI4FR1JY1tXTO71iGbsTnCRJY87hGytLisLEMhZVmmGDs0zgEU6SpPrGpr2Hqmz99mg0GolEbtbfnzytAjeehR1Kc0xmgcM3cQpen3/ByrUTzGXf/Xg1FBqWJGlg0LFw5TqWZdgNFDHx5KpV67fnT5l5ra4+Eon4A8GDJ6rHF0zFHSU1PcJBLQS+9bAAegKKhWQvVIuAdlnfwGDZvPdYxwu4xy+7Ae+dew9LZi9ZsHKtV8mHFpujgcPEMk1+sREMzjKdXsigP8gns/Q4fGP7EpdCfWPTc5NKDledxThcBDwu2Nl5esUyln04doZrNT3CSZKUoNM5zULqiQAsa2puK1+0mgOZJElj0eEbW+sUhYllLKo0wwZnGUsBzkkSzJedqblc+tZSdiqKvUTNysC2GwyGBCmAf8za2/cwfqwsCwSDyz/ZXFBcXlffiHZZbn7RgeOnIU20dyBl2BSXyyVBp3NYeDXg6omwqXL/8yVzXl/4/sSiWewcGVwrH6rDmPq5SSUZ6ySJrXWKwsQyTX6xEbKXZcPh8La938jnofSzTDOFU+cuPnERkAjLJEm6euP2+IKpbDlZ1yd6WJag0zm2o2rCXS0ClPP0dz/mFZa+v24bN3IklrEiY5hYxqJKM5xFLOM8woGfyukVy1o7usEJAGfOaJohmilAF0X3cTjDzeISG64iBcBryQt/mztj7vLc/KK8wtJV67dbrH14lU6WYfw4nM7htZqCCCJAOe1DjpPnfhg3sXjb3m/Asx8kPhYdvrGypChMLNPkFxvB4CwTeISDOZrFqzY4nK5oNGrrt+89VDXBXMaCRpEv2HA1UwDYlc17r7vHNhwOX7paC8802SwwNcW82jotz5fMOXiietDhhKcHGB8CeliWoNM5NkfFQuqJgOUE31TjC6bu2HcEcTYWHb6xtU5RmFjGokozbHCWsUMzziOcy+19c/GHbITc/KLxBVNZ0Ii7rmYKw+Hwjn1H2CwWvPfpk/QxC7AE2QgQRl9Qtn77K+WLuAgvly04ee4HAAEyQjBflqDTOc1CakaQJAnLKUkSjM1z84uqzlxAt1jX6urlS09QqBTBIsOTJZZp8ouNkC0sk3uEkyTJYu3DxZkV735841bDxu372P4jZpmeFLw+/459R/IKS/MKS7fsPjjkcMHqVp8/gGsROFSx/oZHrJjqmhyT+YXpfwfneBgZ3kJHRghYlqDTOU1UaUbgWCZJktfnX/7JZtZVaDQabWxqHkMO39LAQWIZiyrNsMFZxoIpDY0v6Vncufcwr7D06MlzkUgEEo9Go7cbHphefI1dB5f0fCnBTFCAWKbJLzYCsSwTGq1qGcAo+/rYKafbA5Gcbs/BE9W5+UW7vj6uehmdMIQCxDIWVZphYllGt3q1F5imv7WUfZqZ0XWgwsWrALFMk19sBGJZvA0tLdfBLNLiVRvg1fQck/nlsgVfflM16HCmJX/KZDQVIJaxqNIMG5Zlo9kGKW9SIBkKZDnLNuj7Q8YRy5LR6CgNUiAFCmQ5y8LhsCbNEGThcJhYloI2SEmSAslQgFgmxhkLMmJZMlocpUEKpEYBYhnQStE640BGLEtNG6RUU6zAtbr6P7/8OvsWVIozHJ3kiWUILA5neJwN0BhzdJqpWq6whj7NS3w1d7hWK22yjsOmbPprDW9l4ZteySpGpqVDLGNRhThjD7JhYllmNWBimZ77kTq7zNZvX/rRplPnf9RTjFTHIZaxqIK5M+4I+5VYluoGGVv6o8IyLKLm+6cYM7mBWO2y5ObOpgZ7n2SIx2ViGYsqzTCxjG3Jox8mlo3uPSCWBYKh0f1oMkstgmFZhvvi42YYeYWluw+e8AeC2FuqqmtefXOJfchxs/7+jLnLc0zmKWXza+/cw41oYNn9wpXr1JzOSZIUiUR+vnF75oKVuflF4yYWL169kXu7qMtixd04Fq5c19jUjOlDSQRO5+QGC8COnSrSrIUex3dQktTZZWIloZobt+/r7rGtWr8dthVhbxbUGvcIgYB8fk1TarWbpZg+5MJKjS0nPQGyy9SwpXjc4CwT+5TTdBmnuKkWuycq7FDGugtAb2/Q3DVdpYmdzulk2ZSy+Vt2H2SLMXlaRWe3Fcog34Gac52HPTN1LBMrCdUsm/deyewlLLDwSaUiaziWaUotuFmK6RPLRsVAU+SUnoMGZ5nYpxw8v1NzGQf7IBYUl1+6WjscDkciEXB0lj9lJnrfuFZX//+3d34/blxVHOcPygPigQceolBRgtKHBtqiqpUQAoKgUkGhUChCqgRqQTwhEC+AUoWACFoalLTpknab/ljBEqFsxA8lbXbtsb322muvf+7YXv/ai7xnc3L23pk7Y3vr2DNfy9rcmbkzc8/3zv3k3HOv537y5JNPfv17t/73Qa/f7/X7d+4m//rG20QHaiGWpdICF50LybJJFr5jkFnecC3zjJEOVJLMtFeWvK+fLBaplVL2yqLro4/5QPglbxoGW555Is4y+5py9iXjaBWlN5bel61o+Z83hy9Eff0tej/qy7/4zcNPnLmbSMs8nKaGoV1h4cq1zz35DSeTowU67YvO+TVa2fGxW8GF4QQRVnNq6OhH5JcFKklm2iuLy6+UMmUJlLrX79sri65vZxndV3qOsiJkCY8kjT6mJ7P8dkacZVqLpd4WL4xkb7qeR+kV/rRmuNtsPfvCy9ot5ENsdu6oGfBSaYGLzpmNlkgkm5BnOWUx7AvfyZyBl5KZw6c9LyuVNM00FwCUtzPzB0odWFl0fbBMukgPJO2HqsD9YNmZRGpDthNOW1rgL3/7R6VUfcc9850XJ2FZ4KJzZqMdlWWBC9+xvR9dHzNQSdPMI2dZYGWFYZnUagpp+GWB/JIZYsQybU25wKZ77Z2/Hzt+WushvvePf33804/RMnG0EO/jXz2b3yp5PtmBS6WRN2FZdM5s5MnUxuNfPRveLwtc+E6W3BM6MsN46UAlTTPNypK3NvMHSh1YWXR98stm5J29YJlEVWA64iyzrCkXyLJMNv/IU8/IcPLqf24/+qVn5VK7f7r0xrHjp595/ifJdHaw//lgzeHYf+BSaYGLzpEX9vATZ1b/c3swGPz3zl0a6QvPMmqc9qXzGBN2lq07mUe/9OwXv/bcupPhU8IkApUkNnFldbu9a+/8/VOnnv72j36mrQpMtzNZFii1UspeWXTlQnH7sa8M/6tIpja0qTNhLD3aPGBZIL9khoizTIZptTXlAllGKznKiQ7Hjp+WSwfxekLaXSiaRo+151wE7pYGLjrHLZBv8fATZz7/5W+FZ1ngwneES74+J+QtyBbqER87fpq62OHbbaCSxCa+NSUeeeqZtaT3oIrJMhqmtK9KR4s/aXeRlaWUosWVZR5Th/CGT5gTLJOoCkzHhWWea8rZ3RBzHqznTNdWq33+z5e/8OVvHzt+2lxXPHCpNPuic0qp9m7nt3/4y6dOPU0TcTdy+QsLr8kGFmgFzxb+xGeeMJfOC8+yxk7zWz/8qTaBLmRz1Sapakp2Ot0r19795vM/pleBU2VpU47ljYhlL/7813L940Cph4v4WSuLblGtNX71uz/yS8ml1LIMU0iDZYH8khmmxLIKPlAACkCBj1KBKbFsCv+J4RZQAArEWQGwLM61D9uhQHQUAMuiU5ewBArEWQGwLM61D9uhQHQUAMuiU5ewBArEWQGwLM61D9uhQHQUAMuiU5ewBArEWQGwLM61D9uhQHQUAMuiU5ewBArEWQGwLM61D9uhQHQUAMuiU5ewBArEWQGwLM61D9uhQHQUAMuiU5ewBArEWQGwLM61D9uhQHQUAMuiU5ewBArEWQGwLM61D9uhQHQUAMuiU5ewBArEWQGwLM61D9uhQHQUAMuiU5ewBArEWYH5YFmztbuRKyXT+XVnE18oMO8KJNP5jVyp2dodFT3pmnpuUZ26oE6ci8731AX13b+pbH1UMfT8c8CycqWRSOXLlYbbbLfaHXyhwLwr4Dbb/FTrLdJ/e3VTffZ8dBCm4fjkeXVr09/4EEdmnWWtdieZzvf6/RC2IAsUmCcFev1+Mp1vtUN5Z+maOhldkBHXPvf7ibyzWWdZrlCu1nbm6QlFWaFAaAWqtZ1coRwm+/ffjKxHJh20F94KI4Z3nllnmZMuuM22d9mxFwrMuQJus+2kC2GMiFiMTPJLph+5EEYM7zyzzrJ1Z7Pd7niXHXuhwJwr0G531p1QUSLZ4KOdHrtKwbKxpcOJUGBSBcAyk8tjawqWjS0dToQCkyoAloFlkz5DOB8KzIICYBlYNgvPIcoABSZVACwDyyZ9hnA+FJgFBcAysGwWnkOUAQpMqgBYBpZN+gzhfCgwCwpEjGVXP1TdgTp/a6JpvWPXC8Yxx5YOJ0KBSRUAy+CXTfoM4XwoMAsKTJNl528NnSb6TO49mQw6cU7BL7M9VOHn/V9dfPviwhXzu3R92XYDHIMCD06BqbHs6odDI2/mDnp/ZxeVU1UvvTdRZ9DEGVhme5TCs4yvcvvO2sKrr6czWd6DBBSYTQWmw7Kzi6rUHH7PLvrCi2BHKjnV+9nO31LN7jAE5lQPJNSuI909pRAv83/QjoRlt++sXVy4snJjVd5n6frypcuLlWpNKbV0fXnp+nI6k1149XXy7G7fWZOZV26sssenXUdmM9NL15f5xJAe4u07a5cuLxKRL11ezBeK5HLK08kiurLcr5SqVGuXLi/SIZPp0kY2n4rdarelb6uZKU80L24pj6kJ9rAC02RZs+vriN3M3WfQS+8N4cU4Y1SRT6cdJQJe/fCAffDLuGY9EkfCMmqlVxffbrUPXrlBDZ4pQMThlr9yY5XTRDpu9tSktXbuUe79XSs3VpmJdCLf0e8UpRRR7Ori2+lM7tLlxcuvvblyY3XlxiqXQRZPM8TcXLq+zFZrhU9nsu++v8Ileff9FXZmNfrLE0lMLoxSylIevjgSngpMh2UUyaICMKS4h0h44u6nFvYilsmznOqBi0funjwElnnW8sHOI2GZ1t6YF9x0l64vS3gREQhY1IwZSXQp2ZJtpT98THqCh48c2mKOUDEIwcwLWTY6TfapzdLKS8uccr+Z1ugvSUrqXVy4QprYy2NeGXukAlNj2Ylzww5mqXlwc+mjmQAifpG3JdOEP2aZeci8FBMzfELqM1I6gnMyPFus9CzI1ZJu2tL1ZblJLZl8KK0ZmxwML7d5Kc9zufyECS4G0ZaP8rmSX3QKg4bzUIJySmprGeSm1ESjsCyDTMu7SPrLyyItFZgmy5gmHBojWt3MyRLdT4Nlu7u7u+12u9VqNfc/ruvu7Iz/Ytij8sskv6jBy8Ym261SSrJMBrw48hUSB0wWPjGMQ8d08GSZjNzxZSW8qPBmSIseUlkkrTBEOnlN5rv8n8B02eQpnJby3m8fSB1W4IGw7MS5YeCs2T3oKtqdKdP5gl92uA5Dbx0hy5gRFFynqD8VxMKykM6UaRBRg3EQvnPK5fRkGR8176jtsXth1JNlnFFmGc6TmsjQ/sWFK9Ko8OXRiodNpdQssMykFXtwJ84NRzC7g+HEMd7JLNMCbdSHnXzm2tgPRlz6mOxtrdxYpVFLKZlst0opatjkWYzdVqn9S/ckJBb5jp4sk2WTJnim7Zn5RmY8Ubqx0ks172K/BeVnV1GqwZcioSQf+RAVwxyDlhnmOj0dlr303nBcUk7IoH4lE8qp3h/HZGZRwsKyE+eGl+XQG6VpAod2kZE2x67QGLGMWuzFhStmD1GyTOtD0Sb7L+GFpkbOng71VcNchxHjyTJq3qYJVLDbd9bkGCuPGNBROa5K1+HyEFDoXEYP80XqYyqgjZyYGUiKiwtXWA2ZRxtElodIAc0TlBnmPT0dlrF7xXIxgJgyWtSMJ5HZWSbHE27mhk4cWMYi64kj7GOyw8VNlG+mBcXMJheYgS8lE7Jrps2rkNm0dCDLGMocnJIWyYAao4pvIQ2RZ2nXvH1nTfKLmcJ3lBE67VwTPQxH+GVcEZSYGsuYWbOf0CQKvxlBv8xiPDkI0nOhzLLdWk6P5yECmQa+QF8snlqNajVYZrJ1VA05f7xY5hexAsv4gTATnv8BaL1X8yzsCaMAWAaWhXlO9DxmMJ5zgGUshZkw/TKim+apmSdiT6ACYBlYFviQHMrAISTPeI0cszt0GjbuKWDGy8x++r28+HcEBcAysGyExwVZocDMKgCWgWUz+3CiYFBgBAXAstllWafTeeC/YRrhUUJWKPBAFQDLPmqWbZer2+VquVKrVOuVar1aa1RrjVp9h74f6/V6ffHp7X+63W5n/wOWPdDWgZvPkwJgGVg2T88rygoF/BQAy+aDZfSqjAnfk+GkC27z4AWKfg8E9kOBOVXAbbaddCFM4R+5cP/X3Wb7j8ieV9SpC2HE8M7Dc2W3ittbxe1iqVzarhxNH/NIWJYrlKu18V8Z5G009kKB2VCgWtvJFcphyvKDN9WJV6KPsx8thRHDO8+ss6zV3k2mC73+vcWwvK3AXigwfwr0+n0nXWi1O2GKnq2rk+cjzrKTv1f5CfyWWWeZUqpUridS+XKl4TbbrXYHXygw7wq4zXa52hg+1dVGGJBRnn/n1UOv7HtnEXPQ9s156BX1wXZ4MTxyHiXLaCiTxjH51bITxsuoyJ1ub6tUS2W21p1NfKHAvCuQymxtlWqdbs+jRVp35Rrq+WvDoFJEAmTnhoacujA0ahKPjDSTLCuWyhwvK1dqI8/J8GOZ67rWCsJBKAAFoMCkCuQLxXyhWNgqUeA/FMvE3LJhkueXgWWT1gbOhwJQYFwFRmVZveF+TGMZ4ay7/6F5/+Z02XGLh/OgABSAAqEUIKeM/bLSdoXmZHAfkyb987x/sCyUrMgEBaDAlBWYiGWDwYB8NO5maj9j4ilmU7YKt4MCUCBuCnCwLORE2UN+WXiW7e3txU1Z2AsFoMDUFOgPBkfMMr/w/2CAya5Tq1bcCArEToFut8csCzkhI8AvY5Zp4f9eb+SpNLGrDRgMBaDAuAq0Wu3CVskS+Ddf+DMyyyhktru7O24hcR4UgAJQIECBaq1OIONgmTaI6csyipRxvEzOMpPhfzn7HyGzgNrAYSgABcZSYG9vz7ODab6FUU7IOPDLmGWMMx7K5G5me/9Dflmz2ex2u2OVEydBASgABWwKuM2W7GCGmfFfb7gjsIxDZowzuGa2CsExKAAFRldgMNjbKh5EykbqYIZlGb/4n7uZzWaz3cZbFUevK5wBBaCAvwKVSs3TKaMOpt+vym1+mQyZcTdTc81c10VP079ScAQKQIHRFGg0XI6UjeqU3ffLBuKjzf4nlnm6Zq7rYn7GaNWF3FAACngp0Gq1CWQ8FYMjZWGcMhvLpGvGo5maa9ZsNl3XLRZLXmXDPigABaBAKAXq9YYEmeaUWUYwa/Ud6mB6s8xvNFNzzfjnmXfXEpv5Qr/fD1VqZIICUAAK3FOg3+9XqjX5hh8CWUinzJtle3t73NGU3cxer2e+AogGAQhnd9cSa+vJ9YSzVSx1MFfjXiXhXygABSwK9Hq9Wr1B74/VwmQEMnN+rOcUWQ+/zGSZ7GbKqBn1NHlMc219yLJE0kkkHcdJpzPZ7e1yY8fd7XTwy01LXeIQFIiVAoPBXqfTdd1mtVbPF4qb+S0JMi1MJleQ04YveYqsdMoO9TH39j+Brpn2gsZWq7W2nlhPDFmWTKYcJ+2kMqn0RjqTzWzk6O9GdtP8ZjZy+EIBKBA9BbTGns3l+ZvbLOQ2C0QxE2SeYTIGmd0pC2aZ5ppp8zPINaMOZiKZSt4DWSq9wTW0kd3M5vL0l0zSTMUmFIAC0VOA+ZXN5QlhEmQcIOPfXcowmexdMsu0F8lqTtmQZeyIkV82Rk9zPeGsJ5ykk0466VR6g5wyrhs2iSzhTTPBpyABBaDAvChgNmTeYyKMfTFz1JLf7TNG77LecBs7TRvLtAFNOQjAPc3d3d31hCOdMu5XaiZt5rekbZzmbEhAASgwvwpwi5YJ7k6aFGOPTFLME2Rm79J0yg5YRr4Y+2UW18wTZ4lkKpFMOamMk8oQyDIbOXIs6a+0R6alzUhDASgQAQVkA6c0dSdlp5IppvUr7SDzC/mTUxbMMnbNOHCm4azT6UinjMJkG9lNrhXisaQy22aajT1QAArMtQLcumWCfmLJP7TcKm4zxeT0i+1ylabFcoyMPTIJMk+n7D7LpFNGaY6jWXBGQwEcKZO9Sx6tYJOkPbwTCSgABaKngGzsGsJMimnu2Hggs7FM9jTtOKPhy3Qmm85kebxSOmLSGNNI7IECUCCSCpD/xX8pLuYZHWN3bFSQcQfzEMuUUuN5Z3JCGUUuc5sF/q+G+8bFUpmt8ktEskZhFBSIqgJ+DZn3S35xd5IX7pWdSl7Et1Kth+xaSpDpLDNxJnuant5Zr9cjllGkjIP9csyVKKZZxZtsNhJQAArMrwLcos0EwYv/EsI0kBHCLCDzC5M1dpr0Hc7JIHeMfk5hd80kzng0gGf5U8ifIpfsjnH3mC2hhGkw9kABKBABBbSWzpueCJOdSumOacF+E2SaU+bhl5mumRY4M3FGLKNIGYX884UiIYz+kjFkCRuGBBSAAtFWQMJL88K0HqXmjo0BMm+WeeLMQjQZ9eeQv3THTJPse6JdwbAOCkRAAXsTlkcJW9pf2aMc1R0zPTLvPib/cN/sbPrhjKZiaJEyGecjwzRjeFOajTQUgAJzqgC3aL+Exi8NYfRzy1p9R37r+wssaX85QKYl9HgZsyykdzYYDCTLOOTPLOPRVrLEz07shwJQIGIKmPDiPfxDcU5IhFFaQxhtavySmzaW+eFMc9AyGzme6M/vVOP5bxrL2BgkoAAUiJUCjC2ZMBHmGeYPBJlvvCzQO6MeKM3YYJZt5rdoHs1WcZtZxuMUbECs6g/GQoF4KsDt3S8xEsX8YmQj+GUMNc/wGe3UWEZRf3LH6C/VpZ9J2A8FoEBMFPDkl6VHGcYdY5wF9DGZZZb+Js3GkNPKiqWy7FpSPVGJY1JnMBMKQAELufiQZ1BM7mRUBSZGYBlxzXTQmGU8rczCMrYBCSgABWKrgKSVXzoQXlqGkVlmEs1kWWm7wmEyHnmNbbXBcCgABSwRfZNlGqRCbo7JMkk0O8t4Cq8sMaoWCkCBCCsgG/tI6ZDY8sz2f7jQ8qCruPoZAAAAAElFTkSuQmCC;imageBorder=default;" vertex="1" parent="1">
          <mxGeometry x="800" y="90" width="265.41" height="390" as="geometry" />
        </mxCell>
        <mxCell id="09hrnqVz9W6icr5VIPB7-4" value="" style="shape=image;verticalLabelPosition=bottom;labelBackgroundColor=default;verticalAlign=top;aspect=fixed;imageAspect=0;image=data:image/png,iVBORw0KGgoAAAANSUhEUgAAAZoAAAI8CAIAAABHyfpaAAAgAElEQVR4Ae2d+ZcURbr3/YP6Bw7vXM893Pe2w7xwmYsz2gzT2oqjLAMqigu7DIrjAojKKCqyKD2AgIIyIogy4DjAKCrdQLMvvXdXV3VV175Xd1W+Ng/zGGZGZWWtXRX57VOHk2RFZUZ8IvITT0Rut2l5/vU7nI4Bl9Pldg163B6vZ8g35PX7/EF/IOQPhALBcDAUCYYioXAUHxAAgZomQMdyYf+OScFvy9NmGnQ2JvWEnYJAxQhk81cgGDb5ZPtVxbIdCkehM0SRIAACowSkPjLxl8lX0k1VwGvQGZoyCNidgNE+OlXRVJKVf3U/NG65rFKDzuzelMvavLDx6icgGkeUkSgvnz9o8SP+StyauJfyMYHOoDMQsCkBUTHBUITtw0pihXl9AYsf/glvhDer2105pAad2bQpl6MxYZs1RECUCxuHHMRKYoUNef388Qz5dB/+asjr55/wRmibvAtxvyXHBZ1BZyBgOwLsFLaMVGTkKZLXwfOutf/oX/x57+xPuu/e1fnf77X/93vtd+/qnP1J9+LPe9f+o//gBRelpF+R13JKrbRGg85s15RL24CwtdoiwCIzji5JPV5fgC3W6/R+fNb59MGe/36v/RebbuT81L/fvvBQz8dnnb3OW1ekUrxGW65AmAadQWcgYBcCRpeJQRnFU0Nev2fI1+v0rj/eb9FiRs3Vv9/+l+P9Pa4husxejNREqYn5KUmvAJ3ZpSmXpLlgIzVNgPVBY0x2mSiyAbd387eOX23rMEoq3zW/2tax9dv+AfetSI2lJjVaScBCZ9AZCNiCgBWXne5wT9/dla+2zNP/fk/XuS63Lkwrk9GgM1s05ZJ0fdhI7RIwcRmNLj1Dvo9anRO2WpojM/eX8dv699t3tzr5RIHXFxDv8uYbvYu/1xs6g85AQHECOV3W6xxaerjXqKHSrln+ZU+fMJtWDqNBZ4o35doNKJDzkhDI6bLTHe7fftBZWnNl29rv93T90P7TwLPkRoPOoDMQUJkA6cw4909jzEGP9+G/dWezTznWP/pp9+C/HyymG3WyeQv2OHSmclMuuFngh2oQYEGwznz+IF1Z5hnyuT3etV/3l8NZ5ttc+3U/PyqRjUY55AwXxh86g85AQFkCutBMvFDW7fF+cnbA3Dvl+/bjMwNuj1d3ka1oNOhM2UZZWNXiVzYnwJFOIBgWLzGjYea1Ps8dpbi4rDDl3bGto3vAw1dviJNonO0Cqg/RGSQIAmoSMIZm4jDzpa/GYJgpui/nkBM6U7NdFlCv+InNCXCMYwzN3B7v1V53mS4xE4Vlvjxha/uVXrc45ORraznz+VYiojMYEAQUJGAemj37ZY+5ayrz7YvH+szPCUBnCjbNfCsV6W1OgKMbXWhGZzPPd7tv35z78RgVMNqEre1t3aMBmmfIx6c4xRfC5XufAKIz6A8EVCNgHpo1f++ogKos7qL5e0cJAzToTLWmbPPABMXndzIZrzVze7yD7qEKXzdr7rWH/9Y96B7SzaAVfMUGdAadgYBqBDg64+sz6OIMt8fbNeD+zy15jzQvuxMftPnNxfSLTTd2tflveJM5k4kJ/nPLDYdrVGfZxpt59U/QmWpNOa/qR2L1COgmzsTbAAbdQ/tanaJNLC5vPu3VNO2jCwGT9B9dDGiatum01ySN9KvPLzgH3T896JGuQSvsMRvQGXQGAkoR4NCMzgOwzmikuf6ffVKn5Fy567xf07R9F+VG23fTZbvO547gjDta/8++Uo03oTOlmrJ6sQZKlC8Bqc7onOage2jp4cIv0SCjGZ2Vbb3RXNI1Sw/3kM7E8WZh02fQGXQGAkoRYJ0ZJ85cg55ZHxf1/AxjFGYetUn9pVs56+Nu16CHz28ab3iyLnToTKmmbL3ikVJVAqLOeKRJ0Zlr0NOwq9hHm5HRms/4frHpRvMZn8kIVKetbP9t2NUp6owvQOPpM+s1BZ1BZyCgFIFsOht0D7kGS3PbORmtxRHTNG1vltm0bPIyrr9jW4dr0GNyNgA6U6qBWq9OpASBCujsPzbd6AumNE3rC6b+w8L7N40KE9dAZ7AVCICAnIC5zoofbP5i042PL41ek9E6MBqdZTvXKQrLfJkGm4jO5NWJ/hkE7ExAqjO6SsM16Jm5r9j3zpV87mzmvi4MNuEyEAABCQGpzjxDPpo7e/pg1Z3ZfPrg6JlNRGeSurRzt4yyg4B4w6Y/EBLPbJLOXjha+Avosl1flm29+RiTv33haC90BpeBAAhICJhHZ3tbCnw/gLmzjNejsa1yLuxtGYDOJBWJzhkEQCCbztwer2vQ09E3WMAt6FtbRu/Z3G16D9NHFwq5Z/M/t9zo7B/EdWfQGQiAgIQA64zv2eTHabgGPU6Xe97+vKfPHKHhD03vP6cQbO/FwNWhRM5wTEwwb3+30+VmnYnX0OIyWkntorsGAVsRMOrM6wvwPZtOl3vbqQLvQhc1VKrlbaf6nC437tmEuUAABCQEpDob8vr5Wo2LXa5Syaj47VzqdtHEWUme4IibnCQNwladOQqrGAHSWTAU4cEmv4+OTm46Xe5izm8WrzDewgtHe2mkaXKVRl6vC4DOoDMQUI0AB2j8UA3dePNyt2sM3xlMOrvj/Y4rPS7pSFN8+0lenQ10plpTzqv6kVhJAqwzXYDG480B5+DrXxd+ARqHV8UsbDjRN+AcPadZqmc3hsJR6Aw6AwHVCJiMN+lyDafL3d7rmtTcUYyPivnt/9vW0dM/GprxOc0hr188rclFyKu/gc5Ua8p5VT8Sq0qAAzRxvCmeEBhwDn52zlH88zAKkNp/bLrx2bn+bKFZwSNNRGdwGQioSYB1phtv8nMcf7wAbcA5+ObxMRhyvnm8d8A5aBKaFXDFGXVLiM7UbM2qBh0ol0UCPFgjnYn3b/IMmtPldgy4Hvlbsc+nzStAe+qzLsfArWGmcdZMDM3yOqcJnUFkIKAyAfMAjS7aGHAO3uhx3r2rQpNo9+7p7Op3isNMz5BPN2tWcGiGwabKrdliN45kqhIwCdDEmwRGjdbr/OMnxT4HLWeM9ujfOm/0jrpMvDhDdFmRoRl0Bp2BgMoEjAGa8ZFBNInW63C9fKzwd9bldNlLx3r6B1w8Zaa7bpZfFVxMaAadqdyUVQ06UC7rBMQATXpOgO8TGHAOOgZcu0/3FfC8DXOX/dfW9o9O9zt+7jJ+DZ14cQa7rIBZM2KCUwEwGgioTEA0mu6iDR5y0pM2yGit7QPPfdk9YWu7uaSsfDtha/tzX3a3tg/kdFnxw8zK6YyBYgEEQKDCBOh14uL5TXG8KZ7lHHAOktH6Hc7zHY4XjnRN2HL9/7yb+2NU239tvfHi37svdP4kMr430xiXkcuKD81KPNg0DoArXHPYHQiAgJGAFaPpRp39Dmdf/8CNHuee73ufPND5f7fmltr/eff6f225/sSnnbu/773R4+x3OI1BWVldVqzOdE8pgs6MLQlrQKAaCOQ0WrYwjbzW1z/wSWvvS3/vfvqzrof2dvx2Z/t/bRmV1293tj+0t+Ppz7pe+nv3Jy29ff0Dff0D/Y6fXKab+9ddllHCuKzwwWa/Q3+2lebzoLNqaLjIAwhICZgYjR9XSzEaT6XR2NMx4CJDka2y/csWo6CMRcY3mZPLhrx+EkXJXZZfdJa5+Uf21V08Yq4z5ogFEACBMSRApwLoDgGaQeNHofFpAR510gUcOqNxsCZKzTHgog/NvjldbpopY5HxGJOvMuPQh81L4VWR/1o6s0kis6IznXfHsOawaxAAASOBbEajAE0nNQrT2GusNvYXL5DIKMoRZ/11IhPjHjE6K9Ji/PMcOhNFJtWZeNcVX0LCGTXSxBoQAIGxJaAzmhim8aiTptJ47Mleo8iL5cX+EiMyCsrIDKwznchERVCAxkoqZiGrzowiE3VGw2MOJimGNOqMwWEBBECgegj4/EH6eH0B+gx5/RygUYxmbjTyl/jvoHuIPm6PlyzGk2XZ/CBenFESqcl1ls1lmUymt8/R13/rchKdznQD4+qpPOQEBEBAR4CNxtEZzaMZpcZeI1u5Bj26D4uMIzIOykSR0R4pGxSf8sSZuFDK6MxEZOmbfzqdkdFYw8aQUqSGZRAAgeohwKGZGKDl1JkoL16miIyDMhaCqDOdT42hWfFS+1l0ls1lJDJRZ3SNHM/5SXNfPdWGnIAACGQjIEqNhpy6gSePPdlZJgueIR99WGS0fd67OGtmEqMVdtvmTzqTukwUGS339Pb39jlEnfHTvklqYu5FUlgGARCoTgKixYwus6gztpi4NSovu8zkygcxNOPlfAeet3RmxWUjN/9YZ3wxragzDtOk1SaWE8sgAAJVRYADK3HBSiAmpmepGQ3ALuNRp+4ML1tMXMjLaKM6s+6ykZGRnt7+nt5+8WJafhibOP9nvZ6MLLAGBEBgDAkYFUaZMa4X11Aa44HP8+kco7HOLA48rRvtNqPLdANMCsro3+Hh4e6ePtYZ32IqzgiKpRrDKsGuQQAEiiQg2irnsm5f5DUxRmOd0UJeUrNoNL3OzF3GOhPPb/KTv0lqVGyxbDlBIAEIgECVE+CQxbjAORePejFMyya1khvtZzrL5rJh4a+ru7e7p6+3z9Hb53ANusPhSCKRTKaGE8kUPiAAAiDABJLJFJkhEo35A0HxXKcYqbHUzKfSrARoWXXGY0xWWermX1d3b1d3b3//QCwe53xjAQRAAARyEUjSlbocrLHUpEYTTwjQck6j/aQzMTTL5rJUKtXZ1eMPBnPlG5EaCIAACEgIRKMxaZhWEqPd0pkVlyVv/oUjUbgMBEAABAomEIslxBMFecVo5gHaqM6suwxzZAVXIX4IAiAgEEiWw2g/01m2MSbFZSnM9+N0BwiAQIkIWI/RdJNoJgHabcbQTDf3Ty5LpiTDYMG1+BYEQAAE8iMQikRNYjTxRKdFo/2kM11oRucxyWWJRALmAgEQAIHSEognbp3r5JMDNI9mPC2Qn86kLkulUslkMpFIDA+PlLYY2BoIgAAIJJKpWCwhPrqC74gqzGi3ojPSmXSYidAMzQ4EQKBMBOKJpO65FboTnTzktBKgjepMGprxMDOFWbMSzX2WqUFgsyBQ0wRC4YjUaOYBmvSEwE86E0MzdtnNSbP8pvdqmiwyDwIgUGECscToeFMcchYcoOl1pjsDEMedTAjNQAAEykxAfLYY3QIlnhPg8abuedzGAO0240hTDM3i8Tgu0ahwZ4XdgYCtCCRTKX7JAF+3IepMfCyaOIOWVWc00jSGZojObNWwUFgQGBMC9Ighkxk0DtBEnRnfJ3ArOtPpbPRsZiIRj8djsdiYFA87BQEQsA8BeqOddAaNTgjkoTOdy+has/jNP+jMPk0KJQWBsSLAL+jMN0DTjTdHozOdzsTQDDobqwrGfkHAPgT4Qdb5BmiWdMahWTSKxwHhOhUQAIHyEqC3j4szaCbnN02mz34WnfE5TejMPh0jSgoCY07AqDO6i1N6ftNMZ+YjTURnY17TyAAIKE+AdFbYCQFxvHmbic6iN/+UR4kCggAIjC0B16CHA7Rips8kOhNHmpFIZGzLib2DAAgoT8DpcrPO+A4Bi9Nn8uhMnDiL3fyLRqPQmfItCQUEgTEnwDrj8ab09gDp1WfQWXlP04x540AGQKC2CJRSZ3xvk3jFGU2clSQ68/qDjy17ua6+oa6+of6uh85duiay9gfDi59/lb41/rv30y/FxNaXj504xVt78fVNkVgl3grqC4RWv7H1F5PvWbFmg3vIZz23xpQeb+CLr04ueGb1J59/Zfy2HGti8cTFqx0b3tv1xIq1TvdQOXaBbYKAlADpjMebxukz3cOCsp3cHJ07K7fOLly5MXHaLJbLzr0HxSKVQ2eRWHzNm+/xHu/548Jeh0vcaZmWvz9zYfykRtrvNz+cK2Yvez/9krZTsNDz3bvTPdQ0b3FdfUPTvMXQWb70kL4YAuXSme48QEmiMzoyp89+6sHHnqmrb1j8/Kv+YFhaeD6Gi3TBwKDn/keW0r7GTZw+buL0Ijcoza1xpS8QevaVt0sSnTEK6MzIGWsUI+B0uXm8aeViWqvRWcl1Fo7EVq59q66+4fWN27ft+VtdfcNvHni8o7tPWh98DBdpn9PnLt0+pWly49yv//XD72Y9VVffsLH5Q+keq3Ylo4DOqraOkLFSEchXZ9kefKYfbOp0Fg7Lwyjrxejpd5JQjp04darl/LiJ0+vqG46dOCXdAh/DReqs+cNP6+obHlv2ssPpXvbielr2+oO6nXZ29294b9e0h56gYV3jnIV7DxzxB0Jislg88W1L24rVb97RMLOuvmH8pMYnVqz9tqUtFv/p7VY8TOPh7eTGuVdudIrboeVQOHrs5HcLnlk9YeqMuvqGCVNnrFz71sWrHfFEkhIwAd6UuCAGtpFY/Jsfzq1Y/eb/3DuP0vxmxmOvb9ze3e/k/XLGNjZ/2NnjWLn2rQlTZ4ybOH3OwlVnLlylZJxG3JG4XGRdcGawAALZCAw4B/OKznLoLNtVGsXr7B8nvx83cTpFZKy21zdu5wNYLCEfzMUcQr5AaMGKNRyRkdqMfvnmh3NkKPHQratvePWdZs5SJBZ/p3kPKViXTMyh0QjG3SWSKX8w/Kc1G3TbqatvEBMzAWMy3Tj9mx/OSdNMvW/+1X+blDN2/yNLp943X0zPO+U04rfislhSJoMFECghAVFnxVyrcSs6K5PO4onk6xu3c3DEA8/7H1k6MOgx4uCDuZhD6MqNzsmNczkGpIFnXX2DOGoLhiMUtU1unHv24tV4IhmLJxxO994DR97d/hFn7FpH95SmR+rqGxY++8qgx5tIpsKR2LWO7nVvN59qOc/JeIFPa7As+KtEMsXB6bq3mwOh0euT/cHw2YtXX1q/mQXE6RmFmG3+NpFMfX/24qvvNF/r6A5HRp9JFwhF/vrhATIvj6xFVU1unHvyu9ZoLLH3wBFdMtosJ8apAJEzlitAoDZ05vb65zz9HAdKiWSKYqXbpzSdPnfJiImP4WJ0dujocXGGjkPClWvfoiOfPEJXh0xunPtd63lpqJhIptiMC1ascTjdxgzr1pjrjOOpl/6yRTek1W0nkUwximw6M/6Ec8sXprChJkydceJUK/2Ek72y4X2x4JwYOjOyxZqyEqgNnZ27dK3+rofEE4scKzV/+KkREB/DBessEou/+PomcVzGIeHvZj3V8+95pXgi+e72j3hI1Thn4ca/fnTharvu8rRBj3fOwlWUbPykxh+vnvv40NFeh0u0gFgKc521d/be9YfHaWsTps5Y+ufXv/jqJAV94kZomVGY6Izm/hrnLNQNh3mKTWoo1hknoz1KExszhjUgUHIC5dUZX0Nb5NzZzr0H6+obRI84XJ57/rhQ1I2Iho/hgnXW63DR9kVd7tl/uK6+QbRqIpkKhaPv795PU/LstV83PfL1v34QbdXrcC18bp3OF48vX93Z4xBzTsvmOkskU5eudcx8ciXvjnL159ffdblHR7Lih1FIdRZPJA98+bUu87xZ9pTUUNCZyBnL1UCAdSZeSVvAfU7yubOS6IyPbT7MxAXp5Rp8DBess29+OKdTj7hTnlTiKgxHYheu3Njw3q5J0+dQyonTZl24coMT0ILb6z/+zenlL/6Fr5JdsGKN7+fnQHVjWOmZzUQyFU8kBwY9X3x18pHFL3BW17z5ni4wZBRSnbG1p943/9uWNvqt0VPQma4e8d/qJFADOuvo7vvNA7fGVqJTePnQ0eM6uHwMF6yzjc0f8vaNC3Oefs7t9et2Sv/1BUILn1tHP/nk0DFpmkQydfFqB51nmNL0yLWObl0yNrj0VIAucSKZ+vpfP9w+pamuvmHGo8t0o84Tp1opM1KdsbnE87A/nL1Yf9dDYuSbl878gdDCZ1/BXQHGasKachMovc6kN2wWM9ikuyaNs/48fcYz1gyrSJ3xzaHirD+djqRLefmOUad76Ll1b3/x1cmBQQ8NLTu7+x96fIVuTHqq5fxL6zd/f+YC3cYQiye+OvE9DfGkJ2fNdfbpF1+/ueWDC1du0BmJSCy+Z/9hCtB4eMgomJL0LASfcn3o8RXdfQORWPzYiVPk2YJ1xpOMt09p+vzYCfHCOs4VFkCgHASkOuP3oovPpDV/qMZPg83S6ozvmjQe9nwHEn3FCjAGU7qrK3Jy5JtDjRENi5K+4rDFuNMVazbwKJLPReqS/Tjk/PjQUZ5iy5aMfsWRJudBt7U7GmbyaUcuo8cbeHz5al1Ktl4oHH1u3du6b3/1u9lkNE7GxRRPVnJkx8l4p8dOnOLxL2+c88/JsAACpSVQ7TpjZxlDMD75SIFbCXVGvuAQTCRO51jr6hs4cNOdFryjYeaCFWuOf9sizmHxLQHilfer39h6vbObXZZIpizq7NYtASvW0OW74yZOb5yz8O1te7LdHu9ye9/YvJN3LYZdiWRqyBfY8N4u2tT/3DvvneY93X0DdDEdeypfncUTyROnWucsXMVThD9e5QudiQ0Jy+UgUO06K0eZsU0QAAElCUBnP7usQck6RqFAwCYEoDPoDARAQBEC0JkiFWmT7hfFBAETAtAZdAYCIKAIAehMkYo06bLwFQjYhAB0Bp2BAAgoQgA6U6QibdL9opggYEIAOoPOQAAEFCEAnSlSkSZdFr4CAZsQgM6gMxAAAUUIQGeKVKRNul8UEwRMCEBn0BkIgIAiBKAzRSrSpMvCVyBgEwLQGXQGAiCgCAHoTJGKtEn3i2KCgAkB6Aw6AwEQUIQAdKZIRZp0WfgKBGxCADqDzkAABBQhAJ0pUpE26X5RTBAwIQCdQWcgAAKKEIDOFKlIky4LX4GATQhAZ9AZCICAIgSgM0Uq0ibdL4oJAiYEoDPoDARAQBEC0JkiFWnSZeErELAJAegMOgMBEFCEAHSmSEXapPtFMUHAhAB0Bp2BAAgoQgA6U6QiTbosfAUCNiEAnUFnIAACihCAzhSpSJt0vygmCJgQgM6gMxAAAUUIQGeKVKRJl4WvQMAmBKAz6AwEQEARAtCZIhVpk+4XxQQBEwLQGXQGAiCgCAHoTJGKNOmy8BUI2IRA5XTmwx8IgAAIlJNA5XRmk/4BxQQBEBgrAtAZBpsgAAKKEIDOFKnIseoPsV8QqB4C0Bl0BgIgoAgB6EyRiqyeHhI5AYGxIgCdQWcgAAKKEIDOFKnIseoPsV8QqB4C0Bl0BgIgoAgB6EyRiqyeHhI5AYGxIgCdQWcgAAKKEIDOFKnIseoPsV8QqB4C0Bl0BgIgoAgB6EyRiqyeHhI5AYGxIgCdQWcgAAKKEIDOFKnIseoPsV8QqB4C0Bl0BgIgoAgB6EyRiqyeHhI5AYGxIlAbOosnkviAgM0JjJUjami/1a6zeCKp4Q8EbEwgo2mZTGZ4ZCSZGiah15BfKpzVqtYZVZ6NWzKKDgJ6AsPDI5BaNktWr86ozmLxhL4+8X8QsD0BRGpSo1W1zmLxRDQWt33TBQAQkBBIDWPsqT+PV+06i0RjkprEKhAAAU3DwFMXo1W1zqKxOHSGwxYETAggRhONVqU6iyeSNNIMR6ImdYmvQAAEEv++jEk8sO25DJ3hcACBmicQiyfiiaQ9FSaWGjqr+aaMAoBAangYRkskU9AZjgUQUIFANBbH9WjQmQpNGWUAAZputvmQEzrDgQACKhAYHh6hAE2cS7LbMnSmQlNGGUAgnU5HY3Gbz6BBZzgQQEAFApmMFonGoDOny+0a9LgGPYPuIbfH6xnyeYZ8Q16/1xfw+YM+f9AfCPkDoUAwTJ9gKMKfUDhKn9uGh4dTqVQymUzc/IvH47FYLHrzLxKJhMPhvOJeXHemwhGGMlSWAHSG6KyyLQ57A4GyEYhEYzafPoPOyta4sGEQqCyBcCQKnWGwadbo9h86WlffQJ/JjXM7uvt0qXMm0KXP9l9fIHjfw0uWvvA6nomUDRHWmxNgndn2cg2VozMSzemzF8VGcPrsxbr6hv2HjoorTZZz2ipnApONi18VrLNYPLH0hdfZubwAM4p481o+e+HK7VOa6uobjn97WvxhlaMmndn5bAB0JjZXs+X9h45KozP+Tc4EnFK6AJ1JsVR+ZSaT2bxj75ynnnvw8WdWv7FleGSE8wCd5XVCr/KJoTNuqzkWctoqZwLzHRSsM94sHWwIyhhIYQuBYGj2U8/uP3R0576D985dNOjxGrdTnagRnUFnWp/Dufj518ZPahw/qfGpla9cutaeyWSMLTinrbIlyGQyl661P7XylfGTGsdNnD7j0WWHj50Q+3za19jqLJlMff2vH+Yuel6ayfWbti994fULV67f88dFk6bPaWm71Np2+X/ve+TuBxe0d/UaWenWULxz+5SmtkvXxK+utXdNnDZr8469BNwclJEPOeW+h5f4AkHa7P5DR+97eInXH2htu/zg48/U1TdMm/nE6XMXpRUq5kRcPnvhyuTGuZevd7RdujZh6oyT37WK39IydFb5yMvKHu2usxudPXfeP5/nm+rqGyZMnXGqpc3YgrPZilNmS3CqpW3C1BniLurqG95+f7fOaLFYfPGqV4uJrYo5xmhKUczkuInTv/zHv6h06zdtf2D+8nv+uIgSzF/20u/nPE3Lb2zeaUUWbZeu3T6lic1Fm92z//DEabOutXfRf81BWdTZtJlPvLn1g3ETp3NZ7rx/fm+/k6sp58KWHfvmLlwVDEe8/sCMR5dJC1gM6pwZKDgBojP1dcbNWlygUwHUKO+8f35L26XhkZF0On3u4tWmeUueXLnW+I6CbLbixidNMOjx3jt30eTGuce/PS3uQjyMaQuUmdfeabZiB96puFDMMdZ26dr7u/YPeryZTCadTre2Xb7z/vnPvPxGIjn6YsD1m7bX1TfMXPCnnr6BxateratvWPz8aw6ne/ZTz1r0bzQWf3Ll2tlPPRsIhijPkWhswTOrn137VjKZ0jQtJxkIOGQAACAASURBVCiLOqurbxg3cfq7f/0oFI6m0+mPDnxZV9/w2Zdfi6BMloPhyNyFq7bs2Kdp2vDIyLq3t814dJnXH9D9pBjUuk2V8L/Qma111tHdN7lx7uFjJ8Qmte+zI79ueqSr1yGu1DRNaisxjTTB8W9P19U36HZx8rvWcROn686u0hGyftN2cZt5LZfwGNNtav2m7eMmTj/+7WlaP2HqjHMXr+rS5Mzq4WMnxk2czieaL1/vmDhtFg/lcoKyqLNRsJ8f4y6BqliH2iSrNMDkTB7/9rSYZ/5hvmXnH5Z1ATpTX2fcNKkliRdqGEdYFMEZZ3kK1pnUcX0Drt/+4XGduegI0a3Mq/UXc4wlk6nPj56Y8egycZjGkdf6Tdtpiop2IS5zmpxZpfiLx25bduwTg7WcoCzqzPzsc85MbtmxT5z+p5rSjZE1TSsGdc48FJwAOoPObl0iKw5FK6OzDVt3iQ13DHU2PDLy9vu7RQK0zKoqic5o7EayoLOHe/YfZgImOiNQFdAZjTSNHETtUoahMysT85VPY2udXb7eUX/XQ7pLJfkA0y1IjzcxjTTBka+/MQ42aQhz5OtvxJ8Xv1zwMUYxyAPzl3f29NMwTbepkuhM07SzF67QucKzF678buaT4gx9TlBGnXV29/1+ztO6M5vFRGd0vsKoM2P3puNTfN2VZAuIzmytM4oRmuYtOdXSlkoNmzcpqa3En0gT9PY777x/vni24cz5y3c/uODuBxeIB7OmaUO+wMOL/7zwuXWhcIEvryr4GKMJpsWrXg0EQ5lMZtDjfX/X/jsaZpY2OtM0jU4I/Gn1hjVvbl339jbx3G5OUFS6yY1zz5y/nE6nL1y53jRvSV19Qwl1tmXHPqMNqc+jkwNc3QWj5i2UYwE6s7XONE2TXhzAhzG1WmN3zYdQzgSZTGb/58fECakfT7SNn9R44Mt/8HQ1tWyayDMeTjnbfbY8cClybiEUjj68+M9iMcdNnP6LyffwFkoVndEU5LiJ02+f0qSb07QCas/+w2ImJzfOnTbzCa4LK/ObJijoTCsXmVPSCJQu3SgeNW+2HAvQmd11RpduLlr1qnhpGLfpbM2XD6GcCTRNS6fT3/xwdtaTK8dNnG5ypW7B0Vm2PHAprBw5DqebryWev/TFH85ceO2dZt5CCXVGUZhxNsoKqHgiufWDjydMnTF+UuPi51/rczh37jvIdVGkzigK27nvoA5XJpN5Y/PO+rseuny9oySoddsv4X+hM5V1VsKGgk2VisCla+0Tp80STwKUasvYDnQGneEoqBCBdDpN84YPzF8uvRGyQvlQdzfQGXSmbuuumpKJY7Rs95BVTWZrOCPQGXRWw823VrJOOhs/qXH+0hcvXLmuOwdSK6Wo/nxCZ9BZ9bdS5BAELBGAzqAzSw0FiUCg+glAZ9BZ9bdS5BAELBGAzqAzSw0FiUCg+glAZ9BZaVopXQR794MLjE8WKs0OsBUQyEUAOoPOcrURa9/zs4asP1rL2oZrI5Xx/vDayLdauYTOoLPStGiKzprmLenpGyhgi4Me77IX1n925J8F/NbiT8q6C+iMakG8wk68vZRvF7NYWYUlg86gs8JaTol/le9DUwvYfVl3AZ1RjUBnlX/GmbhH6KwAM5T+J2V1DWW3rLuAznRtgrxWmaCMd43oTHGdmb9vjdpBn8O5at079ESNe/646MSp1nQ6zU1E00bfXGeSwMpb0LNtIVtnrnuMl3kpSCUbtu7iN+xNmDpj6wcfxxOjby2xuAuxvAUsUx5WrXunf2Dwz69tHD+pUcwDbdDkvXP0/Ejj0yw0Tdu57+Bv//B434DLYq50zy+hV7Twb4shyRuxsgCdiUFTxZYV1xnP0PNEhvi+NU3TOrv7dC+m0z1xLGeCnDoz2YJF15iXglQybeYTkxvncjHr6hvoqRUWd2HlEDVJQ3l4YP7yux9cYMwD/VD6aDl6QR89U0z6ngR6Jx6//8kkD/TupY3NH+qeLiduthiS5rvWfQudVUxh4o4U15n5+9boCVn1dz3U2jb6gFN6EOv2jw6IF1vsP3TUPAG3Y+nTaK3sQtM085GgeSlIJXX1DU3zlly4cj2dTl+61j65ce6Pb+2MxeKcPfNdcLLCFjgPdz+44Mz5yyMj+jyYv3cukUw+8/IbNDT78bHAq9a9s/qNLcMjI7Se34+XM2+nWtpun9LUNG/J2YtXh0dGhkdGrlzv/Nvhr/iHJSHJWzNZgM5Ey1RsWXGd6RqcsZEd+fobei2jeOSLv8qZgBNn05mVLeTlGl0pSCV33j//RmcPZYYSiM81zGlMLkVhCznzkPO9c+s3bacnvg75AvfOXTR99tMu9xC9SlkMr0yyNzwysvqNLZMb517vuMXBJDF9VRjJnJvlMT7mziomMtqR4jozf98aPb1+zZtb6YHXK15+89vT5+gtttxko7G4eQJOmU1nVrZgrjPzUpBKxCNnrHRmkgcpHPEFffsPHb137qIhX6Dt0rVHl77w0OMrTp+9SEWzeClftqdjcwVpmlYSkuIGsy3rRJktWWnX41SAyjrL+b41akyZTKbP4dzY/CFNot394IL2rl6xneVMQImlR6zFXZjoLGcpal1n9N6502cv0qzlzn0Hd+z97I3NOzfv2Nvb7/ztHx4/1dImVke2ZZqAE5WqS1kqkrrNSv8LnVU4LlM/Osv5vjVdQ0yn06da2iZOm0UTN7pv6WH2JglMdMabyrYL0pnudUH0q5ylyEtn0l1w9gpeyJmHnO+du9HZM+Xeef/6/syfVm9ou3Tt9NmLcxc9f+b85d/NfPLy9Q4rGaOJtt/Pedo56JGmLxVJ6cZ1K6Ez6CzFCOKJZCyeiMbi4UiBb2nj2SKT961pmvbBx4e+Ovl9MBzRNC2TyfT2Ox+Yv1yce86ZgNtxNp1Z2YLLPTR99ugrIzu7+3RPNyTTmZQip0oohya74CK0d/Xe/eCCe/64SBefcoJsCznzkPO9c5S9jc0fPrFijdcfcLmH7nt4yVvv7crrKg161dP8pS929vSnb/5dvdHFpwJKRTIbBHE9dMbHciUXVB5s5nzfmqZp6zdtFy8sqKtv0F3JYZ6AWq1uC7qrxsy3QMdAMpn682sbxe3wRH7OUuRUSc5d8HH42ZdfUx50b2jnBNkWcuYh53vn+A3kFBrT+c3bpzQ9MH+5xas0aCb0mZffEDHW1TfwmYRSkcwGgc8A6DJQV99gMgQ22Vq+X2HuTGWdaZpm/r610Zf1ev1vvbdryr3z6uobJkydsWjVq5eutYvxkXkCKzoz3wI3WX8g9NZ7u+5omEkHA+ssZylyqsTKLihNKBx9YsUaUQH8W/MFK3nQXeD61MpXRNTkr7r6Bn45PI1P8xVBLBbf/tGB3818kip01bp3HE43Z968PVgpBW9KupCtPeRbCunGc66EzhTXWc4WgARMIJPJeP2BP63eUFffcPjYCV6PhVohAJ1BZ7XSVsubT5pXosDwmZffiArX35Z3x9h66QhAZ9BZ6VpTLW+po7vv102PzHh02edHT+iuvKvlYtkr79AZdGavFo/SKkwAOoPOFG7eKJq9CEBn0Jm9WjxKqzAB6Aw6U7h5o2j2IgCdQWf2avEorcIEoDPoTOHmjaLZiwB0prLOjBd5F9C6cz5stoBtjslP9h86On5S49xFzx/48h/ZHu42JhnDTktFADqDznK0JZV0xvcSNs1b0tnTn6Pk+LrWCEBn0JnVNpvtgRlWf18F6dLptNM9tLH5QwrTrN/aXQV5RxZyE4DOoLPcrYRSKKAzKkgmk/ng40PjJk4/+V2r1cIjXS0QgM7U15n529LovXOLn39t/KTG8ZMadY95ENuwVGc0Pffjc+75UQ3GF7KJG9EtZzKZzTv23j6lqe3SNfGra+1dE6fN2rxjLz3bw+SVbpqmGacI6bkO4jM5xI1rmnaqpa2uvsHiQ6t1v8V/q5YAdKa+zszflnajs0f3YroJU2dIn+ZsorMZjy7TbWRj84fDIyNW2n3bpWu3T2lic9FP9uw/PHHarGvtXfRfk1e6FaCzQDC0/MW/iI/isZJPpKl+AtCZ+jqrq2/I9rY0imLuvH9+S9ul4ZGRdDp97uLVpnlLnly51vhICROd0Uvhzl28mk6nu/scD8xfTi8isnIARGPxJ1eunf3UszyTRa/weHbtW3QruPkr3fLSmfggSZOHUFvJNtJUIQHoTH2dmbyxjZ6Ko3u2177Pjvy66RHxVZvUcE109sD85YMeL7fv/YeOjps4vbXtMq8xXzh87MS4idNPn71IyS5f75g4bRZPbOV8pZv1webOfQelDzU0zx6+rRUC0Jn6OhMfBKqbVDK+E5suZTBOZtHbf3UvSJdGRpqm0WZZTzkPBoq/3ti8k2bKtuzYJwZrUo2Kr3SzrrP9h46aTKjlzCcSVDkB6Aw6a+CrsXihwjobHhlZ9/a2e+cuGvR4A8HQ7Kee3bP/MB85JjqjJ/pDZ8zK5gvQma11dvl6R/1dDx3/9rSVw0CqFaNK6GRl/V0PWXydGu367IUrE6bOOPld69kLV34388nefidnKecr3Yx56Ozu+/2c0fdC+QJB3g4WlCcAndlaZxQKNc1bcqql7cdXb5g3dxOdPbXylSFfQNO0eCL5yaGjE6bOkJ5MMNk+nRD40+oNa97cuu7tbeJZ0ZyvdKMR9OTGuWfOX06n0xeuXG+at0T3NilN04ZHRjY2fzht5hPGaUGTjOGrGiIAndlaZ3QF1oSpM3iYSQs83Uam0H0rmoIiI10C8eSD9YOBTiDcPqVJN+mW85VumqbR+yU5G5Mb506b+YQuOuOs4nIz65VSWymhM7vrjK5QXbTqVVFqBevsjoaZz7+6sc/x01DR+vFAUZh4EoB/a/5KN4oKt37w8YSpM8ZPalz8/Gt9DufOfQd1OkN0xjxVXYDOVNZZBVqtcd6q4J1eutY+cdos8SRAwZvCD+1JADqDzopq+SXRWTqdPnP+8t0PLtBdv1ZUzvBj+xGAzqCzolp9kToT5+ay3VxVVP7wYzsRgM6gs6Lae0l0Nn5S4/ylL164cp0uoy0qQ/ixXQmk0xnorHp1Fk8ko7F4OBJNp9N2baIoNwhYJZBOp0ln8UQynkgmkikbfqpUZ4lkinWWGs5xRZjVCkc6EFCXQGp4mHVmQ5FRkatdZ5FoLBaPq9sIUTIQKA2BWDweicaisbhtQ7NEMlXVOovFE5FoLBSOlKbCsRUQUJdAKBy52fcnoDPXoMc16Bl0D7k9Xs+QzzPkG/L6vb6Azx/0+YP+QMgfCAWCYfoEQxH+hMJR+tw2PDycSqWSyWTi5l88Ho/FYtGbf5FIJBwO5xsAxxNJ0lk4EqUnf6nbFFEyECiKQDKZCkei0Fm1R2d0NiAYChdV2/gxCChNIBgK47RmVQ82+WwAjTcj0ajSDRKFA4ECCUSiURpp2nzirAZ0FosnOECLJxIFVjh+BgKKEognEgjNeCKregebFJ3R5RoUoAVD4WQqpWizRLFAIG8CyVQqGAqLoZmdzwNUe3RGRuMALRSOBIIhXLeRd6vHD1QkEIvHA8FQKBzBrFltRGeUS/EUJxktEo3hfiAVj1CUyRKBTCYTicbYZTihWWM6MxrNHwhGo7ERa++ytNRGkAgEqp7AyMhINBrzB4JGl9l8mElGq+q5M5Yu6YwvQwuFI8FQOBAMUb1Go7FEMjk8PIyQreqPR2QwPwKZTGZ4eDiRTEZvhmPU4Gm+jC80i8VtfeksW6IG5s44r3RjLc2jRaKxcGT05DRJjbzmDwTp4/MH8AEBBQhwkyaLBYIhUWTRWJxEhriMLVEb0RllV2c0lhp5jdUWCIbwAQFlCARDYbIYzfpHojG6NxMuY4vxQi3pjC/d+PGphxSmRWOjt92GI1H6hMIRfEBAMQLcvMliFJTBZawwcaHGdEZZ5zBN9Bqpjfou/AsCyhCIxuL0odYOkYn+0i3XpM5EqenUxlWOBRBQiQC1c/pXdwzjv0yghnXGZeBBqFjlWAYBlQiIrR3L2QgoorNsxcN6EAAB+xCAzuz4SHX7tG+U1FYEoDPoDARAQBEC0JkiFWmrThiFBQEpAegMOgMBEFCEAHSmSEVKOyusBAFbEYDOoDMQAAFFCEBnilSkrTphFBYEpASgM+gMBEBAEQLQmSIVKe2ssBIEbEUAOoPOQAAEFCEAnSlSkbbqhFFYEJASgM6gMxAAAUUIQGeKVKS0s8JKELAVAegMOgMBEFCEAHSmSEXaqhNGYUFASgA6g85AAAQUIQCdKVKR0s4KK0HAVgSgM+gMBEBAEQLQmSIVaatOGIUFASkB6Aw6AwEQUIQAdKZIRUo7K6wEAVsRgM6gMxAAAUUIQGeKVKStOmEUFgSkBKAz6AwEQEARAtCZIhUp7aywEgRsRQA6g85AAAQUIQCdKVKRtuqEUVgQkBKAzqAzEAABRQhAZ4pUpLSzwkoQsBUB6Aw6AwEQUIQAdKZIRdqqE0ZhQUBKADqDzkAABBQhAJ0pUpHSzgorQcBWBKAz6AwEQEARAtCZIhVpq04YhQUBKQHoDDoDARBQhAB0pkhFSjsrrAQBWxGAzqAzEAABRQhAZ4pUpK06YRQWBKQEoDPoDARAQBEC0JkiFSntrLASBGxFADqDzkAABBQhAJ0pUpG26oRRWBCQEoDOoDMQAAFFCEBnilSktLPCShCwFQHoDDoDARBQhAB0pkhF2qoTRmFBQEoAOoPOQAAEFCEAnSlSkdLOCitBwFYEoDPoDARAQBEC0JkiFWmrThiFBQEpAegMOgMBEFCEAHSmSEVKOyusBAFbEYDOoDMQAAFFCEBnilSkrTphFBYEpASgM+gMBEBAEQLQmSIVKe2ssBIEbEUAOoPOQAAEFCEAnSlSkbbqhFFYEJASgM6gMxAAAUUIQGeKVKS0s8JKELAVAegMOgMBEFCEAHSmSEXaqhNGYUFASgA6g85AAAQUIQCdKVKR0s4KK0HAVgSgM+gMBEBAEQLQmSIVaatOGIUFASkB6Aw6AwEQUIQAdKZIRUo7K6wEAVsRgM6gMxAAAUUIQGeKVKStOmEUFgSkBKAz6AwEQEARAtCZIhUp7aywEgRsRQA6g85AAAQUIQCdKVKRtuqEUVgQkBKAzqAzEAABRQhAZ4pUpLSzwkoQsBUB6Aw6AwEQUIQAdKZIRdqqE0ZhQUBKADqDzkAABBQhAJ0pUpHSzgorQcBWBKAz6AwEQEARAtCZIhVpq04YhQUBKQHoDDoDARBQhAB0pkhFSjsrrAQBWxGAzqAzEAABRQhAZ4pUpK06YRQWBKQEoDPoDARAQBEC0JkiFSntrLASBGxFADqDzkAABBQhAJ0pUpG26oRRWBCQEoDOoDMQAAFFCEBnilSktLPCShCwFQHoDDoDARBQhAB0pkhF2qoTRmFBQEoAOoPOQAAEFCEAnSlSkdLOCitBwFYEoDPoDARAQBEC0JkiFWmrThiFBQEpAegMOgMBEFCEAHSmSEVKOyusBAFbEYDOoDMQAAFFCEBnilSkrTphFBYEpASgM+gMBEBAEQLQmSIVKe2ssBIEbEUAOoPOQAAEFCEAnSlSkbbqhFFYEJASgM6gMxAAAUUIQGeKVKS0s8JKELAVAegMOgMBEFCEAHSmSEXaqhNGYUFASgA6g85AAAQUIQCdKVKR0s4KK0HAVgSgM+gMBEBAEQLQmSIVaatOGIUFASkB6Aw6AwEQUIQAdKZIRUo7K6wEAVsRgM6gMxAAAUUIQGeKVKStOmEUFgSkBKAz6AwEQEARAtCZIhUp7aywEgRsRQA6g85AAAQUIQCdKVKRtuqEUVgQkBKAzqAzEAABRQhAZ4pUpLSzwkoQsBUB6Aw6AwEQUIQAdKZIRdqqE0ZhQUBKADqDzkAABBQhAJ0pUpHSzgorQcBWBKAz6AwEQEARAtCZIhVpq04YhQUBKQHoDDoDARBQhAB0pkhFSjsrrAQBWxGAzqAzEAABRQhAZ4pUpK06YRQWBKQEoDPoDARAQBEC0JkiFSntrLASBGxFADqDzkAABBQhAJ0pUpG26oRRWBCQEoDOoDMQAAFFCEBnilSktLPCShCwFQHoDDoDARBQhAB0pkhF2qoTRmFBQEoAOoPOQAAEFCEAnSlSkdLOCitBwFYEoDPoDARAQBEC0JkiFWmrThiFBQEpAegMOgMBEFCEAHSmSEVKOyusBAFbEYDOoDMQAAFFCEBnilSkrTphFBYEpASgM+gMBEBAEQLQmSIVKe2ssBIEbEUAOoPOQAAEFCEAnSlSkbbqhFFYEJASgM6gMxAAAUUIQGeKVKS0s8JKELAVAegMOgMBEFCEAHSmSEXaqhNGYUFASgA6g85AAAQUIQCdKVKR0s4KK0HAVgSgM+gMBEBAEQLQmSIVaatOGIUFASkB6Aw6AwEQUIQAdKZIRUo7K6wEAVsRgM6gMxAAAUUIQGeKVKStOmEUFgSkBKAz6AwEQEARAtCZIhUp7aywEgRsRQA6g85AAAQUIQCdKVKRtuqEUVgQkBKAzqAzEAABRQhAZ4pUpLSzwkoQsBUB6Aw6AwEQUIQAdKZIRdqqE0ZhQUBKADqDzkAABBQhAJ0pUpHSzgorQcBWBKAz6AwEQEARAtCZIhVpq04YhQUBKQHoDDoDARBQhAB0pkhFSjsrrAQBWxGAzqAzEAABRQhAZ4pUpK06YRQWBKQEoDPoDARAQBEC0JkiFSntrLASBGxFADqDzkAABBQhAJ0pUpG26oRRWBCQEoDOoDMQAAFFCEBnilSktLPCShCwFQHoDDoDARBQhAB0pkhF2qoTRmFBQEoAOoPOQAAEFCEAnSlSkdLOCitBwFYEoDPoDARAQBEC0JkiFWmrThiFBQEpAegMOgMBEFCEAHSmSEVKOyusBAFbEYDOoDMQAAFFCEBnilSkrTphFBYEpASgM+gMBEBAEQLQmSIVKe2ssBIEbEUAOoPOQAAEFCEAnSlSkbbqhFFYEJASgM6gMxAAAUUIQGeKVKS0s8JKELAVAegMOgMBEFCEAHSmSEXaqhNGYUFASgA6g85AAAQUIQCdKVKR0s4KK0HAVgSgM+gMBEBAEQLQmSIVaatOGIUFASkB6Aw6AwEQUIQAdKZIRUo7K6wEAVsRgM6gMxAAAUUIQGeKVKStOmEUFgSkBKAz6AwEQEARAtCZIhUp7aywEgRsRQA6g85AAAQUIQCdKVKRtuqEUVgQkBKAzqAzEAABRQhAZ4pUpLSzwkoQsBUB6Aw6AwEQUIQAdKZIRdqqE0ZhQUBKoHI68+EPBEAABMpJoHI60/AHAiAAAuUkAJ2Vky62DQIgUEEC0FkFYWNXIAAC5SQAnZWTLrYNAiBQQQLQWQVhY1cgAALlJACdlZMutg0CIFBBAtBZBWFjVyAAAuUkAJ2Vky62DQIgUEEC0FkFYWNXIAAC5SQAnZWTLrYNAiBQQQLQWQVhY1cgAALlJACdlZMutg0CIFBBAtBZBWFjVyAAAuUkAJ2Vky62DQIgUEEC0FkFYWNXIAAC5SQAnZWTLrYNAiBQQQLQWQVhY1cgAALlJACdlZMutg0CIFBBAtBZBWFjVyAAAuUkUDM6+65Pm3tA+80H2i+34QMCNU/gNx+Mtufv+vI+uHsC2qIvtKk7a56AeCBP3akt/lLrD+ZNQ/eDGtBZOqNtadH+d4f2fqt2sls768QHBGqewMnu0fZMrTqd0R2VWf97ZkD7n+1KiUyU2pTt2tmBrGW38kUN6OzMwGhQ5opYKQ7SgEAtEXBFtN9+oLU4LOW5J6BNUddl5LVf7ygqRqsBnS05ou0+b6m+kQgEao7A7vPakiOWcr3s78rGZWKM9sxRSzSkiWpAZ9N2j44x8QcCShI42a1N222pZIrNl4kKE5fv3GmJhjRRDejsl9u0c05p5rESBGqewDnnaMxl5U885tVetkJDmgY6k2LBShCoEAHozKjmgtFDZwWjww9BoAQEoDPorATNCJsAgWogAJ1BZ9XQDpEHECgBAegMOitBM8ImxpzAzNnzxjwPY54B6Aw6G/NGiAyUgAB0pmmjZ+1xZlNntILbFk4FFIwOPyyWAHSmns4+v6al0tr2s0Vd8Vtww7KRzj49cHDh4uU+n79gWAX/cOO7W2bOnvfpgYMFb6ECP+zo6Hz0sSdPt7SWfF8+n3/h4uUzZ8/T8YfOoDNdXEb/LbgFQmdW0W18d8tLq1+JxWJWfyCkqyqdZdNWtvVCOYpd1HGAziqss+1nR0Mn+is+hpKaCNFZjoPE+l0Bjz72pDEC4qCMF3LsL8vXxegsyyYLXE3emTl7Hn82vrvF+rayaSvbeutbtpJy47tbHn3syY6OTk3ToLNK6uzza6P10+q4NQx8+guty6+9fLyoUaHRaNBZjqPAus4WLl4u1RlFVYrpjEeFpCHdOM6EaTZtZVtvsqkCvqK9UDVBZxXT2dNfaJ7o6OfpL7L6i3xHddrl/ynZ9rNaNDU6Hdb173ka3XbEoE/TMHdmeliUVmcdnZ00j2OczDrd0srxDtuBDj9ezwsWB540vKJfsYDE4ooJjC4WU/Ky0TuU808PHOQFTqxp2sZ3t1BxxH1xQWbOnkcZ481yMl0ZeQps5ux5HGFpmkbrT7e0fnrgIG2W6YnZoGXoTMekMmc2SWfRVNZwrNXxk4ZePj7qLzYa24oiO923JMHPr93SH6IzXf3q/2tdZy+tfsU47Pr0wEGOzkStnG5pFY/Jjo7O5r/uoH3HYrGXVr+iOyaLGWyyKXRlY9HQ+ua/7qBRmC6Z7r/GrbEjKOeihsg1Ihbjz2n7tH7m7HmUmH7IhtWJksxFHmTN0Q+NeRDz/+mBg4wd0VnForNfbtM4+GJP8VCRDMXjUErMk2ukM/FXXf5bgR5ZUvwKOhNbu2S5AJ11dHQuXLSM1LDx3S10mIlHIMcUfLjqdkxHrxhPlVxndNiLotHlIdt/jT4Scyv6QtM0nbU1TTP+l4F4wgAACDpJREFUnHZE68X8cJGNWRWdRToTHWoc17MrORjE3Blhr0x0RuYi+9B+xUjN6CBSGMVc4jJth3Vm/Mq4KZam9YVsLT/neqXObOrMRaoSV4oBly760JEyHvN8bOtSWvmvcWv0KxrWiQYpYGs6DdF/WdPGbGfLjHE9/1a3TcokO8tIkr/i4lAasXuAzghOJXXGQuFIjYTVmuVxuNBZMnHzLx6Px2Kx6M2/SCQSDoe5Zee7YD06o8PP5/O//pc393y4j+KFje9uoWNbd4wZD0KeM+J5JfHw42M73/ybBESapvF8k3EuL9uOSC6cSTHeoZ9wVqUSMWqLfmVcz9sxfkU5p2GjkaQONcfCIk/ojLCPic5+uW10Ei2aujVmNA+pjCEYorNK6IymyS5evPT6X950DAz86dnnL1689NLqV6zoTLyAQCogPrazWcZkvVQHYnoau1k0Ws6t8QDzdEurGJDSHrP93Liei2z8inRGG4fOxKrMd7kadGYUFsdxv9w2ek4zlR6deuOVrDPdpBsNZnnSjdPnu5AvQ06v1GCTgoLmv+7gYSbFaDl1RgekOOgzHsDGiIMh5lwwbs34E+P8lDENrcm5NdrUpwcO8kBb3JTRPtk2yzoz5k1cY9ygRVY4FVCxUwEvHx89UylepUEDTJZUl/+nM5s6+5jo7JfbRjfL03C0TFd16DaS13/F5prXsmo6e/SxJ1esXEUnAShIWbhoGY1xdMeYeBDSwcmBDM2s6wZxulN7eVGWCsjn8298dwvfZkBpyLzmG5duTfcTGsPyOUTxW11h+SvjZllndEpBBCKecBBJ0tZ0qPnnYoeBwSaxqlh0Rlbi6mYHsWh0M2h8cZm5zsTTC62O0VAOOmPIkgXrc2dkHLYSHWZ8EOqOMd1ByIlnzp730upXLl68ZLyBUZznEk/kSTJ9c5W4TZ7q4uzxkJa/0k0tZdus0TvGlJQmWyZ1GaP9Gjcr6oyVRLkVS6EjKY5DOWNUNdAZA+GFiumMtVX9Cwwn3wWlorN8C69wenKTlVhvDCFgsFmxwWb1K0zMYcFtEjorGF1V/1AXilZnXqEz6Ey0GC8X3Fyhs4LRVe8PaWRnceg6hsWAzqAzVpi4UHCbhM4KRleNP+TZvep3GU4FUAPC3JkoMlou+NCCzgpGhx+CQAkIQGfQWQmaETYBAtVAADqrap0lk6P3OY3JTU7V0DqRBxDIiwB0Vm6dDXn9Q16/1xfw+YM+f9AfCPkDoUAwTJ9gKMKfUDhKn9uGh4dTqVTy5h90lleDRmI7E4DOoDM7t3+UXSkC0FnN6IweqlHkEzWm7dZOdivVglEYEGACJ7u1abv5f2YLd+786SZwowIUWdOsTd1pBsH8Oz6zOegeGnQPuT1ez5CvZIPNkuhsyRFt93nzUuBbEKhVArvPa0uOWMr88r9rv2xW32grj1miIU1UAzprcWh379LcEWn+sRIEapiAK6I17NbODFgqQn9Qm7JdcZ1N2aE5C3+WmFYDOtM07a3vtP/dob3fqv2rRzvrxAcEap7AP7u0bWdGW3XzGUsuo0RtTu1XzTdjNMXCtJvF+VWzdnUoDxrGpCXWGZ3cpDObfK1GkXNnlOkuv7bupHbvR4r3TorMgGxDNeUgcO9Ho+2ZX/VmPDKzrXGEtKVHRieYVGoqU3eOFqqYuIxwiTpze7w8d+b1BQq5UCObziIRjBWztU+sBwEQKA0Bp8vtdLldgx46DwCdlQYrtgICIFB5AvnqjC+gpQX9ZbQcnRmvpK182bBHEAABWxGg0IyjM8+Qjy7U4MEm3RLAdwVAZ7ZqHigsCNQSgVLqTHqfE196VktUkFcQAIEaJMATZ8VcQxsKR0fv2TTXWSaTqUE+yDIIgEBtEBhJp0uvM54+i9/84+gsnU7XBhXkEgRAoAYJpFLDrLNirtL4WXTGOtOdDRgeHq5BRMgyCIBAbRCIxeKuQY/JeQCLTwfKoTMK0BKJRG1QQS5BAARqkIA/ECSX8cSZ7rRmHjobGRmRTp+J9wZg+qwGGwmyDAI1QCCTyUhHmsYHN+a8SmM0OhN1xuNNcfosGo2mUqkaAIMsggAI1BqBSDQmjjTzvR8gGIrwNbRZdcbTZzTejEajCNBqrZ0gvyBQ7QTS6cyg+9asWfEjTbnO+KUBPN6MRqPxeLza2SB/IAACNUXA5wtIQzMaaeZ18/mtdwWM3Pzj6TMeb+oCtEgkgiFnTTUVZBYEqppAKBThWbPCQjPdSPNWdGacPpMGaJFIBBdtVHUDQeZAoEYIxGJxchlfn8GzZtZDs6w6E43Gb3XSBWjRaDQSibjdnhohhmyCAAhUI4FgMCS6TBeamZzTDATD4s3n4kmAW4PNdDotHW/qAjS+SeD6jY4Bp2tkZKQaOSFPIAACVUxgZGTE5w+IjwMil1kMzfLWGd2/qZtBo3MCZLTrNzputHe2d3QNuj1JXMBRxU0HWQOB6iEwPDwcCIboqbO6KTNymfHSWfOrZ40jzdG5M47OxPEm6YwCNBpy8lnOG+2jOuvo7Oro7Orq6unp7R8a8obCkUQyibs7q6f1ICcgMLYE0ulMMpmKRKL+QNDpcg84B0WX6abMxNfQ6U5o8tWzOUOzWzpjo9H5TTFAE40Wu/l3o72jvWNUZ52d3V1dPV3dvd09fT29/b19Dvq3r3/A+Ontc+ADAiCgHgHdwd7vcPLHMeByDLhIZEaXSafM2GUFhGZ6nekCNOmQk0aaHZ3dnf92WXdPH1dSX/9Av8NJ/1KpdKXFf0EABNQjwArrdzjJYqLLeLKM780Up8zEYSbrTPf4WV1oJh1phsLR/w8Gf2xrBkoxAwAAAABJRU5ErkJggg==;imageBorder=default;" vertex="1" parent="1">
          <mxGeometry x="40" y="95" width="272.38" height="380" as="geometry" />
        </mxCell>
        <mxCell id="09hrnqVz9W6icr5VIPB7-5" value="" style="shape=flexArrow;endArrow=classic;html=1;rounded=0;exitX=0.999;exitY=0.52;exitDx=0;exitDy=0;exitPerimeter=0;" edge="1" parent="1" source="09hrnqVz9W6icr5VIPB7-4" target="09hrnqVz9W6icr5VIPB7-2">
          <mxGeometry width="50" height="50" relative="1" as="geometry">
            <mxPoint x="510" y="330" as="sourcePoint" />
            <mxPoint x="560" y="280" as="targetPoint" />
          </mxGeometry>
        </mxCell>
        <mxCell id="09hrnqVz9W6icr5VIPB7-6" value="" style="shape=flexArrow;endArrow=classic;html=1;rounded=0;exitX=0.996;exitY=0.526;exitDx=0;exitDy=0;exitPerimeter=0;entryX=0.008;entryY=0.536;entryDx=0;entryDy=0;entryPerimeter=0;" edge="1" parent="1" source="09hrnqVz9W6icr5VIPB7-2" target="09hrnqVz9W6icr5VIPB7-3">
          <mxGeometry width="50" height="50" relative="1" as="geometry">
            <mxPoint x="510" y="330" as="sourcePoint" />
            <mxPoint x="560" y="280" as="targetPoint" />
          </mxGeometry>
        </mxCell>
        <mxCell id="09hrnqVz9W6icr5VIPB7-7" value="&lt;font style=&quot;font-size: 16px;&quot;&gt;&lt;b&gt;input&lt;/b&gt;&lt;/font&gt;" style="text;html=1;align=center;verticalAlign=middle;resizable=0;points=[];autosize=1;strokeColor=none;fillColor=none;" vertex="1" parent="1">
          <mxGeometry x="340" y="228" width="60" height="30" as="geometry" />
        </mxCell>
        <mxCell id="09hrnqVz9W6icr5VIPB7-8" value="&lt;font style=&quot;font-size: 16px;&quot;&gt;&lt;b&gt;response&lt;/b&gt;&lt;/font&gt;" style="text;html=1;align=center;verticalAlign=middle;resizable=0;points=[];autosize=1;strokeColor=none;fillColor=none;" vertex="1" parent="1">
          <mxGeometry x="704.83" y="238" width="90" height="30" as="geometry" />
        </mxCell>
      </root>
    </mxGraphModel>
  </diagram>
</mxfile>
